<svg width="121" height="122" viewBox="0 0 121 122" fill="none" xmlns="http://www.w3.org/2000/svg">
<path d="M11.4876 14.6679C11.9868 14.391 12.5368 14.2177 13.1046 14.1585C13.6724 14.0994 14.2463 14.1556 14.7918 14.3237C15.8813 14.663 16.8787 15.2469 17.7078 16.0309C19.3599 17.504 20.4228 19.7977 21.0698 21.9014C18.6908 22.4686 16.1603 21.1855 14.9185 20.453C12.9552 19.3103 10.1109 16.0309 11.4876 14.6679Z" fill="#EBEBEB"/>
<path d="M25.2551 22.2648C24.6727 22.0049 24.1694 21.5953 23.7966 21.0778C23.4237 20.5604 23.1945 19.9534 23.1322 19.3186C23.0812 18.6833 23.1573 18.0443 23.3558 17.4387C23.5544 16.8331 23.8715 16.2731 24.2887 15.7913C24.6659 15.3398 25.1725 14.924 25.759 14.9295C26.0342 14.9498 26.299 15.0432 26.526 15.2C26.753 15.3569 26.934 15.5715 27.0504 15.8216C27.2757 16.3258 27.3641 16.8805 27.3065 17.4297C27.1964 19.3103 26.7558 21.1111 25.2551 22.2648Z" fill="#EBEBEB"/>
<path d="M28.1078 26.9788C27.7308 26.6708 27.3874 26.3237 27.0835 25.9435C26.7359 25.541 26.4365 25.0993 26.1913 24.6273C25.8788 24.0599 25.6029 23.4731 25.3653 22.8706C24.9309 21.7613 24.7777 20.5619 24.9192 19.3791C24.9762 19.0239 25.0684 18.6752 25.1946 18.3383C25.2322 18.2114 25.2919 18.0921 25.3708 17.9858C25.4121 18.0024 25.1946 18.52 25.0954 19.4011C25.0097 20.5526 25.1819 21.7087 25.5993 22.7852C25.8314 23.3781 26.0971 23.9573 26.3951 24.5199C26.6242 24.9851 26.9011 25.4253 27.2212 25.8333C27.5417 26.1951 27.8379 26.5778 28.1078 26.9788Z" fill="#E0E0E0"/>
<path d="M13.8804 16.9753C14.1032 17.0777 14.3161 17.2003 14.5165 17.3416C14.9213 17.5894 15.4995 17.9583 16.2071 18.4182C17.628 19.3406 19.5747 20.6375 21.6894 22.1216C23.8041 23.6058 25.682 25.0018 27.0174 26.0426C27.6865 26.563 28.2234 26.9898 28.5869 27.2927C28.7854 27.4375 28.9698 27.6007 29.1376 27.7801C28.9232 27.6603 28.7196 27.5221 28.5291 27.3671L26.9128 26.1831C25.5525 25.178 23.6609 23.8068 21.5489 22.3282L16.1135 18.5641L14.4614 17.4214C14.2563 17.2883 14.062 17.1392 13.8804 16.9753Z" fill="#E0E0E0"/>
<path d="M24.3217 25.0182C23.0439 24.6006 21.6849 24.4937 20.3575 24.7063C19.0301 24.9189 17.7725 25.4449 16.689 26.2408C16.1383 26.651 15.5876 27.2733 15.7721 27.9342C15.9566 28.595 16.7248 28.8759 17.4049 28.953C18.8263 29.0846 20.2548 28.7927 21.5106 28.1141C22.7664 27.4354 23.7934 26.4004 24.4621 25.1394" fill="#EBEBEB"/>
<path d="M18.6192 26.7695C18.6192 26.7558 18.7238 26.6759 18.9386 26.5465C19.1534 26.4171 19.4645 26.2436 19.861 26.0426C20.9011 25.5078 22.0303 25.1681 23.1928 25.0403C23.8395 24.9879 24.4905 25.0409 25.1202 25.1973C25.9762 25.4212 26.7694 25.8385 27.4387 26.4171C27.6259 26.5796 27.714 26.6759 27.714 26.6924C27.714 26.709 27.2652 26.3703 26.4942 25.9573C25.4879 25.4214 24.3478 25.189 23.212 25.2882C22.0778 25.4167 20.9716 25.7263 19.9354 26.2051C19.5082 26.4191 19.0687 26.6076 18.6192 26.7695Z" fill="#E0E0E0"/>
<path d="M49.0895 119.631C52.7489 116.44 53.0931 111.214 52.4377 106.621C52.3304 105.856 52.3276 105.035 51.887 104.399C51.4465 103.763 50.5461 103.394 49.8908 103.79C49.3401 104.121 49.1721 104.815 48.9105 105.399C48.5634 106.181 48.0021 106.849 47.2914 107.326C46.8289 107.632 46.2396 107.852 45.7275 107.637C45.0226 107.342 44.8463 106.434 44.7692 105.668C44.6224 104.242 44.4774 102.815 44.3342 101.387C44.2977 100.616 44.1368 99.8564 43.8578 99.1371C43.5412 98.4377 42.9437 97.8181 42.192 97.6915C41.4403 97.5648 40.5867 98.0852 40.5151 98.8507C40.5199 99.1706 40.5466 99.4899 40.5949 99.8062C40.6171 99.9639 40.5921 100.125 40.523 100.268C40.4539 100.412 40.3438 100.532 40.2067 100.613C39.9093 100.737 39.5816 100.552 39.3283 100.354C38.4527 99.6657 37.8111 98.7268 37.2026 97.7906C36.5941 96.8544 35.9993 95.8934 35.1925 95.128C34.3858 94.3625 33.3202 93.8008 32.2188 93.8586C31.1174 93.9164 30.016 94.7177 29.859 95.8218C29.7021 96.926 30.4455 97.9586 31.2358 98.7571C32.3909 99.9439 33.7116 100.958 35.1568 101.767C35.4351 101.882 35.6689 102.083 35.8231 102.342C36.0434 102.835 35.6138 103.394 35.1292 103.614C34.5785 103.868 33.9535 103.873 33.3642 104.008C32.775 104.143 32.1554 104.476 31.9875 105.065C31.7589 105.891 32.5024 106.629 33.2045 107.097C34.6104 108.034 36.1668 108.722 37.8056 109.132C38.3894 109.278 39.0034 109.408 39.499 109.741C39.9947 110.074 40.3361 110.751 40.1241 111.302C39.9121 111.853 39.2237 112.128 38.6207 112.076C38.0176 112.023 37.4587 111.767 36.8722 111.616C35.7708 111.341 34.4271 111.55 33.8433 112.533C33.6719 112.868 33.5801 113.238 33.5754 113.615C33.5706 113.991 33.6529 114.363 33.8158 114.703C34.151 115.378 34.6193 115.978 35.1925 116.468C37.0747 118.291 39.4076 119.581 41.9524 120.207C44.4829 120.791 46.7683 120.777 49.0977 119.629" fill="#EBEBEB"/>
<path d="M47.5888 116.87C46.5521 114.44 45.3772 112.072 44.0699 109.777L43.0511 107.965C42.7179 107.373 42.3847 106.784 42.024 106.227C41.3279 105.162 40.5742 104.135 39.7661 103.152C39.0007 102.21 38.2407 101.343 37.5248 100.536C36.8089 99.7292 36.1205 98.994 35.4679 98.3497C34.4434 97.325 33.3384 96.384 32.1637 95.5356C31.7507 95.2355 31.4203 95.0125 31.1945 94.8638L30.9384 94.6986C30.911 94.6765 30.8804 94.6589 30.8475 94.6462L30.9301 94.7096L31.1807 94.8885C31.3982 95.0427 31.7314 95.274 32.1307 95.5797C33.2894 96.4431 34.381 97.393 35.3963 98.4213C36.0406 99.0684 36.7208 99.798 37.4339 100.624C38.1471 101.45 38.9043 102.301 39.6643 103.245C40.4661 104.227 41.2143 105.251 41.9056 106.313C42.2636 106.864 42.5912 107.45 42.9272 108.045C43.2631 108.64 43.6018 109.245 43.9432 109.857C45.2489 112.146 46.4246 114.506 47.4649 116.928" fill="#E0E0E0"/>
<path d="M41.9827 106.227C42.0062 106.117 42.0191 106.004 42.0213 105.891C42.0405 105.677 42.0543 105.363 42.0681 104.975C42.0928 104.201 42.0928 103.132 42.0873 101.946C42.0818 100.759 42.0873 99.6988 42.1341 98.9168C42.1534 98.5313 42.1699 98.2202 42.1865 98.0054C42.2002 97.8929 42.2002 97.7792 42.1865 97.6667C42.1557 97.7756 42.1354 97.8872 42.1259 97.9999C42.0928 98.2147 42.0598 98.5258 42.0295 98.9113C41.9662 99.6851 41.9359 100.756 41.9414 101.94C41.9469 103.124 41.9414 104.157 41.9607 104.969V105.883C41.9555 105.998 41.9629 106.114 41.9827 106.227Z" fill="#E0E0E0"/>
<path d="M31.9434 105.448C32.0754 105.46 32.208 105.46 32.3399 105.448C32.596 105.448 32.965 105.435 33.4193 105.448C34.3335 105.448 35.5918 105.492 36.9796 105.603C38.3673 105.713 39.6202 105.878 40.5206 106.007C40.9722 106.073 41.3466 106.137 41.589 106.178C41.7184 106.208 41.8501 106.226 41.9827 106.233C41.8595 106.183 41.7311 106.147 41.6 106.126C41.3494 106.065 40.9887 105.988 40.5371 105.908C39.6367 105.743 38.3811 105.572 36.9906 105.459C35.8001 105.361 34.6054 105.323 33.411 105.346C32.954 105.346 32.585 105.379 32.3289 105.402C32.1992 105.405 32.0702 105.421 31.9434 105.448Z" fill="#E0E0E0"/>
<path d="M47.4484 116.699C47.4727 116.66 47.4912 116.617 47.5035 116.572C47.5365 116.473 47.5806 116.349 47.6329 116.198C47.743 115.873 47.8917 115.399 48.0679 114.821C48.4231 113.643 48.8582 111.999 49.3153 110.179C49.7724 108.359 50.1964 106.712 50.5241 105.528C50.6838 104.953 50.8187 104.479 50.9151 104.127C50.9591 103.975 50.9922 103.851 51.0224 103.744C51.038 103.7 51.0463 103.655 51.0472 103.609C51.0248 103.649 51.0072 103.691 50.9949 103.736L50.8627 104.11C50.7526 104.435 50.6039 104.911 50.4277 105.501C50.0752 106.679 49.6374 108.323 49.1803 110.143C48.7233 111.963 48.302 113.607 47.9743 114.791C47.8119 115.366 47.6797 115.84 47.5806 116.192C47.5393 116.347 47.5035 116.468 47.4759 116.575C47.4616 116.615 47.4524 116.657 47.4484 116.699Z" fill="#E0E0E0"/>
<path d="M33.9177 113.896C33.9612 113.914 34.0064 113.926 34.0526 113.935L34.4463 114.02L35.8947 114.323C37.1172 114.579 38.8051 114.953 40.6665 115.366C42.5279 115.779 44.2213 116.14 45.4521 116.371C46.0661 116.487 46.5535 116.575 46.9087 116.63L47.308 116.688C47.3544 116.696 47.4019 116.696 47.4484 116.688C47.4045 116.672 47.3594 116.659 47.3135 116.65L46.9197 116.564L45.4686 116.261C44.2461 116.005 42.5609 115.631 40.6968 115.218C38.8327 114.805 37.142 114.444 35.914 114.213C35.2999 114.097 34.8126 114.009 34.4546 113.954L34.0581 113.896C34.0116 113.888 33.9641 113.888 33.9177 113.896Z" fill="#E0E0E0"/>
<path d="M113.034 56.9478L110.245 60.8716L109.207 60.4117L101.285 65.123L99.8751 60.9624C99.8751 60.9624 104.319 59.7784 105.311 58.4017C106.302 57.0249 105.459 56.5568 105.459 56.5568L107.756 54.6101L113.034 56.9478Z" fill="#EBEBEB"/>
<path d="M111.495 47.8613C111.495 47.8613 108.428 46.6939 104.597 41.7458C100.767 36.7978 99.5089 30.7924 98.9582 30.7318C98.4075 30.6712 96.1882 29.2201 90.1993 38.4196C84.2104 47.619 85.6588 50.1715 86.5647 50.2844C87.4706 50.3973 93.8505 49.5933 97.6145 50.5928C101.379 51.5923 106.004 54.31 106.004 54.31L111.495 47.8613Z" fill="#EBEBEB"/>
<path d="M117.44 54.2303L116.063 56.1275L115.441 56.9783C115.031 57.5393 114.422 57.922 113.738 58.0475C113.055 58.173 112.35 58.0318 111.767 57.6529L105.322 54.2826L110.608 45.8293L116.859 50.4497C117.435 50.8757 117.819 51.5122 117.928 52.2203C118.037 52.9285 117.861 53.651 117.44 54.2303Z" fill="#E0E0E0"/>
<path d="M90.538 38.6592C87.3384 43.6485 85.6312 48.2634 86.7299 48.9683C87.8285 49.6732 91.309 46.1955 94.5085 41.2062C97.7081 36.2168 99.4153 31.6019 98.3194 30.8998C97.2235 30.1977 93.7403 33.6698 90.538 38.6592Z" fill="#E0E0E0"/>
<path d="M117.583 57.2893L115.829 56.4385L117.286 54.4395L118.541 55.5023L117.583 57.2893Z" fill="#E0E0E0"/>
<path d="M115.945 54.7532C115.909 54.8083 115.041 54.3154 114.017 53.6518C112.993 52.9882 112.175 52.4045 112.211 52.3494C112.247 52.2943 113.111 52.7872 114.138 53.4508C115.165 54.1144 115.98 54.6954 115.945 54.7532Z" fill="#EBEBEB"/>
<path d="M116.699 53.5448C116.663 53.5998 115.873 53.1262 114.956 52.4874C114.039 51.8486 113.304 51.2896 113.351 51.2346C113.398 51.1795 114.177 51.6531 115.094 52.2919C116.011 52.9307 116.738 53.4787 116.699 53.5448Z" fill="#EBEBEB"/>
<path d="M115.019 56.0007C115.006 56.031 114.794 55.9484 114.469 55.7887C114.301 55.7089 114.105 55.6097 113.888 55.4968C113.67 55.384 113.455 55.2215 113.219 55.0756C112.28 54.4615 111.567 53.8888 111.611 53.8392C111.655 53.7897 112.42 54.266 113.351 54.8773C113.582 55.026 113.797 55.1857 114.003 55.3096C114.21 55.4335 114.394 55.5437 114.554 55.64C114.86 55.8355 115.044 55.9705 115.019 56.0007Z" fill="#EBEBEB"/>
<path d="M95.6347 38.1966C95.6347 38.1966 93.1318 36.0819 91.0749 39.5733C89.0181 43.0648 91.8294 44.1166 91.8294 44.1166C93.3702 42.3323 94.6513 40.3392 95.6347 38.1966Z" fill="#EBEBEB"/>
<path d="M99.2198 34.2041C99.1683 34.4417 99.0974 34.6747 99.0078 34.9007C98.8536 35.3413 98.6306 35.9829 98.3359 36.7676C98.1597 37.1504 97.9697 37.5689 97.7632 38.015L97.4438 38.7088L97.2731 39.0723C97.2153 39.1934 97.1409 39.3119 97.0748 39.433L96.2157 40.9474C96.1414 41.0796 96.0671 41.2228 95.99 41.3439C95.9129 41.4651 95.8192 41.6 95.7366 41.7322L95.1942 42.5032L94.6655 43.2907C94.5746 43.4173 94.4948 43.566 94.3902 43.6707L94.1148 44.0259C93.7348 44.4967 93.3659 44.9483 93.0134 45.3806C92.9225 45.488 92.8399 45.5954 92.7381 45.6972L92.4627 45.9863L91.9313 46.537L90.9786 47.5256C90.359 48.0763 89.8414 48.5251 89.4889 48.8307C89.312 48.9982 89.1204 49.1494 88.9162 49.2823C89.0716 49.0953 89.2419 48.9212 89.4256 48.7619L90.8657 47.4016C91.141 47.0933 91.4577 46.7573 91.7909 46.3994L92.3058 45.8487L92.5811 45.5568C92.672 45.4577 92.7518 45.3475 92.8399 45.2401C93.1814 44.8078 93.5421 44.3563 93.9166 43.8882L94.1919 43.533C94.2883 43.4146 94.3681 43.2824 94.4673 43.1557L94.9987 42.3765L95.5301 41.5973C95.6155 41.4678 95.7091 41.3467 95.7834 41.2145L96.0202 40.8125C96.3204 40.2921 96.6095 39.791 96.8876 39.3146C96.9537 39.1935 97.028 39.0806 97.0886 38.9594C97.1492 38.8383 97.2042 38.7198 97.2593 38.6014L97.5897 37.9158C97.8045 37.4753 98.0028 37.0659 98.1845 36.6878C98.4929 35.9223 98.7352 35.311 98.9252 34.8539C99.0048 34.6294 99.1034 34.412 99.2198 34.2041Z" fill="#E0E0E0"/>
<path d="M94.0542 89.8384C94.0542 89.8384 95.8743 90.5736 93.7789 94.4396C91.6834 98.3055 90.2379 100.208 90.2379 100.208C90.2379 100.208 89.8579 101.109 90.6206 101.271C91.3833 101.433 93.074 101.205 93.3934 102.152C93.7128 103.099 92.9914 104.03 91.5403 104.798C90.0892 105.566 86.9694 107.362 86.6886 107.524C86.4077 107.687 86.1379 108.1 86.6308 108.292C87.1236 108.485 90.9125 108.981 90.571 110.771C90.2296 112.56 85.8323 114.011 85.3586 114.182C84.885 114.353 84.7639 114.551 84.8079 114.81C84.852 115.069 86.1269 115.118 87.198 115.303C88.2691 115.487 89.4751 115.887 89.1915 116.897C88.9079 117.908 86.2728 119.978 79.9948 120.43L77.0734 120.449L75.5479 117.941C72.6099 112.373 72.9734 109.044 73.681 108.268C74.3887 107.491 75.3689 108.306 76.0904 109.116C76.8118 109.925 77.5332 110.994 77.77 110.883C78.0068 110.773 78.1142 110.567 78.0068 110.074C77.8994 109.581 76.8228 105.068 78.1527 103.837C79.4827 102.606 81.903 105.555 82.3298 105.878C82.7566 106.2 82.9631 105.74 82.9521 105.421C82.9411 105.101 82.8172 101.5 82.7015 99.8612C82.5859 98.2229 82.9603 97.1297 83.9681 96.8902C84.9759 96.6506 85.6423 98.2146 86.1709 98.7763C86.6996 99.338 87.2723 98.5395 87.2723 98.5395C87.2723 98.5395 88.1314 96.3147 90.3012 92.4818C92.471 88.6489 94.0928 89.855 94.0928 89.855" fill="#EBEBEB"/>
<path d="M76.8889 121.132C78.4721 118.315 81.2009 113.263 83.5661 108.937C85.9314 104.611 88.0736 100.698 89.6431 97.8733C90.4278 96.4663 91.0612 95.3236 91.5045 94.5306L92.0084 93.6219L92.1378 93.3851C92.153 93.3583 92.1668 93.3308 92.1791 93.3025L92.1295 93.3796C92.0965 93.4347 92.0524 93.5145 91.9918 93.6136L91.4714 94.5058C91.0226 95.2878 90.37 96.4332 89.588 97.8348C88.0048 100.652 85.8515 104.562 83.4863 108.885C81.121 113.208 78.3978 118.277 76.8338 121.102" fill="#E0E0E0"/>
<path d="M91.0391 102.562C90.9695 102.571 90.9012 102.588 90.8354 102.612C90.7032 102.651 90.5187 102.711 90.2847 102.788C89.8248 102.945 89.1833 103.177 88.5032 103.444L86.7409 104.143L86.204 104.347C86.1367 104.368 86.0721 104.397 86.0112 104.432C86.0805 104.422 86.1487 104.405 86.215 104.383C86.3472 104.344 86.5344 104.281 86.7657 104.204C87.2255 104.041 87.8506 103.804 88.5417 103.537L90.3122 102.857L90.8491 102.656C90.9158 102.632 90.9795 102.601 91.0391 102.562Z" fill="#E0E0E0"/>
<path d="M85.8157 104.231C85.8405 104.231 85.422 102.904 84.8795 101.282C84.3371 99.6602 83.8828 98.3606 83.858 98.3606C83.8332 98.3606 84.2545 99.6878 84.7942 101.31C85.3339 102.931 85.7909 104.239 85.8157 104.231Z" fill="#E0E0E0"/>
<path d="M82.484 111.027C82.4536 110.961 82.4157 110.899 82.3711 110.842C82.2802 110.713 82.1673 110.553 82.0352 110.36C81.7598 109.953 81.3688 109.388 80.9668 108.75C80.5648 108.111 80.2151 107.522 79.97 107.098L79.6754 106.591C79.6433 106.526 79.6045 106.466 79.5598 106.409C79.5805 106.478 79.6092 106.545 79.6451 106.607C79.7057 106.731 79.7966 106.91 79.9205 107.131C80.1545 107.568 80.4932 108.166 80.898 108.805C81.3027 109.444 81.6965 110.005 81.9994 110.405C82.1481 110.603 82.2747 110.762 82.3573 110.87C82.3947 110.926 82.4371 110.978 82.484 111.027Z" fill="#E0E0E0"/>
<path d="M87.5422 110.567C87.4754 110.56 87.408 110.56 87.3412 110.567L86.7905 110.594C86.3334 110.622 85.6891 110.669 85.0062 110.724C84.3233 110.779 83.679 110.834 83.2219 110.881L82.685 110.939C82.6176 110.939 82.5508 110.951 82.4868 110.972C82.5536 110.979 82.6209 110.979 82.6878 110.972L83.2385 110.944C83.6955 110.917 84.3261 110.87 85.0227 110.815C85.7194 110.76 86.3499 110.705 86.8042 110.658L87.3549 110.6C87.4184 110.596 87.4813 110.585 87.5422 110.567Z" fill="#E0E0E0"/>
<path d="M85.3641 116.949C85.2789 116.942 85.1933 116.942 85.1081 116.949L84.4142 116.985C83.8277 117.018 83.0182 117.068 82.126 117.131C81.2339 117.195 80.4244 117.258 79.8406 117.307L79.1467 117.371C79.0616 117.375 78.9769 117.386 78.8934 117.404C78.9784 117.414 79.0645 117.414 79.1495 117.404L79.8434 117.371C80.4299 117.338 81.2394 117.285 82.1315 117.222C83.0237 117.159 83.8332 117.098 84.4169 117.049L85.1108 116.985C85.1962 116.981 85.2809 116.969 85.3641 116.949Z" fill="#E0E0E0"/>
<path d="M79.0449 117.36C79.0067 117.277 78.9606 117.197 78.9072 117.123L78.5079 116.495C78.1692 115.967 77.7039 115.234 77.2138 114.411C76.7237 113.588 76.2996 112.83 75.9967 112.28L75.6443 111.619C75.6036 111.537 75.5566 111.459 75.5038 111.385C75.5324 111.472 75.5693 111.556 75.614 111.635C75.6883 111.795 75.804 112.024 75.9472 112.302C76.2363 112.852 76.6548 113.623 77.1449 114.447C77.6351 115.27 78.1087 116.002 78.4611 116.523C78.6373 116.798 78.7833 116.994 78.8879 117.134C78.9351 117.213 78.9875 117.288 79.0449 117.36Z" fill="#E0E0E0"/>
<path d="M91.2787 0.107422H27.7526V25.2276H91.2787V0.107422Z" fill="#DD6559"/>
<path d="M91.2787 25.2276C91.2787 25.2276 91.2787 25.0734 91.2787 24.7815C91.2787 24.4897 91.2787 24.0519 91.2787 23.4819C91.2787 22.3419 91.2787 20.6623 91.2787 18.4953C91.2787 14.164 91.2621 7.88879 91.2511 0.107387L91.3007 0.15695L27.7801 0.178978L27.8517 0.107387C27.8517 8.89382 27.8517 17.3829 27.8517 25.2276L27.7829 25.1588L73.3258 25.1891L86.5426 25.2083H90.0809H90.9951H91.309H91.0033H90.0974H86.5757L73.3726 25.2276L27.7829 25.2607H27.714V25.1918C27.714 17.3471 27.714 8.85802 27.714 0.0715917V0H27.7911L91.2787 0.0605774H91.3393V0.110141C91.3393 7.90531 91.3172 14.1888 91.3117 18.5283C91.3117 20.6898 91.3117 22.3667 91.3117 23.5039C91.3117 24.0711 91.3117 24.5007 91.3117 24.7953C91.3117 25.0899 91.2787 25.2276 91.2787 25.2276Z" fill="#263238"/>
<path d="M36.17 20.0153C35.7993 20.0132 35.4357 19.9137 35.1157 19.7266C34.7957 19.5395 34.5305 19.2715 34.3469 18.9495C34.1633 18.6274 34.0677 18.2628 34.0697 17.8921C34.0717 17.5214 34.1712 17.1578 34.3582 16.8377L40.4985 6.31108C40.6836 5.99046 40.9503 5.72452 41.2714 5.54027C41.5925 5.35602 41.9566 5.26001 42.3268 5.26199C42.6973 5.26285 43.061 5.36192 43.3807 5.54912C43.7004 5.73631 43.9648 6.00493 44.1469 6.3276L50.2046 16.9066C50.3887 17.2288 50.4848 17.5938 50.4832 17.965C50.4815 18.3361 50.3823 18.7003 50.1953 19.0209C50.0084 19.3415 49.7403 19.6073 49.4181 19.7915C49.0959 19.9757 48.7309 20.0719 48.3598 20.0703L36.1755 20.0153H36.17ZM42.3268 5.8953C42.0666 5.89281 41.8103 5.95958 41.5843 6.08877C41.3584 6.21796 41.1708 6.40492 41.041 6.63049L34.8924 17.1544C34.7618 17.3789 34.6924 17.6338 34.6911 17.8936C34.6899 18.1534 34.7569 18.409 34.8854 18.6348C35.0139 18.8605 35.1994 19.0486 35.4234 19.1802C35.6474 19.3118 35.902 19.3824 36.1617 19.3847L48.346 19.4398C48.6066 19.4415 48.863 19.3744 49.0894 19.2454C49.3158 19.1163 49.5041 18.9298 49.6354 18.7047C49.7666 18.4796 49.8362 18.2238 49.837 17.9632C49.8379 17.7026 49.77 17.4464 49.6402 17.2205L43.5824 6.6415C43.4565 6.41833 43.2743 6.23202 43.0541 6.10111C42.8338 5.9702 42.5831 5.89924 42.3268 5.8953Z" fill="white"/>
<path d="M41.4127 16.6341C41.4129 16.5279 41.4347 16.4229 41.477 16.3255C41.5192 16.2281 41.5809 16.1404 41.6582 16.0677C41.7356 15.9949 41.827 15.9388 41.9268 15.9027C42.0266 15.8666 42.1328 15.8512 42.2387 15.8576C42.4461 15.8576 42.645 15.94 42.7917 16.0866C42.9384 16.2333 43.0207 16.4322 43.0207 16.6396C43.0207 16.847 42.9384 17.0459 42.7917 17.1925C42.645 17.3392 42.4461 17.4216 42.2387 17.4216C42.1321 17.4268 42.0256 17.4103 41.9255 17.3731C41.8255 17.3359 41.7341 17.2787 41.6568 17.205C41.5795 17.1314 41.5181 17.0428 41.4761 16.9446C41.4341 16.8465 41.4126 16.7408 41.4127 16.6341ZM41.4843 10.301H42.9794L42.7234 15.0233H41.7238L41.4843 10.301Z" fill="white"/>
<path d="M55.4125 13.9008H53.8072L53.507 14.6387H52.4056L54.0825 10.8389H55.1426L56.825 14.6387H55.7071L55.4125 13.9008ZM55.0986 13.1078L54.6112 11.8907L54.1211 13.1078H55.0986Z" fill="white"/>
<path d="M57.7529 11.6978H56.5882V10.8442H59.9915V11.6978H58.8295V14.6441H57.7529V11.6978Z" fill="white"/>
<path d="M61.2554 11.6978H60.0879V10.8442H63.4913V11.6978H62.3293V14.6441H61.2554V11.6978Z" fill="white"/>
<path d="M66.9442 13.8125V14.6386H63.8933V10.8442H66.8753V11.6703H64.9479V12.3119H66.6358V13.1159H64.9479V13.8098L66.9442 13.8125Z" fill="white"/>
<path d="M71.157 10.8442V14.6441H70.2731L68.5963 12.6175V14.6441H67.5444V10.8442H68.4283L70.1052 12.8681V10.8442H71.157Z" fill="white"/>
<path d="M72.7293 11.6978H71.5618V10.8442H74.9651V11.6978H73.8031V14.6441H72.7293V11.6978Z" fill="white"/>
<path d="M75.3671 10.8442H76.441V14.6441H75.3671V10.8442Z" fill="white"/>
<path d="M77.011 12.7441C77.011 11.6042 77.9086 10.7671 79.1229 10.7671C80.3372 10.7671 81.2348 11.5931 81.2348 12.7441C81.2348 13.8951 80.3399 14.7266 79.1229 14.7266C77.9058 14.7266 77.011 13.8841 77.011 12.7441ZM80.1499 12.7441C80.1387 12.5438 80.069 12.3512 79.9495 12.1901C79.83 12.029 79.6659 11.9064 79.4775 11.8374C79.2891 11.7685 79.0847 11.7562 78.8894 11.8021C78.6941 11.8481 78.5166 11.9502 78.3787 12.0958C78.2408 12.2415 78.1485 12.4244 78.1134 12.6219C78.0782 12.8194 78.1016 13.0228 78.1808 13.2072C78.2599 13.3915 78.3913 13.5486 78.5588 13.6591C78.7262 13.7696 78.9223 13.8287 79.1229 13.829C79.2631 13.8304 79.4021 13.8029 79.5312 13.7481C79.6603 13.6933 79.7767 13.6125 79.8731 13.5107C79.9696 13.4088 80.0439 13.2882 80.0915 13.1563C80.1392 13.0244 80.1591 12.884 80.1499 12.7441Z" fill="white"/>
<path d="M85.4146 10.8442V14.6441H84.528L82.8511 12.6175V14.6441H81.7965V10.8442H82.6832L84.3601 12.8681V10.8442H85.4146Z" fill="white"/>
<path d="M31.4285 2.51131C31.4285 2.72915 31.3639 2.94209 31.2429 3.12322C31.1219 3.30434 30.9499 3.44551 30.7486 3.52888C30.5473 3.61224 30.3259 3.63405 30.1122 3.59155C29.8986 3.54905 29.7023 3.44416 29.5483 3.29012C29.3943 3.13609 29.2894 2.93984 29.2469 2.72619C29.2044 2.51254 29.2262 2.29108 29.3095 2.08983C29.3929 1.88857 29.5341 1.71656 29.7152 1.59553C29.8963 1.47451 30.1093 1.40991 30.3271 1.40991C30.6192 1.40991 30.8994 1.52595 31.1059 1.7325C31.3125 1.93906 31.4285 2.2192 31.4285 2.51131Z" fill="#E0E0E0"/>
<path d="M31.4285 2.51115C31.4285 2.51115 31.4285 2.41478 31.3651 2.25232C31.2971 2.02418 31.1571 1.8242 30.9659 1.68235C30.8259 1.58049 30.6629 1.51487 30.4913 1.49133C30.3198 1.46779 30.1451 1.48706 29.9829 1.54743C29.7869 1.62122 29.6181 1.753 29.499 1.92518C29.3799 2.09736 29.316 2.30177 29.316 2.51115C29.316 2.72054 29.3799 2.92494 29.499 3.09713C29.6181 3.26931 29.7869 3.40108 29.9829 3.47488C30.1454 3.53486 30.3202 3.55368 30.4917 3.52965C30.6632 3.50563 30.8261 3.43951 30.9659 3.3372C31.1566 3.19607 31.2966 2.99712 31.3651 2.76998C31.4147 2.60477 31.4147 2.49463 31.4285 2.49463C31.45 2.58515 31.45 2.67946 31.4285 2.76998C31.3792 3.02605 31.2406 3.25632 31.0375 3.41981C30.885 3.54224 30.7035 3.62328 30.5106 3.65512C30.3177 3.68695 30.1198 3.6685 29.9361 3.60154C29.7149 3.51978 29.5242 3.37223 29.3894 3.17876C29.2547 2.98529 29.1824 2.75518 29.1824 2.51941C29.1824 2.28365 29.2547 2.05354 29.3894 1.86006C29.5242 1.66659 29.7149 1.51905 29.9361 1.43729C30.1196 1.36995 30.3173 1.35105 30.5102 1.3824C30.7032 1.41375 30.8847 1.4943 31.0375 1.61626C31.24 1.7749 31.3795 2.00033 31.4312 2.25232C31.4499 2.3377 31.4489 2.42619 31.4285 2.51115Z" fill="#263238"/>
<path d="M30.9246 1.97154C30.6792 2.0894 30.4466 2.23243 30.2307 2.39834C30.0458 2.59819 29.8825 2.81691 29.7433 3.05092C29.7481 2.90357 29.7857 2.75914 29.8533 2.62815C29.921 2.49715 30.017 2.3829 30.1343 2.2937C30.2344 2.18531 30.357 2.10025 30.4936 2.04458C30.6302 1.9889 30.7773 1.96397 30.9246 1.97154Z" fill="#263238"/>
<path d="M30.6905 2.99575C30.6492 3.00952 30.5308 2.7204 30.2527 2.44505C29.9746 2.1697 29.6772 2.08159 29.6883 2.04028C29.9366 2.06371 30.17 2.16932 30.3516 2.34039C30.5331 2.51146 30.6524 2.73822 30.6905 2.98474V2.99575Z" fill="#263238"/>
<path d="M32.1389 22.6612C32.1389 22.8791 32.0743 23.092 31.9533 23.2731C31.8322 23.4542 31.6602 23.5954 31.459 23.6788C31.2577 23.7621 31.0362 23.784 30.8226 23.7415C30.6089 23.699 30.4127 23.5941 30.2587 23.44C30.1046 23.286 29.9997 23.0897 29.9572 22.8761C29.9147 22.6624 29.9365 22.441 30.0199 22.2397C30.1033 22.0385 30.2444 21.8665 30.4256 21.7454C30.6067 21.6244 30.8196 21.5598 31.0375 21.5598C31.3296 21.5598 31.6097 21.6759 31.8163 21.8824C32.0228 22.089 32.1389 22.3691 32.1389 22.6612Z" fill="#E0E0E0"/>
<path d="M32.1389 22.6613C32.1251 22.6613 32.1251 22.5622 32.0756 22.386C32.007 22.1588 31.867 21.9599 31.6763 21.8187C31.5229 21.7037 31.3405 21.6336 31.1495 21.6164C30.9585 21.5992 30.7665 21.6355 30.595 21.7212C30.4235 21.807 30.2792 21.9388 30.1784 22.1019C30.0776 22.2651 30.0242 22.453 30.0242 22.6448C30.0242 22.8365 30.0776 23.0245 30.1784 23.1876C30.2792 23.3508 30.4235 23.4826 30.595 23.5683C30.7665 23.6541 30.9585 23.6904 31.1495 23.6732C31.3405 23.656 31.5229 23.5859 31.6763 23.4708C31.8675 23.329 32.0076 23.129 32.0756 22.9009C32.1251 22.7384 32.1251 22.6255 32.1389 22.642C32.1612 22.7325 32.1612 22.827 32.1389 22.9174C32.0859 23.1688 31.9466 23.3939 31.7451 23.5534C31.5935 23.6723 31.4144 23.7511 31.2243 23.7824C31.0342 23.8136 30.8392 23.7965 30.6575 23.7324C30.4317 23.6534 30.236 23.5062 30.0976 23.3111C29.9591 23.116 29.8847 22.8826 29.8847 22.6434C29.8847 22.4042 29.9591 22.1708 30.0976 21.9757C30.236 21.7806 30.4317 21.6334 30.6575 21.5544C30.8392 21.4903 31.0342 21.4732 31.2243 21.5045C31.4144 21.5357 31.5935 21.6145 31.7451 21.7334C31.9466 21.893 32.0859 22.118 32.1389 22.3694C32.1631 22.4652 32.1631 22.5655 32.1389 22.6613Z" fill="#263238"/>
<path d="M31.6322 22.1216C31.3861 22.2382 31.1534 22.3813 30.9384 22.5484C30.7532 22.747 30.5898 22.9648 30.451 23.1982C30.4865 22.9071 30.6252 22.6383 30.8419 22.4408C31.0587 22.2432 31.3391 22.13 31.6322 22.1216Z" fill="#263238"/>
<path d="M31.3982 23.1459C31.3569 23.1459 31.2385 22.8706 30.9604 22.5952C30.6823 22.3199 30.3849 22.229 30.3959 22.1905C30.5217 22.1896 30.6461 22.2159 30.7606 22.2677C30.8752 22.3196 30.9772 22.3956 31.0595 22.4906C31.1598 22.569 31.242 22.6681 31.3005 22.7812C31.359 22.8943 31.3923 23.0187 31.3982 23.1459Z" fill="#263238"/>
<path d="M89.3787 2.53866C89.3787 2.75649 89.3141 2.96944 89.1931 3.15056C89.0721 3.33169 88.9001 3.47286 88.6988 3.55622C88.4976 3.63958 88.2761 3.66139 88.0625 3.6189C87.8488 3.5764 87.6526 3.4715 87.4985 3.31747C87.3445 3.16343 87.2396 2.96718 87.1971 2.75353C87.1546 2.53988 87.1764 2.31842 87.2598 2.11717C87.3431 1.91591 87.4843 1.7439 87.6654 1.62288C87.8466 1.50185 88.0595 1.43726 88.2773 1.43726C88.5694 1.43726 88.8496 1.5533 89.0561 1.75985C89.2627 1.9664 89.3787 2.24655 89.3787 2.53866Z" fill="#E0E0E0"/>
<path d="M89.3787 2.53875C89.3787 2.53875 89.365 2.43962 89.3182 2.2634C89.25 2.03534 89.1088 1.83603 88.9162 1.69617C88.763 1.58216 88.5812 1.51297 88.3909 1.49633C88.2007 1.4797 88.0096 1.51627 87.839 1.60196C87.6684 1.68765 87.525 1.8191 87.4247 1.98161C87.3245 2.14411 87.2714 2.33129 87.2714 2.52223C87.2714 2.71316 87.3245 2.90034 87.4247 3.06285C87.525 3.22536 87.6684 3.3568 87.839 3.44249C88.0096 3.52819 88.2007 3.56476 88.3909 3.54812C88.5812 3.53148 88.763 3.46229 88.9162 3.34828C89.1084 3.20685 89.2494 3.00683 89.3182 2.7783C89.365 2.61585 89.3677 2.51947 89.3787 2.51947C89.4039 2.60954 89.4039 2.70476 89.3787 2.79482C89.3271 3.04682 89.1875 3.27225 88.985 3.43088C88.8337 3.55048 88.6546 3.62965 88.4643 3.66096C88.274 3.69226 88.079 3.67468 87.8974 3.60986C87.6715 3.53087 87.4759 3.38362 87.3374 3.18852C87.199 2.99341 87.1246 2.76009 87.1246 2.52085C87.1246 2.28161 87.199 2.04829 87.3374 1.85318C87.4759 1.65807 87.6715 1.51083 87.8974 1.43184C88.0791 1.36779 88.274 1.35062 88.4641 1.3819C88.6542 1.41318 88.8334 1.49192 88.985 1.61082C89.1877 1.77544 89.3253 2.00673 89.3732 2.2634C89.3995 2.35306 89.4014 2.4481 89.3787 2.53875Z" fill="#263238"/>
<path d="M88.8776 1.98804C88.6311 2.10395 88.3984 2.24711 88.1837 2.41483C87.9982 2.61317 87.8348 2.83105 87.6964 3.06466C87.7318 2.77354 87.8705 2.50479 88.0873 2.30724C88.304 2.10969 88.5845 1.99643 88.8776 1.98804Z" fill="#263238"/>
<path d="M88.6408 3.00966C88.6022 3.00966 88.4838 2.73431 88.2057 2.45896C87.9276 2.18361 87.6303 2.0955 87.6413 2.0542C87.8903 2.07489 88.1249 2.17964 88.3065 2.35127C88.4882 2.5229 88.606 2.75119 88.6408 2.99865V3.00966Z" fill="#263238"/>
<path d="M89.3787 22.6612C89.3787 22.8791 89.3141 23.092 89.1931 23.2731C89.0721 23.4542 88.9001 23.5954 88.6988 23.6788C88.4976 23.7621 88.2761 23.784 88.0625 23.7415C87.8488 23.699 87.6526 23.5941 87.4985 23.44C87.3445 23.286 87.2396 23.0897 87.1971 22.8761C87.1546 22.6624 87.1764 22.441 87.2598 22.2397C87.3431 22.0385 87.4843 21.8665 87.6654 21.7454C87.8466 21.6244 88.0595 21.5598 88.2773 21.5598C88.5694 21.5598 88.8496 21.6759 89.0561 21.8824C89.2627 22.089 89.3787 22.3691 89.3787 22.6612Z" fill="#E0E0E0"/>
<path d="M89.3787 22.6613C89.3787 22.6613 89.365 22.5622 89.3182 22.386C89.25 22.1579 89.1088 21.9586 88.9162 21.8187C88.763 21.7047 88.5812 21.6355 88.3909 21.6189C88.2007 21.6023 88.0096 21.6388 87.839 21.7245C87.6684 21.8102 87.525 21.9417 87.4247 22.1042C87.3245 22.2667 87.2714 22.4538 87.2714 22.6448C87.2714 22.8357 87.3245 23.0229 87.4247 23.1854C87.525 23.3479 87.6684 23.4794 87.839 23.5651C88.0096 23.6507 88.2007 23.6873 88.3909 23.6707C88.5812 23.654 88.763 23.5848 88.9162 23.4708C89.1084 23.3294 89.2494 23.1294 89.3182 22.9009C89.365 22.7384 89.3677 22.6255 89.3787 22.642C89.404 22.7321 89.404 22.8273 89.3787 22.9174C89.3257 23.1688 89.1864 23.3939 88.985 23.5534C88.8334 23.6723 88.6542 23.7511 88.4641 23.7824C88.274 23.8136 88.0791 23.7965 87.8974 23.7324C87.6715 23.6534 87.4759 23.5062 87.3374 23.3111C87.199 23.116 87.1246 22.8826 87.1246 22.6434C87.1246 22.4042 87.199 22.1708 87.3374 21.9757C87.4759 21.7806 87.6715 21.6334 87.8974 21.5544C88.0791 21.4903 88.274 21.4732 88.4641 21.5045C88.6542 21.5357 88.8334 21.6145 88.985 21.7334C89.1864 21.893 89.3257 22.118 89.3787 22.3694C89.4063 22.4648 89.4063 22.566 89.3787 22.6613Z" fill="#263238"/>
<path d="M88.8776 22.1216C88.6311 22.2375 88.3984 22.3807 88.1837 22.5484C87.9975 22.7461 87.8341 22.9641 87.6964 23.1982C87.7318 22.9071 87.8705 22.6383 88.0873 22.4408C88.304 22.2432 88.5845 22.13 88.8776 22.1216Z" fill="#263238"/>
<path d="M88.6408 23.1459C88.6022 23.1459 88.4838 22.8705 88.2057 22.5952C87.9276 22.3198 87.6303 22.229 87.6413 22.1904C87.8903 22.2111 88.1249 22.3159 88.3065 22.4875C88.4882 22.6591 88.606 22.8874 88.6408 23.1349V23.1459Z" fill="#263238"/>
<path d="M10.5266 110.294L12.1099 120.694H21.3039L23.4378 110.446L10.5266 110.294Z" fill="#DD6559"/>
<path d="M22.1519 116.961C22.1519 116.991 19.7949 117.013 16.89 117.013C13.9851 117.013 11.6281 116.991 11.6281 116.961C11.6281 116.93 13.9851 116.906 16.89 116.906C19.7949 116.906 22.1519 116.93 22.1519 116.961Z" fill="#FAFAFA"/>
<path d="M22.1877 116.449C22.1877 116.479 19.817 116.504 16.89 116.504C13.963 116.504 11.5923 116.479 11.5923 116.449C11.5923 116.418 13.9658 116.396 16.89 116.396C19.8142 116.396 22.1877 116.418 22.1877 116.449Z" fill="#FAFAFA"/>
<path d="M22.1685 115.87C22.1685 115.9 19.7977 115.925 16.8735 115.925C13.9493 115.925 11.5757 115.9 11.5757 115.87C11.5757 115.84 13.9465 115.818 16.8735 115.818C19.8005 115.818 22.1685 115.843 22.1685 115.87Z" fill="#FAFAFA"/>
<path d="M13.1645 120.113C13.0392 119.684 12.9471 119.246 12.8891 118.803C12.7959 118.366 12.737 117.922 12.7129 117.476C12.8404 117.903 12.9325 118.341 12.9883 118.784C13.0839 119.221 13.1429 119.666 13.1645 120.113Z" fill="#FAFAFA"/>
<path d="M13.7923 119.992C13.7272 119.569 13.6886 119.143 13.6767 118.715C13.6301 118.289 13.6099 117.86 13.6161 117.432C13.7175 117.849 13.7738 118.277 13.7841 118.707C13.8304 119.134 13.8332 119.565 13.7923 119.992Z" fill="#FAFAFA"/>
<path d="M14.9323 119.99C14.8062 119.563 14.7259 119.125 14.6927 118.682C14.623 118.242 14.599 117.796 14.6211 117.352C14.7052 117.787 14.765 118.226 14.8001 118.668C14.8683 119.106 14.9124 119.547 14.9323 119.99Z" fill="#FAFAFA"/>
<path d="M15.7307 120.045C15.6432 119.607 15.6008 119.161 15.6041 118.715C15.5707 118.269 15.5846 117.822 15.6454 117.379C15.6926 117.822 15.7147 118.267 15.7115 118.712C15.7447 119.155 15.7511 119.6 15.7307 120.045Z" fill="#FAFAFA"/>
<path d="M17.1488 119.992C17.0488 119.153 17.0203 118.306 17.0634 117.462C17.1299 117.884 17.1621 118.31 17.1598 118.737C17.1906 119.155 17.1869 119.575 17.1488 119.992Z" fill="#FAFAFA"/>
<path d="M18.1814 120.047C18.1342 119.613 18.1204 119.176 18.1401 118.739C18.1251 118.303 18.1463 117.867 18.2034 117.434C18.2543 117.867 18.269 118.304 18.2475 118.739C18.2622 119.177 18.2401 119.614 18.1814 120.047Z" fill="#FAFAFA"/>
<path d="M19.1534 119.907C19.1715 118.994 19.2636 118.084 19.4287 117.187C19.4376 117.647 19.4109 118.107 19.3489 118.563C19.3196 119.016 19.2543 119.465 19.1534 119.907Z" fill="#FAFAFA"/>
<path d="M20.4034 119.772C20.4062 119.38 20.458 118.99 20.5576 118.61C20.6255 118.224 20.7401 117.848 20.8991 117.49C20.8433 117.875 20.7651 118.256 20.665 118.632C20.5992 119.017 20.5119 119.397 20.4034 119.772Z" fill="#FAFAFA"/>
<path d="M9.47205 108.235V110.182C9.47169 110.282 9.49124 110.382 9.52958 110.475C9.56792 110.568 9.62429 110.653 9.69544 110.724C9.76659 110.795 9.85112 110.851 9.94416 110.89C10.0372 110.928 10.1369 110.947 10.2375 110.947H23.5535C23.7565 110.947 23.9512 110.866 24.0947 110.723C24.2383 110.579 24.3189 110.385 24.3189 110.182V108.235H9.47205Z" fill="#DD6559"/>
<g opacity="0.4">
<path d="M10.6258 110.947L10.7359 111.567L23.022 112.442L23.3332 110.947H10.6258Z" fill="black"/>
</g>
<path d="M14.3017 108.229C12.344 107.095 11.2976 104.457 11.2205 102.298C11.1434 100.139 12.0466 97.8926 13.8116 96.6453C15.6785 95.3429 18.3356 95.3649 20.252 96.593C21.1991 97.2308 21.9674 98.1002 22.484 99.1185C23.0006 100.137 23.2484 101.27 23.2038 102.411C23.1393 103.551 22.8225 104.662 22.2763 105.664C21.7301 106.667 20.9682 107.535 20.0455 108.207" fill="#455A64"/>
<path d="M17.4242 108.439C17.3957 108.275 17.3837 108.109 17.3884 107.943C17.3884 107.591 17.3636 107.139 17.3498 106.597C17.3196 105.459 17.2755 103.89 17.1984 102.155C17.1213 100.42 17.0304 98.851 16.9588 97.7193C16.9258 97.1686 16.8983 96.7253 16.879 96.3728C16.8646 96.2079 16.8646 96.0421 16.879 95.8772C16.9225 96.0374 16.9492 96.2016 16.9588 96.3673C16.9974 96.684 17.0442 97.1411 17.0965 97.7083C17.2011 98.8427 17.314 100.412 17.3911 102.15C17.4682 103.887 17.4903 105.454 17.4875 106.597C17.4875 107.164 17.4875 107.626 17.4682 107.943C17.4685 108.109 17.4538 108.275 17.4242 108.439Z" fill="white"/>
<path d="M11.7988 101.808C11.7988 101.858 11.4821 101.874 11.1021 101.844C10.7222 101.814 10.4165 101.745 10.4193 101.695C10.422 101.646 10.7359 101.629 11.1159 101.659C11.4959 101.69 11.8043 101.759 11.7988 101.808Z" fill="#263238"/>
<path d="M11.9061 99.8697C11.8841 99.9165 11.6308 99.8422 11.3059 99.7045C10.981 99.5668 10.7552 99.4154 10.7772 99.3714C10.7992 99.3273 11.0526 99.3989 11.3802 99.5366C11.7079 99.6742 11.9254 99.8257 11.9061 99.8697Z" fill="#263238"/>
<path d="M12.9029 98.4324C12.8754 98.4737 12.5752 98.3305 12.2586 98.0717C11.9419 97.8128 11.7464 97.5402 11.785 97.5072C11.8235 97.4741 12.0603 97.6779 12.377 97.9285C12.6936 98.179 12.9304 98.3883 12.9029 98.4324Z" fill="#263238"/>
<path d="M13.9052 97.0749C13.8584 97.0969 13.7152 96.8684 13.583 96.5682C13.4509 96.2681 13.3793 96.0175 13.4261 95.99C13.4729 95.9625 13.6161 96.1965 13.7482 96.4939C13.8804 96.7913 13.9658 97.0556 13.9052 97.0749Z" fill="#263238"/>
<path d="M15.4774 96.1138C15.4334 96.1331 15.2764 95.8935 15.1745 95.5631C15.0727 95.2327 15.0617 94.9408 15.1112 94.9326C15.1608 94.9243 15.2489 95.1886 15.348 95.5081C15.4471 95.8275 15.5242 96.0918 15.4774 96.1138Z" fill="#263238"/>
<path d="M18.096 95.0264C18.1428 95.043 18.1125 95.2495 18.0299 95.4863C17.9473 95.7231 17.8399 95.9021 17.7931 95.8855C17.7463 95.869 17.7739 95.6625 17.8565 95.4257C17.9391 95.1889 18.0547 95.0099 18.096 95.0264Z" fill="#263238"/>
<path d="M20.051 95.8633C20.0841 95.8991 19.9602 96.0725 19.7757 96.246C19.5912 96.4195 19.4067 96.5214 19.3709 96.4938C19.3351 96.4663 19.4618 96.2846 19.6463 96.1111C19.8307 95.9376 20.0235 95.8247 20.051 95.8633Z" fill="#263238"/>
<path d="M21.7637 96.9842C21.794 97.0255 21.6398 97.1769 21.425 97.3256C21.2102 97.4743 21.0092 97.5569 20.9817 97.5129C20.9542 97.4688 21.1056 97.3201 21.3231 97.1742C21.5406 97.0282 21.7361 96.9291 21.7637 96.9842Z" fill="#263238"/>
<path d="M22.9808 98.6196C23.0028 98.6664 22.7605 98.8123 22.4466 98.9472C22.1327 99.0822 21.8573 99.1537 21.8381 99.1069C21.8188 99.0601 22.0583 98.9142 22.3888 98.7793C22.7192 98.6443 22.9615 98.5728 22.9808 98.6196Z" fill="#263238"/>
<path d="M23.4598 100.42C23.4598 100.47 23.223 100.542 22.9091 100.58C22.5952 100.619 22.3584 100.608 22.3419 100.558C22.3254 100.509 22.5815 100.437 22.8926 100.398C23.2038 100.36 23.4543 100.371 23.4598 100.42Z" fill="#263238"/>
<path d="M23.7104 102.637C23.6912 102.681 23.4351 102.615 23.1295 102.483C22.8238 102.351 22.6008 102.207 22.6201 102.163C22.6393 102.119 22.8954 102.185 23.2038 102.315C23.5122 102.444 23.7297 102.59 23.7104 102.637Z" fill="#263238"/>
<path d="M23.4901 104.537C23.4736 104.584 23.1459 104.504 22.8018 104.278C22.4576 104.052 22.2511 103.785 22.2896 103.752C22.3282 103.719 22.565 103.915 22.9036 104.127C23.2423 104.339 23.5094 104.487 23.4901 104.537Z" fill="#263238"/>
<path d="M22.5016 106.269C22.4713 106.307 22.2098 106.153 21.9509 105.883C21.6921 105.614 21.5654 105.333 21.6067 105.311C21.648 105.289 21.8435 105.498 22.0859 105.757C22.3282 106.016 22.5319 106.228 22.5016 106.269Z" fill="#263238"/>
<path d="M13.1012 106.473C13.1232 106.517 12.8478 106.707 12.4871 106.894C12.1264 107.081 11.8125 107.199 11.7877 107.155C11.763 107.111 12.0383 106.921 12.4018 106.731C12.7652 106.541 13.0764 106.426 13.1012 106.473Z" fill="#263238"/>
<path d="M12.2421 104.906C12.2641 104.953 12.0438 105.096 11.7492 105.231C11.4546 105.366 11.1985 105.432 11.182 105.388C11.1655 105.344 11.3802 105.195 11.6749 105.063C11.9695 104.931 12.2201 104.859 12.2421 104.906Z" fill="#263238"/>
<path d="M11.6115 103.518C11.6115 103.57 11.3362 103.65 11.0058 103.697C10.6753 103.744 10.3807 103.744 10.3725 103.697C10.3642 103.65 10.6478 103.568 10.9782 103.518C11.3087 103.469 11.6033 103.469 11.6115 103.518Z" fill="#263238"/>
<path d="M13.6904 102.766C13.6904 102.813 13.4399 102.937 13.0874 102.976C12.735 103.014 12.4486 102.954 12.4513 102.907C12.4541 102.86 12.7267 102.832 13.0654 102.794C13.4041 102.755 13.6656 102.706 13.6904 102.766Z" fill="#263238"/>
<path d="M15.4003 101.043C15.4169 101.089 15.2048 101.197 14.9212 101.224C14.6376 101.252 14.4091 101.189 14.4146 101.142C14.4201 101.095 14.6404 101.07 14.902 101.043C15.1635 101.015 15.3866 100.993 15.4003 101.043Z" fill="#263238"/>
<path d="M15.7307 99.6713C15.7142 99.7209 15.4857 99.6851 15.2213 99.5942C14.957 99.5034 14.7532 99.3877 14.7698 99.3409C14.7863 99.2941 15.0148 99.3409 15.2792 99.4208C15.5435 99.5006 15.7473 99.6245 15.7307 99.6713Z" fill="#263238"/>
<path d="M16.3613 98.2865C16.3255 98.3223 16.1686 98.2177 16.0557 98.0112C15.9428 97.8047 15.9345 97.6284 15.9813 97.6147C16.0281 97.6009 16.1163 97.7468 16.2154 97.9176C16.3145 98.0883 16.3971 98.2507 16.3613 98.2865Z" fill="#263238"/>
<path d="M15.6013 103.961C15.6013 104.011 15.4141 104.102 15.158 104.165C15.0374 104.197 14.9137 104.215 14.7891 104.22L14.7533 104.113C14.8193 104.099 14.8607 104.113 14.8689 104.113C14.8772 104.113 14.8524 104.168 14.7973 104.206L14.7615 104.102C14.8747 104.047 14.9939 104.005 15.1167 103.978C15.3701 103.923 15.5876 103.912 15.6013 103.961Z" fill="#263238"/>
<path d="M15.9538 106.393C15.9731 106.44 15.7225 106.583 15.4031 106.712C15.0837 106.842 14.7918 106.908 14.7725 106.861C14.7533 106.814 15.0066 106.671 15.3232 106.541C15.6399 106.412 15.9373 106.346 15.9538 106.393Z" fill="#263238"/>
<path d="M14.0126 105.313C14.0291 105.36 13.8611 105.462 13.6354 105.536C13.4096 105.611 13.2196 105.635 13.2031 105.589C13.1865 105.542 13.3545 105.44 13.5775 105.363C13.8006 105.286 13.9961 105.264 14.0126 105.313Z" fill="#263238"/>
<path d="M14.1613 100.365C14.1613 100.415 13.8556 100.385 13.5197 100.266C13.1838 100.148 12.9359 99.9908 12.969 99.9385C13.002 99.8862 13.2636 99.977 13.594 100.093C13.9245 100.208 14.1723 100.316 14.1613 100.365Z" fill="#263238"/>
<path d="M18.8615 99.8282C18.8891 99.8695 18.7238 100.026 18.4953 100.181C18.2668 100.335 18.052 100.423 18.0245 100.379C17.9969 100.335 18.1621 100.181 18.3934 100.026C18.6247 99.8723 18.834 99.7842 18.8615 99.8282Z" fill="#263238"/>
<path d="M19.1176 102.268C19.1176 102.318 18.9551 102.395 18.7321 102.442C18.509 102.488 18.3163 102.486 18.308 102.442C18.2998 102.398 18.4705 102.315 18.6935 102.268C18.9166 102.221 19.1065 102.216 19.1176 102.268Z" fill="#263238"/>
<path d="M19.415 105.013C19.3929 105.06 19.1396 104.989 18.8643 104.856C18.5889 104.724 18.3631 104.581 18.3852 104.534C18.4072 104.487 18.6605 104.556 18.9359 104.691C19.2112 104.826 19.437 104.969 19.415 105.013Z" fill="#263238"/>
<path d="M18.7844 107.684C18.7459 107.717 18.5834 107.585 18.4237 107.389C18.264 107.194 18.1649 107.009 18.2034 106.976C18.242 106.943 18.4044 107.078 18.5669 107.274C18.7293 107.469 18.8257 107.654 18.7844 107.684Z" fill="#263238"/>
<path d="M18.6467 98.0304C18.677 98.069 18.5696 98.2039 18.3879 98.3058C18.2062 98.4076 18.0327 98.4021 18.0189 98.3526C18.0052 98.303 18.1401 98.2232 18.2943 98.1406C18.4485 98.058 18.6247 97.9891 18.6467 98.0304Z" fill="#263238"/>
<path d="M20.9597 100.492C20.9789 100.539 20.7642 100.657 20.4723 100.696C20.1804 100.734 19.9436 100.682 19.9491 100.632C19.9546 100.583 20.1749 100.553 20.4475 100.514C20.7201 100.476 20.9431 100.442 20.9597 100.492Z" fill="#263238"/>
<path d="M20.5026 98.2837C20.5246 98.3278 20.3126 98.4792 20.0125 98.5591C19.7123 98.6389 19.4618 98.6554 19.4425 98.6086C19.4232 98.5618 19.671 98.4765 19.9574 98.3856C20.2438 98.2947 20.4778 98.2369 20.5026 98.2837Z" fill="#263238"/>
<path d="M21.4636 103.915C21.4636 103.964 21.1001 103.997 20.665 103.915C20.23 103.832 19.8996 103.678 19.9161 103.639C19.9326 103.601 20.2768 103.667 20.6981 103.741C21.1194 103.815 21.4663 103.868 21.4636 103.915Z" fill="#263238"/>
<path d="M20.6072 107.125C20.5769 107.164 20.3099 107.007 20.0565 106.74C19.8032 106.473 19.6325 106.206 19.6738 106.175C19.7151 106.145 19.9271 106.352 20.1859 106.61C20.4448 106.869 20.6403 107.084 20.6072 107.125Z" fill="#263238"/>
<path d="M16.8432 95.6707C16.2571 96.0262 15.7171 96.4525 15.2351 96.94C14.1166 98.1661 13.4157 99.7153 13.2333 101.365C13.1509 102.27 13.1917 103.183 13.3545 104.077C13.4842 104.811 13.6542 105.537 13.8639 106.252C14.0401 106.866 14.1998 107.354 14.31 107.695C14.3737 107.869 14.4252 108.048 14.4642 108.229C14.3738 108.068 14.2991 107.898 14.2411 107.723C14.1117 107.39 13.9327 106.897 13.74 106.294C13.5115 105.577 13.3276 104.847 13.1893 104.107C13.0141 103.201 12.9677 102.274 13.0516 101.354C13.2361 99.6674 13.9716 98.0889 15.1443 96.8629C15.4994 96.4974 15.9023 96.1816 16.342 95.924C16.4605 95.854 16.5828 95.7906 16.7083 95.734C16.7497 95.706 16.7952 95.6846 16.8432 95.6707Z" fill="white"/>
<path d="M19.3434 108.348C19.6547 107.707 19.9305 107.05 20.1694 106.379C20.7221 104.752 20.8908 103.019 20.6623 101.315C20.5371 100.382 20.2745 99.473 19.883 98.6169C19.5537 97.9233 19.1023 97.2947 18.5503 96.761C18.1629 96.4168 17.7221 96.1379 17.2452 95.9349C16.9065 95.7945 16.6945 95.7615 16.6945 95.745C16.7437 95.737 16.7939 95.737 16.8432 95.745C16.9889 95.7794 17.1316 95.8254 17.27 95.8826C17.7721 96.0636 18.2382 96.3321 18.6467 96.6756C19.227 97.208 19.7016 97.8451 20.0455 98.5535C20.4543 99.4247 20.7273 100.353 20.855 101.307C21.0911 103.036 20.902 104.797 20.3043 106.437C20.1997 106.753 20.0675 107.026 19.9684 107.263C19.8693 107.5 19.7509 107.703 19.6628 107.866C19.5695 108.035 19.4626 108.196 19.3434 108.348Z" fill="white"/>
<path d="M23.0523 61.001C23.0523 61.001 15.8271 78.8106 14.6624 83.3567C13.3793 88.3818 14.3182 92.4019 20.7201 93.027C26.0344 93.5474 43.3787 86.6747 43.3787 86.6747L41.2585 73.4358L25.9132 79.6367L29.6305 62.4411L23.0523 61.001Z" fill="#FFBE9D"/>
<path d="M31.3514 50.1744C30.9246 49.9348 29.8755 48.5085 29.8755 48.5085C29.8755 48.5085 29.1156 43.5522 28.7741 42.5114C28.4327 41.4706 27.4882 41.7487 27.29 42.1314C27.0917 42.5141 27.6782 50.8875 27.6782 50.8875L24.5861 52.5066L22.4493 53.7539C22.1655 54.0803 21.9693 54.4736 21.8794 54.8966C21.7857 55.5162 23.0221 61.6565 23.0221 61.6565L29.5506 62.8075C31.233 61.2132 32.183 58.7158 32.6373 55.6098V50.9812C32.6373 50.9812 31.781 50.4084 31.3514 50.1744Z" fill="#FFBE9D"/>
<path d="M25.9655 51.8596C26.0262 51.847 26.0881 51.8415 26.15 51.843H26.6815H27.5075H27.7608C27.8085 51.8394 27.8564 51.8394 27.904 51.843C27.9518 51.8561 27.998 51.8746 28.0417 51.8981C28.1319 51.9514 28.2102 52.0226 28.2718 52.1074C28.3334 52.1922 28.3769 52.2887 28.3996 52.391C28.5015 53.217 28.6006 54.1835 28.7438 55.2629C28.8154 55.7998 28.8898 56.3643 29.0027 56.9425C29.0254 57.0836 29.0652 57.2213 29.1211 57.3528C29.1762 57.4751 29.2742 57.573 29.3964 57.6282C29.5343 57.6672 29.6788 57.6776 29.8208 57.6586C29.9629 57.6397 30.0996 57.5918 30.2225 57.518C30.3539 57.4456 30.4729 57.3527 30.5749 57.2427C30.6426 57.1203 30.6794 56.9832 30.6823 56.8434C30.7029 56.5473 30.7029 56.2501 30.6823 55.954C30.652 55.3675 30.5914 54.8003 30.5198 54.2634C30.4482 53.7264 30.3684 53.2143 30.2775 52.7434C30.2372 52.5168 30.181 52.2932 30.1096 52.0743C30.0395 51.8755 29.9471 51.6852 29.8342 51.5071C29.7304 51.3442 29.6154 51.1887 29.49 51.0418C29.3896 50.9057 29.2609 50.7929 29.1128 50.7114C28.9927 50.6493 28.8614 50.6119 28.7266 50.6015C28.5918 50.5911 28.4563 50.6079 28.3281 50.6508L27.8324 50.8325C27.7752 50.858 27.7151 50.8765 27.6534 50.8876C27.7063 50.8541 27.7626 50.8264 27.8214 50.805C27.9315 50.7582 28.0968 50.6866 28.3088 50.5985C28.4421 50.5492 28.5841 50.5274 28.726 50.5345C28.868 50.5416 29.0071 50.5774 29.1348 50.6398C29.2954 50.7215 29.4356 50.8382 29.5451 50.9812C29.6766 51.1292 29.7972 51.2865 29.9058 51.4521C30.027 51.635 30.1277 51.8308 30.2059 52.0358C30.2833 52.2584 30.3432 52.4867 30.3849 52.7187C30.484 53.195 30.5667 53.7044 30.6438 54.2441C30.7208 54.7838 30.7814 55.3455 30.8145 55.9458C30.8351 56.2501 30.8351 56.5556 30.8145 56.8599C30.8097 57.029 30.7593 57.1936 30.6685 57.3363C30.5565 57.4574 30.4242 57.5581 30.2775 57.6337C30.1358 57.7189 29.9777 57.7732 29.8135 57.7931C29.6493 57.8131 29.4828 57.7981 29.3248 57.7493C29.167 57.6862 29.0383 57.5664 28.9641 57.4134C28.9025 57.2707 28.859 57.1208 28.8347 56.9673C28.7218 56.3808 28.6502 55.8164 28.5814 55.2767C28.4465 54.2 28.3556 53.2143 28.2702 52.4103C28.2522 52.3205 28.2157 52.2355 28.1631 52.1606C28.1105 52.0858 28.0429 52.0226 27.9646 51.9752C27.8934 51.9319 27.811 51.9108 27.7278 51.9146H27.4772L26.6512 51.8954L26.1197 51.8816C26.068 51.8772 26.0165 51.8698 25.9655 51.8596Z" fill="#EB996E"/>
<path d="M29.1431 57.4987C29.1693 57.5547 29.1824 57.6158 29.1817 57.6776C29.1991 57.8533 29.1716 58.0305 29.1018 58.1925C29.0501 58.3238 28.9691 58.4417 28.8651 58.5371C28.7611 58.6325 28.6368 58.703 28.5015 58.7432C28.3225 58.7852 28.1353 58.7762 27.9611 58.7173C27.7869 58.6584 27.6327 58.552 27.5158 58.4101C27.3514 58.0485 27.2579 57.6587 27.2404 57.2619C27.2074 56.8433 27.2157 56.4028 27.1743 55.9594C27.0923 55.323 26.8965 54.7065 26.5961 54.1394C26.4639 53.864 26.3483 53.6107 26.2134 53.3904C26.1522 53.282 26.0782 53.1812 25.9931 53.0903C25.9217 53.004 25.8256 52.9416 25.7177 52.9113C25.3843 52.7959 25.0371 52.7246 24.6852 52.6993C24.556 52.6892 24.4262 52.6892 24.2969 52.6993C24.2969 52.6635 24.8697 52.5424 25.7535 52.8122C25.8117 52.8317 25.868 52.8566 25.9215 52.8865C25.9772 52.921 26.0281 52.9627 26.0729 53.0104C26.1638 53.1062 26.2441 53.2115 26.3125 53.3243C26.4584 53.5556 26.5879 53.8117 26.7118 54.0788C27.0258 54.6575 27.2294 55.2897 27.312 55.9429C27.3561 56.4 27.3451 56.8378 27.3781 57.2481C27.3922 57.6282 27.4791 58.0021 27.6342 58.3495C27.7362 58.4761 27.8711 58.5721 28.0241 58.627C28.1771 58.6819 28.3423 58.6936 28.5015 58.6606C28.622 58.626 28.7336 58.5658 28.8287 58.484C28.9237 58.4023 29 58.301 29.0522 58.187C29.1241 58.0356 29.1618 57.8701 29.1624 57.7024C29.1504 57.6351 29.144 57.567 29.1431 57.4987Z" fill="#EB996E"/>
<path d="M27.2569 58.008C27.2569 58.008 27.323 58.1154 27.2377 58.2834C27.19 58.3851 27.1258 58.4781 27.0477 58.5587C26.9461 58.6757 26.8103 58.7576 26.6594 58.7928C26.4698 58.8175 26.2779 58.7693 26.1225 58.6579C25.9507 58.5328 25.8187 58.3606 25.7425 58.1622C25.5653 57.7264 25.5027 57.2524 25.5608 56.7855C25.5821 56.5985 25.6218 56.414 25.6792 56.2348L25.7012 56.3091C25.3538 56.0244 25.0862 55.6544 24.9247 55.2353L24.9963 55.2711C24.583 55.3698 24.1477 55.3099 23.7765 55.1031C23.6777 55.0453 23.5853 54.977 23.5012 54.8993C23.4461 54.8415 23.4186 54.8085 23.4241 54.8057C23.4296 54.803 23.5562 54.9131 23.8151 55.0398C24.1754 55.2115 24.5843 55.2524 24.9715 55.1554L25.0238 55.1416L25.0431 55.1912C25.2077 55.5849 25.4669 55.932 25.7976 56.2017L25.8334 56.232V56.2761C25.7799 56.4448 25.7421 56.6181 25.7205 56.7937C25.6666 57.2391 25.7224 57.691 25.8829 58.1099C25.949 58.2875 26.0623 58.4436 26.2106 58.5615C26.3292 58.6591 26.4783 58.7117 26.6319 58.7102C26.7649 58.6855 26.8864 58.6189 26.9788 58.5202C27.0574 58.4505 27.1243 58.3687 27.1771 58.2779C27.2314 58.1986 27.2594 58.1041 27.2569 58.008Z" fill="#EB996E"/>
<path d="M24.732 54.043C24.7733 54.043 24.732 54.3183 24.8284 54.6295C24.9247 54.9406 25.0239 55.2022 24.9826 55.2187C24.8321 55.0686 24.7304 54.8767 24.6907 54.668C24.6491 54.5676 24.6312 54.4591 24.6384 54.3507C24.6456 54.2423 24.6776 54.137 24.732 54.043Z" fill="#EB996E"/>
<path d="M25.335 56.2623C25.335 56.3036 24.8559 56.1714 24.2694 56.2072C23.6829 56.243 23.2341 56.422 23.2176 56.3807C23.5354 56.1933 23.8935 56.0847 24.2619 56.0642C24.6303 56.0436 24.9983 56.1115 25.335 56.2623Z" fill="#EB996E"/>
<path d="M31.4561 52.3055C31.387 52.3289 31.3134 52.3355 31.2413 52.3248C31.0446 52.3128 30.8521 52.2633 30.6741 52.1788C30.4094 52.0548 30.1725 51.8788 29.9774 51.6612C29.7421 51.3946 29.5456 51.0961 29.3937 50.7745C29.0275 50.122 28.9421 49.3565 29.2092 48.9022C29.2551 48.8107 29.3223 48.7317 29.4052 48.6718C29.4882 48.6118 29.5843 48.5728 29.6855 48.558C29.7601 48.5478 29.8358 48.5633 29.9003 48.602C29.9003 48.6158 29.8205 48.602 29.6938 48.602C29.6066 48.6252 29.5257 48.6677 29.4571 48.7263C29.3884 48.7849 29.3338 48.8582 29.2973 48.9407C29.1845 49.1908 29.1499 49.4692 29.1982 49.7392C29.2174 49.9013 29.2534 50.0609 29.3056 50.2156C29.3698 50.3807 29.4424 50.5425 29.5231 50.7002C29.6696 51.0095 29.8546 51.2991 30.0738 51.562C30.2559 51.7709 30.4742 51.9454 30.7181 52.077C30.95 52.1927 31.1993 52.2699 31.4561 52.3055Z" fill="#EB996E"/>
<path d="M31.8415 56.4109C31.7975 56.4109 31.6873 55.9263 31.3652 55.4058C31.043 54.8854 30.6575 54.555 30.6878 54.522C31.0134 54.7259 31.287 55.0027 31.4873 55.3305C31.6875 55.6583 31.8088 56.0282 31.8415 56.4109Z" fill="#EB996E"/>
<path d="M28.8925 44.1167C28.9256 44.136 28.8237 44.392 28.6172 44.6454C28.4107 44.8987 28.1739 45.0529 28.1519 45.0254C28.1298 44.9978 28.3033 44.8023 28.5043 44.5545C28.7053 44.3067 28.8568 44.1167 28.8925 44.1167Z" fill="#EB996E"/>
<path d="M30.4014 52.5424C30.3601 52.5424 30.3436 52.4102 30.3601 52.267C30.3766 52.1239 30.4235 51.9917 30.462 51.9917C30.5006 51.9917 30.5198 52.1239 30.5033 52.267C30.4868 52.4102 30.44 52.5452 30.4014 52.5424Z" fill="#EB996E"/>
<path d="M21.7224 86.6144C21.78 86.5197 21.8494 86.4327 21.9289 86.3556C22.0721 86.1986 22.2731 85.9673 22.5154 85.6782C23.1503 84.9242 23.73 84.1254 24.2501 83.2882C24.7701 82.4498 25.2302 81.5756 25.6269 80.6723C25.7783 80.3254 25.9022 80.0445 25.9738 79.8463C26.0078 79.7412 26.054 79.6404 26.1115 79.5461C26.094 79.6552 26.0654 79.7623 26.0261 79.8655C25.9628 80.0693 25.8609 80.3584 25.7205 80.7136C25.3502 81.6342 24.9015 82.5214 24.3795 83.3653C23.8557 84.2084 23.2597 85.0044 22.598 85.7443C22.3447 86.0196 22.1299 86.2482 21.9757 86.3941C21.8987 86.4757 21.8139 86.5494 21.7224 86.6144Z" fill="#EB996E"/>
<path d="M81.6607 85.8817L90.3342 87.9082L88.5334 76.2609L81.3523 72.5657C78.6146 71.1554 75.6528 70.2311 72.5989 69.8342L67.7307 69.2037L54.4285 69.267C51.4382 68.9228 47.3438 69.9554 42.3462 72.3234L31.5469 77.0291L37.7037 89.4805L44.4361 87.4181L45.0336 92.8976L46.4929 110.765L45.2456 120.664H78.0123L75.5782 115.523C74.4707 113.188 74.1798 110.548 74.7521 108.028L78.987 87.5998C79.046 87.3095 79.1625 87.0339 79.3298 86.7893C79.4971 86.5448 79.7117 86.3362 79.961 86.1761C80.2102 86.0159 80.4891 85.9073 80.781 85.8567C81.073 85.8062 81.3721 85.8146 81.6607 85.8817Z" fill="#DD6559"/>
<path d="M78.0123 120.664H45.2456L46.4929 110.776L45.0308 92.9116L44.4361 87.4377L37.7038 89.5L31.5442 77.0404L42.3434 72.3347C44.5224 71.272 46.7979 70.4201 49.1391 69.7905C51.1574 69.2811 52.9389 69.1076 54.4285 69.2811L67.7307 69.215L72.6017 69.8483C75.6557 70.2429 78.6177 71.1663 81.3551 72.577L88.5389 76.2777L90.3425 87.9333L81.669 85.9067C81.382 85.8388 81.0843 85.8292 80.7935 85.8785C80.5027 85.9277 80.2248 86.0349 79.9762 86.1936C79.7276 86.3523 79.5135 86.5593 79.3464 86.8023C79.1793 87.0454 79.0627 87.3195 79.0036 87.6084L74.7659 108.037C74.1925 110.556 74.4835 113.195 75.592 115.529L78.0123 120.664ZM45.2456 120.65H77.9903L75.5617 115.515C74.4515 113.179 74.1605 110.537 74.7356 108.015L78.9705 87.5864C79.0311 87.2962 79.149 87.021 79.3174 86.777C79.4857 86.533 79.7012 86.3251 79.951 86.1656C80.2009 86.006 80.4801 85.898 80.7723 85.8479C81.0644 85.7978 81.3637 85.8065 81.6524 85.8737L90.326 87.8975L88.5279 76.2667L81.3495 72.5715C78.6132 71.1608 75.6521 70.2375 72.5989 69.8428L67.7307 69.2095L54.4285 69.2756C52.9389 69.1048 51.1601 69.2756 49.1418 69.785C46.8012 70.4134 44.5264 71.2654 42.3489 72.3292L31.5552 77.0322L37.7065 89.4725L44.4416 87.4074L45.0363 92.8869L46.4984 110.754L45.2456 120.65Z" fill="#263238"/>
<path d="M45.0336 92.8977C45.0003 92.7409 44.9801 92.5815 44.973 92.4214C44.94 92.0909 44.8986 91.6531 44.8463 91.1217C44.7362 90.0203 44.5517 88.5141 44.2736 86.8565C43.9955 85.1989 43.6678 83.7093 43.4118 82.6354C43.2879 82.1178 43.1832 81.691 43.1061 81.366C43.0608 81.2127 43.0267 81.0563 43.0042 80.8979C43.0678 81.045 43.1194 81.1969 43.1584 81.3523C43.2493 81.6469 43.3705 82.0764 43.5109 82.6106C43.7862 83.679 44.1332 85.1686 44.414 86.8318C44.6949 88.4949 44.8629 90.0121 44.9482 91.1135C44.9923 91.6642 45.0171 92.1102 45.0281 92.4186C45.0419 92.578 45.0438 92.7381 45.0336 92.8977Z" fill="#263238"/>
<path d="M82.5445 81.7488C82.5611 81.7708 82.137 82.0407 81.523 82.5748C81.1657 82.8808 80.8274 83.2082 80.5097 83.5551C79.7308 84.4069 79.0864 85.3725 78.5988 86.4187C78.4007 86.846 78.2279 87.2846 78.0811 87.7321C77.8361 88.5004 77.7507 88.9932 77.7232 88.9877C77.7238 88.87 77.7377 88.7527 77.7645 88.638C77.7837 88.5279 77.8085 88.3902 77.8471 88.2333C77.8856 88.0763 77.9214 87.8973 77.9847 87.7046C78.1179 87.2468 78.2826 86.7987 78.4776 86.3636C78.7221 85.834 79.0056 85.3232 79.3257 84.8355C79.6519 84.349 80.0155 83.8886 80.4133 83.4587C80.7387 83.1104 81.0884 82.7856 81.4597 82.4867C81.6139 82.3545 81.7653 82.2527 81.8975 82.1563C82.0296 82.0599 82.1425 81.9856 82.2389 81.925C82.3347 81.8563 82.4371 81.7973 82.5445 81.7488Z" fill="#263238"/>
<path d="M64.2282 92.8537C64.2282 92.8537 64.2282 92.8674 64.2145 92.9005L64.1704 93.0382L63.9804 93.5751L63.2535 95.6072C62.6064 97.3722 61.684 99.8806 60.5826 102.885L60.5 103.042L60.4422 102.879C59.4234 100.068 58.2229 96.7636 56.948 93.2419C56.8957 93.1015 56.8461 92.9666 56.7965 92.8261V92.8013V92.7766L60.5 83.2329L60.5606 83.0842L60.6156 83.2329L63.2535 90.202L63.9804 92.1515C64.0603 92.3691 64.1236 92.5398 64.1677 92.6637C64.1869 92.716 64.2007 92.76 64.2145 92.7931C64.2282 92.8261 64.2282 92.8399 64.2145 92.8399C64.2055 92.8251 64.1981 92.8094 64.1925 92.7931L64.1374 92.6637L63.9309 92.1515C63.7546 91.6972 63.4958 91.0501 63.1709 90.2103L60.5 83.277H60.6156C59.5473 86.0553 58.2862 89.3347 56.9397 92.8289V92.7793C56.9893 92.9142 57.0388 93.0547 57.0912 93.1951L60.5688 102.832H60.4504C61.5711 99.8448 62.5073 97.3474 63.1681 95.5907L63.9419 93.5586C64.03 93.3273 64.0988 93.1483 64.1512 93.0216L64.2062 92.884C64.22 92.8537 64.2255 92.8537 64.2282 92.8537Z" fill="#FAFAFA"/>
<path d="M71.9931 93.0573C71.9931 93.0573 71.9931 93.071 71.9931 93.1013L71.9463 93.2417C71.9004 93.3684 71.8371 93.5474 71.7563 93.7787L71.0156 95.819C70.3686 97.584 69.4461 100.092 68.3447 103.097L68.2869 103.256L68.2263 103.094C67.2075 100.282 66.0235 96.9782 64.7321 93.4565L64.5807 93.0407V93.0159V92.9912C65.9382 89.4915 67.202 86.2231 68.2786 83.4475L68.3365 83.2988L68.3915 83.4475C69.4929 86.3277 70.3933 88.7287 71.0321 90.4166L71.7591 92.3661C71.8389 92.5837 71.9023 92.7544 71.9463 92.8783C71.9656 92.9306 71.9793 92.9746 71.9931 93.0077C72.0069 93.0407 72.0069 93.0545 71.9931 93.0545L71.9711 93.0077L71.916 92.8783C71.8665 92.7544 71.7976 92.5837 71.7123 92.3661L70.9633 90.4277C70.3135 88.748 69.3883 86.3607 68.2814 83.4943H68.3943C67.3259 86.2726 66.0676 89.552 64.7184 93.0462V92.9939L64.8698 93.4097C66.1392 96.9314 67.3314 100.238 68.3475 103.047H68.2098C69.3305 100.059 70.2694 97.562 70.9275 95.8053L71.7012 93.7704L71.9105 93.2197L71.9656 93.082C71.9745 93.0734 71.9836 93.0652 71.9931 93.0573Z" fill="#FAFAFA"/>
<path d="M75.9719 103.174C75.9397 103.11 75.9112 103.045 75.8866 102.978C75.8315 102.835 75.7599 102.648 75.6663 102.411L74.8843 100.31L72.3401 93.3603C72.3153 93.286 72.2878 93.2116 72.263 93.1428V93.118V93.0932C73.2928 90.4554 74.218 88.0763 74.8926 86.3416L75.7021 84.3095C75.7957 84.081 75.8728 83.8993 75.9279 83.7588C75.9538 83.6939 75.9832 83.6305 76.016 83.5688C76.0028 83.6369 75.9825 83.7033 75.9554 83.7671L75.7544 84.3178C75.5672 84.8162 75.3083 85.5128 74.9862 86.3664C74.3226 88.1066 73.4084 90.4967 72.3979 93.1345V93.085C72.4227 93.151 72.4502 93.2254 72.475 93.2997C73.4497 96.0119 74.3281 98.4681 74.9724 100.263C75.2808 101.147 75.5231 101.866 75.7131 102.381C75.7957 102.62 75.859 102.813 75.9086 102.956C75.9382 103.026 75.9595 103.099 75.9719 103.174Z" fill="#FAFAFA"/>
<path d="M56.8736 92.8015C56.8703 92.8175 56.8657 92.8331 56.8599 92.8483L56.8131 92.986C56.769 93.1154 56.7057 93.2944 56.6231 93.5367C56.4496 94.0131 56.2018 94.7042 55.8851 95.5771C55.2353 97.3421 54.3156 99.8505 53.2115 102.852L53.1537 103.014L53.0958 102.852C52.0743 100.04 50.8765 96.7363 49.5989 93.2146L49.4502 92.7988V92.774V92.7492L53.1454 83.2056L53.2032 83.0569L53.261 83.2056L55.8989 90.1747C56.2128 91.0007 56.4496 91.6643 56.6286 92.1214C56.7084 92.3417 56.769 92.5124 56.8158 92.6363C56.8323 92.6886 56.8489 92.7327 56.8599 92.7657C56.8654 92.7801 56.87 92.7948 56.8736 92.8098C56.8736 92.8098 56.8736 92.796 56.8516 92.7657C56.8296 92.7354 56.8186 92.6886 56.7965 92.6363L56.59 92.1242C56.4111 91.6671 56.155 91.0228 55.8273 90.1802L53.1454 83.2496H53.261C52.1899 86.0279 50.9316 89.3073 49.5851 92.8015V92.7492L49.7338 93.165C51.0059 96.6867 52.1982 99.9937 53.2115 102.802H53.0958L55.8108 95.5605C56.144 94.6904 56.4028 94.0048 56.5845 93.5257C56.6754 93.2972 56.7442 93.1182 56.7938 92.9888L56.8516 92.8511C56.8555 92.8332 56.863 92.8164 56.8736 92.8015Z" fill="#FAFAFA"/>
<path d="M44.6068 88.9768C44.6065 88.9405 44.6111 88.9044 44.6205 88.8694C44.6205 88.7895 44.6536 88.6876 44.6784 88.561C44.7334 88.2856 44.8133 87.8836 44.9124 87.3852C45.1272 86.3582 45.4273 84.9071 45.7908 83.1696L45.8293 82.9741L45.9037 83.1614C46.6746 85.1659 47.6026 87.567 48.5993 90.1718C48.938 91.0529 49.2657 91.912 49.5823 92.7408V92.7656V92.7904L46.9032 99.9495L46.1047 102.045C46.011 102.282 45.9367 102.469 45.8844 102.596C45.8607 102.661 45.8322 102.724 45.799 102.786C45.8131 102.718 45.8333 102.651 45.8596 102.587L46.0579 102.017C46.2396 101.511 46.4984 100.798 46.8178 99.9082C47.4814 98.1046 48.4011 95.6017 49.4502 92.7491V92.7986C49.1335 91.9726 48.8031 91.1107 48.4672 90.2296L45.7908 83.2164H45.9064C45.5237 84.9539 45.2043 86.3995 44.9785 87.421C44.8656 87.9167 44.7775 88.3077 44.7031 88.5885L44.6288 88.8969C44.6243 88.9242 44.6169 88.951 44.6068 88.9768Z" fill="#FAFAFA"/>
<path d="M78.0206 87.7266L76.016 83.891L76.027 83.8855L78.0316 87.7184L78.0206 87.7266Z" fill="#FAFAFA"/>
<path d="M66.4118 106.919C66.386 106.966 66.3546 107.011 66.3182 107.051L66.029 107.412C65.7785 107.723 65.3985 108.161 64.9276 108.689C64.4568 109.218 63.851 109.832 63.1654 110.487C62.4798 111.143 61.7005 111.834 60.8524 112.522C60.0044 113.21 59.159 113.827 58.3743 114.364C57.5895 114.901 56.8681 115.353 56.2486 115.713C55.6291 116.074 55.1224 116.355 54.7645 116.539L54.3542 116.749C54.3063 116.774 54.2566 116.795 54.2055 116.812C54.2477 116.779 54.2929 116.749 54.3404 116.724L54.7397 116.495C55.0894 116.3 55.5905 116.011 56.2018 115.639C56.8131 115.267 57.5262 114.813 58.3055 114.262C59.0847 113.712 59.9135 113.103 60.7643 112.417C61.6152 111.732 62.3861 111.041 63.0773 110.396C63.7684 109.752 64.3659 109.146 64.8533 108.623C65.3407 108.1 65.7344 107.676 65.996 107.376L66.3044 107.032C66.3372 106.991 66.3732 106.954 66.4118 106.919Z" fill="#263238"/>
<g opacity="0.3">
<path d="M48.7536 97.6614C50.1689 98.3828 52.033 98.3222 53.6851 97.9367C55.3372 97.5512 56.8654 96.8519 58.4762 96.3507C60.087 95.8496 61.874 95.5439 63.4765 95.9542C64.7321 96.2736 65.8418 97.0226 67.1745 96.995C68.0005 96.9758 68.8541 96.6508 69.6527 96.8078C69.8861 96.8485 70.108 96.9396 70.3028 97.0745C70.4977 97.2095 70.6608 97.3852 70.7811 97.5895C70.9013 97.7938 70.9756 98.0217 70.999 98.2576C71.0224 98.4935 70.9943 98.7316 70.9165 98.9555C70.5861 99.8229 69.6114 100.464 68.5623 100.795C65.8638 101.643 62.9286 100.723 60.0677 100.809C58.3688 100.858 56.7029 101.266 55.0178 101.483C53.3326 101.701 51.5181 101.709 50.078 101.026C48.6379 100.343 47.754 98.7903 48.514 97.5347" fill="black"/>
</g>
<path d="M79.0036 72.0566C78.9667 72.1813 78.9178 72.3021 78.8576 72.4173C78.8053 72.5302 78.742 72.6679 78.6759 72.8331C78.6098 72.9983 78.5299 73.1801 78.4584 73.3838C78.2789 73.8721 78.1281 74.3704 78.0068 74.8762C77.7082 76.1166 77.595 77.3943 77.6709 78.6678C77.6994 79.1869 77.76 79.7037 77.8526 80.2153C77.8856 80.4356 77.9352 80.6311 77.9682 80.8045C78.0013 80.978 78.0398 81.1267 78.0729 81.2451C78.1108 81.3693 78.1384 81.4964 78.1555 81.6251C78.0976 81.5091 78.0524 81.3872 78.0206 81.2616C77.9699 81.118 77.9267 80.9719 77.8911 80.8238C77.8498 80.6503 77.792 80.4548 77.7535 80.2346C77.6457 79.7207 77.574 79.1999 77.5387 78.6761C77.4965 78.0341 77.502 77.3898 77.5552 76.7486C77.6163 76.1083 77.724 75.4733 77.8774 74.8487C78.0056 74.3389 78.1684 73.8384 78.3647 73.3508C78.4418 73.1388 78.5299 72.957 78.6043 72.8001C78.665 72.6607 78.733 72.5247 78.808 72.3926C78.8636 72.2753 78.929 72.1629 79.0036 72.0566Z" fill="#263238"/>
<path d="M45.576 71.1011C45.5926 71.1011 45.4108 71.3764 45.1492 71.817C44.8067 72.3902 44.512 72.9906 44.2681 73.6123C44.0271 74.2383 43.8374 74.8829 43.7009 75.5397C43.6596 75.8179 43.6035 76.0936 43.5329 76.3658C43.5196 76.2911 43.5196 76.2147 43.5329 76.14C43.5329 75.994 43.566 75.7848 43.6045 75.5315C43.8239 74.1941 44.3211 72.9175 45.0639 71.7839C45.2098 71.5664 45.3392 71.3985 45.4246 71.2856C45.5099 71.1727 45.5678 71.1011 45.576 71.1011Z" fill="#263238"/>
<g opacity="0.3">
<path d="M43.0923 81.5642C42.7867 82.594 42.4866 83.6541 42.5857 84.7225C42.6848 85.7908 43.2851 86.884 44.2901 87.2557C43.9982 85.3668 43.6385 83.4907 43.2107 81.6275" fill="black"/>
</g>
<path d="M66.5412 42.5526C67.0685 42.6097 67.5552 42.8627 67.905 43.2614C68.2547 43.6601 68.4421 44.1756 68.4301 44.7058L67.1662 70.5888C67.1084 73.9673 62.1741 75.8645 58.5725 75.7819C54.9186 74.9173 54.7837 72.7255 54.7397 69.5122C54.6626 64.1428 54.6874 66.0262 54.6846 66.0565C54.6818 66.0868 50.0697 65.28 49.128 59.2581C48.6572 56.2623 48.8196 51.3501 49.0812 47.3382C49.318 43.7256 51.7191 39.298 55.3207 39.6862L66.5412 42.5526Z" fill="#FFBE9D"/>
<path d="M51.072 51.2509C51.0697 51.4524 51.1461 51.6468 51.2849 51.7929C51.4238 51.9389 51.6141 52.025 51.8155 52.0329C51.9137 52.0408 52.0124 52.029 52.106 51.9982C52.1996 51.9674 52.2861 51.9183 52.3605 51.8537C52.4348 51.7891 52.4955 51.7103 52.5391 51.6219C52.5826 51.5335 52.6081 51.4374 52.614 51.339C52.6156 51.1377 52.539 50.9437 52.4003 50.7978C52.2616 50.6519 52.0716 50.5656 51.8705 50.557C51.7723 50.5488 51.6733 50.5603 51.5796 50.5909C51.4858 50.6216 51.3992 50.6707 51.3248 50.7354C51.2503 50.8 51.1896 50.879 51.1462 50.9675C51.1028 51.0561 51.0776 51.1525 51.072 51.2509Z" fill="#263238"/>
<path d="M50.1276 50.1084C50.2212 50.2103 50.8077 49.778 51.6392 49.7835C52.4708 49.789 53.0793 50.2048 53.1702 50.1029C53.2142 50.0561 53.1151 49.8743 52.8508 49.6816C52.4925 49.4312 52.0653 49.2984 51.6282 49.3016C51.1953 49.2976 50.7725 49.4327 50.4222 49.6871C50.1661 49.8826 50.0807 50.0643 50.1276 50.1084Z" fill="#263238"/>
<path d="M59.1233 51.339C59.1209 51.5405 59.1973 51.735 59.3362 51.881C59.475 52.027 59.6653 52.1132 59.8667 52.121C59.9649 52.1285 60.0636 52.1163 60.157 52.0852C60.2505 52.0541 60.3367 52.0047 60.4108 51.9398C60.4849 51.8749 60.5454 51.7959 60.5886 51.7074C60.6318 51.6189 60.6569 51.5227 60.6625 51.4244C60.6655 51.2234 60.5896 51.0293 60.4511 50.8836C60.3127 50.7379 60.1226 50.6523 59.9218 50.6452C59.8234 50.6365 59.7243 50.6478 59.6304 50.6783C59.5365 50.7087 59.4497 50.7578 59.3752 50.8226C59.3007 50.8873 59.24 50.9664 59.1967 51.0552C59.1534 51.1439 59.1284 51.2404 59.1233 51.339Z" fill="#263238"/>
<path d="M58.3688 50.1084C58.4652 50.2103 59.0517 49.778 59.8832 49.7835C60.7148 49.789 61.3233 50.2047 61.4114 50.1029C61.4555 50.0561 61.3619 49.8743 61.0948 49.6816C60.7355 49.4311 60.3074 49.2983 59.8695 49.3016C59.4374 49.2976 59.0155 49.4328 58.6662 49.6871C58.4101 49.8826 58.322 50.0643 58.3688 50.1084Z" fill="#263238"/>
<path d="M55.2684 56.232C55.2684 56.1852 54.7562 56.0943 53.9191 55.9869C53.7071 55.9649 53.5061 55.9209 53.4703 55.7777C53.4513 55.5521 53.5023 55.3262 53.6163 55.1306L54.2468 53.517C55.1252 51.2179 55.7585 49.3262 55.6676 49.2932C55.5768 49.2601 54.7893 51.094 53.9109 53.3931C53.7016 53.9604 53.4979 54.4945 53.3079 55.0177C53.1739 55.2711 53.1339 55.5637 53.195 55.8437C53.2252 55.9187 53.2722 55.9857 53.3323 56.0396C53.3924 56.0936 53.4642 56.133 53.5419 56.1549C53.6548 56.1952 53.7723 56.2211 53.8916 56.232C54.7397 56.2678 55.2684 56.2705 55.2684 56.232Z" fill="#263238"/>
<path d="M54.6708 66.0565C57.5065 66.1075 60.3006 65.3697 62.7414 63.9253C62.7414 63.9253 60.6955 68.1712 54.6708 67.593V66.0565Z" fill="#EB996E"/>
<path d="M55.4005 58.2447C55.8108 57.6279 56.4358 57.2149 56.9976 57.1901C57.1878 57.173 57.3788 57.2135 57.5457 57.3063C57.7127 57.3991 57.8479 57.5399 57.9338 57.7105C58.0222 57.9342 58.0561 58.1758 58.0327 58.4152C58.0092 58.6546 57.9291 58.885 57.7988 59.0873C57.6719 59.301 57.485 59.4726 57.2612 59.5808C57.0374 59.689 56.7868 59.729 56.5405 59.6958C56.1336 59.5793 55.771 59.3433 55.4997 59.0184C55.4051 58.9387 55.3322 58.8364 55.2876 58.7211C55.2654 58.6482 55.2598 58.5713 55.2713 58.496C55.2827 58.4207 55.3109 58.349 55.3537 58.286" fill="#EB996E"/>
<path d="M57.7107 56.8048C57.5758 56.8048 57.573 57.6997 56.7993 58.3385C56.0256 58.9773 55.0646 58.8754 55.0563 59.0021C55.0563 59.0572 55.2711 59.1756 55.6759 59.1893C56.2047 59.1975 56.7194 59.0191 57.1297 58.6854C57.5228 58.3642 57.7763 57.9035 57.8374 57.3995C57.8732 57.0223 57.7713 56.7993 57.7107 56.8048Z" fill="#263238"/>
<path d="M57.8979 48.2001C57.9998 48.4177 58.8149 48.2304 59.7979 48.2497C60.7809 48.269 61.5904 48.459 61.7005 48.2497C61.7473 48.1478 61.5904 47.9496 61.2517 47.7623C60.8039 47.534 60.3087 47.4142 59.8061 47.4126C59.3042 47.4016 58.8068 47.5102 58.355 47.7293C58.0219 47.9027 57.8511 48.0982 57.8979 48.2001Z" fill="#263238"/>
<path d="M50.1991 48.737C50.3836 48.927 51.094 48.737 51.9476 48.7177C52.8012 48.6984 53.5281 48.8416 53.6961 48.6461C53.7677 48.5498 53.652 48.3708 53.3354 48.1808C52.8959 47.9585 52.4066 47.8533 51.9146 47.8751C51.4247 47.8786 50.9442 48.0106 50.5213 48.2579C50.2184 48.4506 50.1193 48.6461 50.1991 48.737Z" fill="#263238"/>
<path d="M70.8091 62.8737C70.8091 62.8737 70.7733 62.8737 70.7045 62.8599C70.6067 62.8388 70.5101 62.8122 70.4154 62.7801C70.0597 62.6646 69.7317 62.4772 69.4516 62.2294C69.2378 62.0444 69.0724 61.81 68.9697 61.5465C68.867 61.2831 68.8302 60.9986 68.8624 60.7177C68.8809 60.5474 68.9373 60.3833 69.0273 60.2376C69.1174 60.0918 69.2388 59.968 69.3828 59.8751C69.4652 59.8252 69.5588 59.7968 69.655 59.7925C69.7512 59.7882 69.847 59.8081 69.9335 59.8503C70.0274 59.8957 70.1031 59.9717 70.1481 60.0658C70.1931 60.1598 70.2048 60.2664 70.1813 60.368C70.1492 60.4708 70.078 60.5568 69.9831 60.6076C69.8974 60.6503 69.8034 60.6738 69.7077 60.6764C69.5267 60.682 69.3469 60.6462 69.1818 60.5718C68.8707 60.4485 68.5892 60.2608 68.3557 60.0211C67.9542 59.6268 67.7087 59.1007 67.6646 58.5397C67.6342 58.1642 67.6927 57.7869 67.8353 57.4383C67.8738 57.3425 67.9208 57.2503 67.9758 57.1629C68.0116 57.1051 68.0336 57.0748 68.0391 57.0776C68.0446 57.0803 67.9758 57.207 67.8876 57.4493C67.7705 57.7915 67.7291 58.1551 67.7665 58.5149C67.8199 59.0477 68.0621 59.5438 68.4494 59.9137C68.6721 60.1335 68.9373 60.3059 69.2286 60.4203C69.3755 60.4837 69.534 60.5156 69.6939 60.5139C69.7672 60.5202 69.8405 60.5033 69.9037 60.4658C69.9669 60.4283 70.0168 60.3719 70.0464 60.3047C70.0588 60.2341 70.0477 60.1615 70.0149 60.0978C69.9821 60.0342 69.9293 59.983 69.8647 59.9522C69.7986 59.9203 69.7254 59.9057 69.6522 59.9101C69.5789 59.9144 69.508 59.9375 69.4461 59.977C69.3199 60.0586 69.2133 60.167 69.1338 60.2946C69.0543 60.4222 69.0039 60.5657 68.9863 60.7149C68.9476 60.9952 68.9857 61.2807 69.0964 61.541C69.193 61.7678 69.3355 61.9722 69.515 62.1413C69.7824 62.3847 70.0923 62.5769 70.4291 62.7085C70.688 62.8241 70.8119 62.8627 70.8091 62.8737Z" fill="#263238"/>
<path d="M56.2045 36.1533C55.8418 35.9142 55.5763 35.5535 55.4557 35.1361C55.335 34.7187 55.3672 34.272 55.5465 33.8762C55.2931 33.5182 55.5905 32.9868 56.0035 32.8409C56.4166 32.6949 56.8681 32.8106 57.2894 32.9262C57.1765 32.7252 57.4767 32.5518 57.7052 32.516L59.2995 32.2599C58.9346 32.1652 58.5961 31.9885 58.3098 31.7432C58.0235 31.498 57.797 31.1906 57.6474 30.8446C57.3536 30.1427 57.274 29.3695 57.4188 28.6225C57.425 28.5141 57.4525 28.4079 57.4998 28.3101C57.547 28.2123 57.6131 28.1248 57.6942 28.0525C58.1719 28.6016 58.5452 29.2333 58.7956 29.9167C59.0152 29.9277 59.2302 29.9846 59.4265 30.0837C59.6228 30.1828 59.7962 30.3219 59.9355 30.4921C59.9618 30.4329 60.0009 30.3803 60.0501 30.3382C60.0993 30.296 60.1573 30.2654 60.2198 30.2485C60.2824 30.2316 60.3479 30.2289 60.4116 30.2406C60.4753 30.2522 60.5356 30.278 60.5881 30.3159C60.9268 29.3742 61.5629 28.3885 62.5569 28.2673C62.2457 27.8295 62.8102 27.3036 63.2921 27.064C63.6312 26.8663 64.0051 26.7354 64.3935 26.6785C64.5896 26.6526 64.789 26.6823 64.9691 26.764C65.1492 26.8458 65.3027 26.9765 65.4123 27.1411C65.6023 27.4853 65.426 28.0112 65.0378 28.0773C65.236 28.2195 65.3813 28.4235 65.4511 28.6572C65.5209 28.8909 65.5111 29.1412 65.4233 29.3687C65.5793 29.1834 65.7928 29.0556 66.0298 29.0057C66.2668 28.9558 66.5137 28.9867 66.7312 29.0934C67.4232 28.7902 68.1844 28.6798 68.934 28.774C69.1268 28.7857 69.3126 28.8505 69.4709 28.9612C69.5838 29.0548 69.6582 29.1897 69.7738 29.2778C69.9531 29.3832 70.1579 29.4375 70.3658 29.4348C70.8456 29.4574 71.3068 29.6265 71.6875 29.9194C71.8738 30.069 72.0086 30.2733 72.0728 30.5034C72.137 30.7336 72.1274 30.9781 72.0455 31.2025C73.1469 31.5578 74.2345 30.2939 75.3689 30.5197C76.0325 30.6491 76.4924 31.2576 76.7815 31.8716C76.2196 32.0985 75.6115 32.1872 75.0082 32.1305C74.9689 32.2949 74.8757 32.4414 74.7435 32.5467C74.6112 32.6519 74.4476 32.71 74.2785 32.7115C74.3213 32.7703 74.3489 32.8388 74.3589 32.9108C74.369 32.9829 74.3611 33.0563 74.3361 33.1246C74.3111 33.1928 74.2696 33.2539 74.2154 33.3024C74.1612 33.3509 74.0959 33.3853 74.0252 33.4026C74.7199 33.219 75.4518 33.2314 76.1399 33.4384C77.2 33.6862 78.362 34.2424 78.6181 35.3025C78.6828 35.6825 78.6828 36.0707 78.6181 36.4507C78.552 37.0235 78.2601 37.7724 77.6929 37.6678C77.3459 37.6017 77.1642 37.23 76.977 36.9271C76.5608 36.2579 75.8982 35.7792 75.1321 35.5944C74.8568 35.856 75.3634 36.1919 75.5809 36.5003C75.7985 36.8087 75.7104 37.2162 75.7627 37.5824C75.848 38.1331 76.2583 38.5902 76.5034 39.0996C77.0348 40.201 76.7567 41.5034 76.4676 42.6792C76.3905 43.0041 76.0243 43.4033 75.8233 43.1362C76.0241 43.187 76.2012 43.3058 76.3242 43.4725C76.4473 43.6392 76.5086 43.8435 76.4979 44.0504C76.4648 44.4636 76.3336 44.8629 76.1151 45.2151C76.0353 45.3721 75.9362 45.5456 75.7627 45.5841C75.5149 45.6447 75.3111 45.3941 75.1789 45.1738L74.0968 43.3978C74.1798 43.8031 74.1704 44.2219 74.0693 44.6231C73.8931 45.4024 73.4305 46.1981 72.6677 46.4267C72.1418 46.5836 71.5801 46.4432 71.0487 46.3055" fill="#263238"/>
<path d="M68.0584 54.88C67.8243 54.7809 66.8854 55.1554 66.7284 54.9654C65.9437 53.9438 65.5169 51.0279 65.3214 49.7558C65.1259 48.4836 65.9217 47.0601 65.8005 45.7769C65.7041 44.7499 65.5252 43.6678 64.8313 42.894C64.4035 42.4378 63.8688 42.0952 63.2755 41.8973C62.3723 41.5753 61.4053 41.4733 60.4548 41.5998C59.5043 41.7262 58.5975 42.0774 57.8098 42.6242C57.1655 43.0813 56.5542 43.6925 55.7667 43.7669C54.9792 43.8412 54.2771 43.3594 53.6025 42.9573C52.9279 42.5553 52.0963 42.2001 51.3832 42.5278C51.1094 42.669 50.8684 42.8659 50.6755 43.106C50.1854 43.6567 49.1748 46.1349 49.1583 47.1124C49.1583 47.1124 48.6599 44.8407 49.519 42.7398C50.5544 40.2038 53.3437 37.3347 57.7795 36.6133C64.8974 35.4568 68.2429 39.4191 69.4985 42.2525C70.0492 43.4667 70.4925 46.6581 70.0987 49.1087C69.7589 51.1364 69.0685 53.0893 68.0584 54.88Z" fill="#263238"/>
<path d="M69.9693 43.2355C69.8619 43.2685 69.5728 42.4672 68.8679 41.3245C68.4561 40.6577 67.9852 40.0292 67.4609 39.4466C66.8395 38.736 66.1033 38.1347 65.2828 37.6679C64.4444 37.2327 63.5403 36.9378 62.6064 36.795C61.8378 36.6753 61.0575 36.6484 60.2825 36.7152C58.9498 36.8336 58.1485 37.1419 58.1072 37.0318C58.0879 36.9905 58.2669 36.8583 58.6221 36.6959C59.1304 36.4688 59.6651 36.306 60.2136 36.2113C61.032 36.0684 61.8666 36.0443 62.6918 36.1397C63.7144 36.256 64.7068 36.5603 65.6188 37.0373C66.5144 37.5426 67.3066 38.2124 67.9537 39.0116C68.4858 39.6482 68.9414 40.345 69.3112 41.0877C69.9308 42.3378 70.0519 43.2134 69.9693 43.2355Z" fill="#DD6559"/>
<path d="M63.0167 37.0511C62.8748 37.0773 62.7313 37.0939 62.5872 37.1007C62.1971 37.1409 61.81 37.2053 61.4279 37.2934C60.1664 37.5787 58.9855 38.1451 57.9733 38.9504C56.9612 39.7556 56.1438 40.779 55.5822 41.9441C55.4092 42.2956 55.2593 42.658 55.1334 43.029C55.0933 43.1677 55.0446 43.3038 54.9875 43.4365C54.9875 43.4365 54.9875 43.3952 55.004 43.3236C55.0205 43.252 55.0398 43.1446 55.0784 43.0124C55.1871 42.6355 55.3243 42.2673 55.4886 41.911C56.0348 40.7162 56.8554 39.6672 57.8837 38.8495C58.9119 38.0317 60.1187 37.4684 61.4059 37.2053C61.7934 37.1252 62.1865 37.0755 62.5817 37.0566C62.7221 37.0566 62.8295 37.0566 62.9038 37.0566C62.9782 37.0566 63.0167 37.0456 63.0167 37.0511Z" fill="#455A64"/>
<path d="M64.9056 37.9102C64.638 38.0753 64.3623 38.227 64.0796 38.3645C63.4092 38.7262 62.7601 39.1261 62.1356 39.5623C61.5126 40.0005 60.9159 40.4749 60.3486 40.9831C60.1229 41.2046 59.8858 41.4142 59.6382 41.6109C59.6808 41.5369 59.7337 41.4692 59.7951 41.4099C59.9052 41.286 60.0705 41.1152 60.2797 40.9087C61.3852 39.8394 62.6516 38.9503 64.0327 38.2736C64.3081 38.147 64.5146 38.0506 64.6688 37.9983C64.7434 37.9582 64.823 37.9286 64.9056 37.9102Z" fill="#455A64"/>
<path d="M68.7605 41.1042C68.7663 41.1844 68.7617 41.2649 68.7468 41.3438C68.7275 41.4952 68.6917 41.7155 68.6339 41.9826C68.4822 42.6831 68.2608 43.3666 67.973 44.023C67.6851 44.6798 67.3338 45.3069 66.9239 45.8953C66.7642 46.1184 66.6293 46.2946 66.5274 46.4103C66.4256 46.5259 66.3705 46.5892 66.3622 46.5837C66.354 46.5782 66.5467 46.3084 66.8386 45.8375C67.2207 45.2413 67.5559 44.6162 67.8409 43.9679C68.1231 43.3175 68.3551 42.6464 68.5347 41.9606C68.5943 41.6712 68.6697 41.3854 68.7605 41.1042Z" fill="#455A64"/>
<path d="M66.778 49.7144C66.756 49.6951 67.0671 49.3647 67.4829 48.7644C67.7251 48.4114 67.9449 48.0436 68.141 47.663C68.3779 47.1976 68.5804 46.7153 68.7467 46.2202C69.0431 45.3175 69.2109 44.3776 69.2451 43.4281C69.2699 42.6985 69.2176 42.2469 69.2451 42.2441C69.2774 42.3468 69.2959 42.4533 69.3002 42.5608C69.3355 42.8495 69.352 43.1401 69.3498 43.4309C69.3491 43.8631 69.3169 44.2948 69.2534 44.7223C69.171 45.2458 69.0486 45.7622 68.8872 46.267C68.7174 46.7691 68.5084 47.2571 68.2621 47.7264C68.0576 48.1097 67.8257 48.4778 67.5682 48.8278C67.3987 49.0629 67.2148 49.2873 67.0175 49.4996C66.9453 49.5793 66.865 49.6512 66.778 49.7144Z" fill="#455A64"/>
<path d="M44.0533 43.3951C44.0533 43.3951 44.169 43.5135 44.381 43.7118C44.6757 43.9946 45.0227 44.2172 45.4026 44.3671C45.6795 44.4787 45.9778 44.5274 46.2759 44.5098C46.5739 44.4922 46.8644 44.4087 47.1263 44.2652C47.4257 44.0854 47.652 43.8055 47.7651 43.475C47.8287 43.303 47.8518 43.1186 47.8327 42.9362C47.8136 42.7538 47.7528 42.5783 47.6549 42.4231C47.6086 42.349 47.544 42.288 47.4674 42.2461C47.3907 42.2041 47.3045 42.1826 47.2171 42.1836C47.1361 42.1862 47.0585 42.2166 46.9973 42.2698C46.9361 42.323 46.8951 42.3956 46.8812 42.4755C46.8273 42.8185 46.9114 43.169 47.1152 43.4502C47.2927 43.7107 47.5426 43.9136 47.8339 44.0339C48.0918 44.1341 48.3739 44.1543 48.6434 44.0918C49.0402 44.001 49.3889 43.7653 49.6209 43.4309C49.7011 43.304 49.7719 43.1715 49.8329 43.0344C49.8324 43.074 49.825 43.1131 49.8109 43.1501C49.7765 43.2594 49.7284 43.3639 49.6677 43.4612C49.443 43.826 49.0841 44.088 48.6682 44.1909C48.3784 44.2654 48.0728 44.2491 47.7926 44.1441C47.4732 44.0199 47.1974 43.8044 46.9996 43.5245C46.8837 43.3717 46.7996 43.1972 46.7523 43.0114C46.705 42.8255 46.6955 42.632 46.7242 42.4424C46.7492 42.3369 46.8048 42.2411 46.8839 42.1671C46.9696 42.0921 47.0786 42.0493 47.1923 42.0459C47.3017 42.0454 47.4094 42.0723 47.5057 42.1243C47.6019 42.1762 47.6835 42.2515 47.743 42.3433C47.8549 42.5166 47.9246 42.7138 47.9466 42.9189C47.9686 43.124 47.9422 43.3314 47.8697 43.5245C47.7465 43.8868 47.496 44.192 47.1648 44.3836C46.8865 44.5342 46.5778 44.6201 46.2618 44.6349C45.9457 44.6497 45.6304 44.593 45.3392 44.469C44.951 44.3053 44.6012 44.0624 44.3122 43.7558C44.2338 43.6749 44.1602 43.5894 44.0919 43.4998C44.0742 43.4668 44.0613 43.4316 44.0533 43.3951Z" fill="#263238"/>
<path d="M80.6006 41.622C80.5491 41.6401 80.4954 41.6512 80.4409 41.6551C80.3363 41.6744 80.1793 41.6991 79.9756 41.7212C79.3998 41.8041 78.8137 41.7808 78.2464 41.6523C77.8513 41.5546 77.4846 41.366 77.1752 41.1016C76.9965 40.9471 76.85 40.7589 76.7442 40.5477C76.6383 40.3365 76.5752 40.1065 76.5585 39.8708C76.5386 39.6117 76.586 39.3518 76.6961 39.1164C76.8142 38.8697 77.0068 38.6664 77.2468 38.5354C77.4961 38.3999 77.7754 38.329 78.0591 38.329C78.3428 38.329 78.6221 38.3999 78.8714 38.5354C79.0048 38.6046 79.1173 38.7082 79.1972 38.8355C79.2771 38.9629 79.3215 39.1093 79.3257 39.2595C79.3119 39.4055 79.2595 39.5452 79.1739 39.6643C79.0882 39.7833 78.9724 39.8774 78.8384 39.9369C78.5908 40.0449 78.3196 40.0876 78.0508 40.0608C77.8006 40.0426 77.5527 40.0011 77.3102 39.9369C76.4652 39.7123 75.7209 39.2087 75.1982 38.5078C74.8511 38.0394 74.6156 37.4979 74.5098 36.9246C74.481 36.77 74.4635 36.6136 74.4575 36.4565C74.4498 36.4017 74.4498 36.3461 74.4575 36.2913C74.4713 36.2913 74.4713 36.517 74.5594 36.9136C74.6832 37.4709 74.9276 37.9944 75.2753 38.4473C75.7904 39.1229 76.5161 39.6074 77.3377 39.824C77.5724 39.8832 77.812 39.921 78.0536 39.9369C78.2986 39.9618 78.5459 39.9239 78.7723 39.8268C78.8902 39.7844 78.9924 39.7072 79.0653 39.6053C79.1383 39.5035 79.1784 39.3818 79.1805 39.2566C79.1826 39.1313 79.1465 39.0084 79.077 38.9041C79.0076 38.7999 78.908 38.7193 78.7915 38.673C78.5637 38.5497 78.3086 38.485 78.0495 38.485C77.7903 38.485 77.5353 38.5497 77.3074 38.673C77.0986 38.7921 76.9286 38.9691 76.8182 39.1826C76.7078 39.3961 76.6615 39.6371 76.6851 39.8763C76.6978 40.0961 76.7542 40.3111 76.8512 40.5088C76.9481 40.7064 77.0836 40.8827 77.2496 41.0273C77.5427 41.2862 77.8912 41.4746 78.2684 41.578C78.8234 41.7109 79.397 41.7481 79.9645 41.6881L80.4326 41.6496C80.4872 41.6332 80.5437 41.6239 80.6006 41.622Z" fill="#263238"/>
<path d="M52.7599 28.6089C52.6893 28.7865 52.6376 28.9711 52.6057 29.1596C52.5734 29.4153 52.5936 29.6749 52.6651 29.9225C52.7366 30.1701 52.8579 30.4005 53.0215 30.5997C53.275 30.8834 53.6022 31.0913 53.9668 31.2002C54.3314 31.3091 54.719 31.3147 55.0866 31.2165C55.3017 31.1747 55.5027 31.0794 55.6712 30.9394C55.8397 30.7993 55.9701 30.619 56.0503 30.4152C56.079 30.3075 56.0848 30.195 56.0672 30.085C56.0497 29.9749 56.0092 29.8698 55.9485 29.7764C55.8911 29.6805 55.8045 29.6056 55.7015 29.5625C55.5984 29.5194 55.4843 29.5104 55.3757 29.5368C55.2661 29.5698 55.1649 29.6263 55.0793 29.7024C54.9937 29.7785 54.9257 29.8723 54.8801 29.9774C54.789 30.1878 54.7812 30.425 54.8581 30.641C55.0262 31.0595 55.3134 31.4194 55.6841 31.6763C56.1995 32.0659 56.7981 32.3307 57.433 32.4502C58.0679 32.5696 58.7218 32.5403 59.3435 32.3647C59.6987 32.26 59.8942 32.1637 59.8942 32.1802C59.8538 32.2086 59.8104 32.2326 59.7648 32.2518C59.636 32.3167 59.5026 32.3719 59.3656 32.417C58.8602 32.584 58.3265 32.6476 57.7961 32.6042C57.0022 32.5447 56.2423 32.2579 55.607 31.7782C55.2154 31.5049 54.9135 31.1216 54.7397 30.6768C54.6502 30.4287 54.6591 30.1558 54.7645 29.914C54.8182 29.7884 54.8992 29.6764 55.0016 29.5859C55.104 29.4954 55.2252 29.4288 55.3565 29.3909C55.4934 29.3584 55.6371 29.3699 55.7671 29.4238C55.8971 29.4777 56.0068 29.5712 56.0806 29.691C56.1527 29.8017 56.2005 29.9264 56.2209 30.057C56.2413 30.1875 56.2338 30.3208 56.199 30.4482C56.1238 30.6884 55.972 30.8973 55.7667 31.043C55.5773 31.1823 55.362 31.2825 55.1334 31.3376C54.7434 31.4403 54.3323 31.4313 53.9472 31.3115C53.5621 31.1917 53.2184 30.966 52.9554 30.6603C52.788 30.4492 52.6667 30.2053 52.5994 29.9445C52.532 29.6836 52.5201 29.4116 52.5644 29.1458C52.5901 29.0029 52.6346 28.8641 52.6966 28.7328C52.7125 28.6891 52.7338 28.6474 52.7599 28.6089Z" fill="#263238"/>
<path d="M66.5825 53.9907C66.6486 52.658 68.1024 51.7686 69.2561 52.4377C69.8895 52.8039 70.3768 53.5391 70.319 54.9544C70.1621 58.7295 66.4063 57.796 66.4035 57.6859C66.4035 57.6088 66.5054 55.5519 66.5825 53.9907Z" fill="#FFBE9D"/>
<path d="M67.6151 56.3036C67.6316 56.3036 67.6784 56.3531 67.7885 56.4082C67.9416 56.4823 68.1176 56.4932 68.2787 56.4385C68.6834 56.3091 69.0469 55.6895 69.0909 55.0094C69.1148 54.687 69.0658 54.3633 68.9478 54.0622C68.917 53.9429 68.8578 53.8328 68.7754 53.7412C68.6929 53.6497 68.5896 53.5794 68.4742 53.5363C68.3992 53.5132 68.3185 53.5171 68.246 53.5473C68.1736 53.5774 68.114 53.632 68.0776 53.7015C68.0226 53.8034 68.0446 53.8805 68.0226 53.886C68.0006 53.8915 67.9455 53.8199 67.9813 53.6657C68.0063 53.5725 68.0627 53.4908 68.141 53.4344C68.2479 53.3609 68.3794 53.3322 68.5072 53.3546C68.661 53.3909 68.8029 53.4662 68.9191 53.5732C69.0353 53.6803 69.122 53.8155 69.1708 53.9659C69.317 54.3001 69.3803 54.6647 69.3553 55.0287C69.3002 55.7887 68.8817 56.4826 68.3282 56.6175C68.2257 56.6427 68.1188 56.6447 68.0154 56.6232C67.912 56.6018 67.8148 56.5575 67.7307 56.4936C67.6178 56.3944 67.6013 56.3091 67.6151 56.3036Z" fill="#EB996E"/>
<path d="M101.852 79.2403C99.9605 74.284 79.6589 58.3357 79.6589 58.3357L73.8242 61.4637L88.5417 76.272L90.1167 86.5178C90.1167 86.5178 95.0234 87.9304 97.1189 87.7294C101.026 87.3466 102.885 81.947 101.852 79.2403Z" fill="#FFBE9D"/>
<path d="M92.716 82.9576C92.6415 82.8728 92.576 82.7805 92.5205 82.6822C92.3883 82.4702 92.2259 82.2004 92.0304 81.8837C91.6063 81.1816 91.0474 80.2619 90.4306 79.2458C89.8138 78.2298 89.2108 77.2991 88.7785 76.6383L88.2691 75.8535C88.2001 75.7614 88.1419 75.6616 88.0956 75.5562C88.1785 75.6393 88.2515 75.7317 88.3132 75.8315C88.4481 76.0077 88.6353 76.2666 88.8639 76.5915C89.3182 77.2385 89.9212 78.1527 90.5545 79.1798C91.1878 80.2068 91.733 81.154 92.1185 81.8452C92.3112 82.1893 92.4654 82.4702 92.5673 82.6712C92.6268 82.7612 92.6766 82.8572 92.716 82.9576Z" fill="#EB996E"/>
<path d="M73.8049 46.5755C73.2239 46.548 73.2983 47.0629 73.4552 47.4484C73.6122 47.8339 74.5236 49.9486 74.5236 49.9486C74.5236 49.9486 72.3208 45.9753 72.0757 45.7385C71.8307 45.5017 71.4121 45.0721 71.0845 45.3199C70.7568 45.5677 70.8972 45.9037 71.0239 46.3002C71.1395 46.6554 72.2933 49.329 72.5383 49.8797C72.5659 49.9458 72.7724 50.3809 72.6595 50.4497C72.5796 50.6094 72.2327 50.2625 72.1253 50.122L70.4319 47.8862C70.4319 47.8862 69.1075 46.0248 68.7991 46.146C68.2484 46.3608 67.973 46.6692 68.1107 46.9913C68.2484 47.3135 71.101 51.5511 71.101 51.5511L68.6228 48.5718C68.4557 48.3764 68.2278 48.2427 67.9758 48.1918C67.8571 48.1622 67.7326 48.1655 67.6156 48.2014C67.4987 48.2373 67.3937 48.3044 67.3122 48.3956C66.9928 48.7591 67.604 49.4667 67.8766 49.9651C68.0501 50.2818 69.1267 51.7246 69.1267 51.7246L71.5305 55.8879L71.1368 55.9732L70.2749 54.58L69.3608 57.2784C69.3608 57.2784 70.6356 59.5142 71.8554 60.8359C72.3676 61.3866 73.8242 61.461 73.8242 61.461L79.6919 58.8782C79.6919 58.8782 79.5542 56.4606 79.3918 55.8906C78.9783 54.7657 78.4612 53.6817 77.8471 52.6525C77.3927 51.9779 76.4428 51.0004 76.0931 50.3175C75.7434 49.6347 74.4823 46.6113 73.8049 46.5755Z" fill="#FFBE9D"/>
<path d="M75.9004 52.1543C75.9196 52.1736 75.6608 52.4434 75.3497 52.9446C75.1605 53.2371 74.9956 53.5447 74.8568 53.8642C74.6887 54.2561 74.5569 54.6626 74.463 55.0785C74.3765 55.4955 74.3276 55.9194 74.3171 56.3451C74.3103 56.6932 74.3315 57.0413 74.3804 57.386C74.4685 57.9752 74.5897 58.3277 74.5649 58.3359C74.5182 58.2621 74.4837 58.1812 74.463 58.0964C74.4264 58.0002 74.3961 57.9018 74.3722 57.8017C74.3344 57.6705 74.304 57.5372 74.2813 57.4025C74.2157 57.053 74.1834 56.698 74.1849 56.3424C74.187 55.4685 74.3748 54.605 74.7356 53.8092C74.8837 53.4864 75.0607 53.1777 75.2643 52.8867C75.3469 52.7601 75.4378 52.6554 75.5121 52.5618C75.5757 52.4811 75.6447 52.4047 75.7186 52.3333C75.7706 52.2654 75.8317 52.2052 75.9004 52.1543Z" fill="#EB996E"/>
<path d="M73.86 56.747C73.3598 56.5793 72.8393 56.4792 72.3125 56.4496C72.0213 56.446 71.7305 56.4737 71.4452 56.5322H71.4039L71.3818 56.5019C71.2326 56.3152 71.1086 56.1097 71.0129 55.8906C71.1904 56.054 71.3467 56.239 71.4782 56.4413L71.4176 56.4165C71.7102 56.3379 72.0124 56.3008 72.3153 56.3064C72.7011 56.3106 73.0832 56.3824 73.4442 56.5184C73.5973 56.5646 73.739 56.6425 73.86 56.747Z" fill="#EB996E"/>
<path d="M75.9582 50.9343C75.6938 51.0242 75.4244 51.0987 75.1514 51.1574C73.8528 51.5066 72.6098 52.0368 71.459 52.7324C71.2269 52.8884 70.986 53.0309 70.7375 53.1592C70.9398 52.9657 71.1634 52.7957 71.4039 52.6525C71.9692 52.2762 72.5684 51.9536 73.1937 51.6888C73.8159 51.4226 74.4611 51.2134 75.1211 51.0637C75.3942 50.9884 75.6751 50.945 75.9582 50.9343Z" fill="#EB996E"/>
<path d="M70.0657 53.3464C70.0657 53.3464 70.1153 53.3988 70.1758 53.5061C70.2598 53.6601 70.3245 53.8238 70.3686 53.9935C70.4355 54.2484 70.4569 54.5131 70.4319 54.7755C70.3976 55.0936 70.3179 55.4052 70.1951 55.7007C70.0865 55.9969 69.9567 56.2849 69.8069 56.5625C69.6799 56.79 69.5265 57.0017 69.3498 57.1931C69.2302 57.3218 69.0962 57.4363 68.9505 57.5345C68.8986 57.5744 68.8398 57.6042 68.777 57.6226C68.7633 57.6006 68.9946 57.4574 69.2727 57.127C69.4332 56.9325 69.5735 56.7222 69.6912 56.4992C69.8308 56.2227 69.9549 55.9386 70.0629 55.6484C70.179 55.364 70.2585 55.0661 70.2997 54.7617C70.3298 54.513 70.3196 54.261 70.2694 54.0155C70.1841 53.597 70.0409 53.3602 70.0657 53.3464Z" fill="#EB996E"/>
<path d="M121 120.664C121 120.703 93.911 120.736 60.5028 120.736C27.0945 120.736 0 120.692 0 120.664C0 120.637 27.0835 120.593 60.5028 120.593C93.922 120.593 121 120.612 121 120.664Z" fill="#263238"/>
</svg>
