<svg width="154" height="121" viewBox="0 0 154 121" fill="none" xmlns="http://www.w3.org/2000/svg">
<path d="M4.39386 119.546H152.835" stroke="#263238" stroke-width="0.5" stroke-linecap="round" stroke-linejoin="round"/>
<path d="M29.7993 78.627C31.9529 80.4217 31.235 90.9743 37.9687 86.4338C44.7023 81.8933 33.2307 79.2049 33.884 76.6313C34.8028 73.0419 49.9535 77.3492 47.4122 70.4576C44.871 63.5661 35.8115 73.9321 33.4317 71.3657C31.2422 69.0039 42.1467 60.4684 37.0641 59.0183C31.9816 57.5682 33.062 69.912 29.7993 69.912C27.2509 69.912 27.7282 58.1102 23.0441 62.2847C18.36 66.4591 28.5969 70.5761 27.258 73.1676C26.2387 75.1381 18.1806 70.2746 18.5431 74.8151C18.9056 79.3556 27.5021 76.7282 29.7993 78.627Z" fill="#DD6559"/>
<path d="M31.235 73.2285C31.235 73.2285 26.3391 79.1617 26.8847 95.3317" stroke="#263238" stroke-width="0.5" stroke-linecap="round" stroke-linejoin="round"/>
<path d="M40.7934 81.6385C39.9248 79.8905 32.721 78.6953 36.8452 74.9013C40.9693 71.1074 40.955 79.2408 42.7891 79.2085C45.3555 79.1655 44.8566 68.2897 49.092 71.0966C53.3275 73.9035 44.9068 78.3435 46.2564 80.35C47.4948 82.1985 54.9678 76.2258 55.1365 79.8762C55.3052 83.5265 47.1753 80.8238 46.6549 83.024C46.2493 84.7361 54.2607 86.2939 50.7072 88.767C47.1538 91.2401 46.016 83.7168 44.0633 84.2049C42.5738 84.5638 44.5623 90.7698 41.5687 89.8007C38.5752 88.8316 41.7051 83.4691 40.7934 81.6385Z" fill="#DD6559"/>
<path opacity="0.3" d="M40.7934 81.6385C39.9248 79.8905 32.721 78.6953 36.8452 74.9013C40.9693 71.1074 40.955 79.2408 42.7891 79.2085C45.3555 79.1655 44.8566 68.2897 49.092 71.0966C53.3275 73.9035 44.9068 78.3435 46.2564 80.35C47.4948 82.1985 54.9678 76.2258 55.1365 79.8762C55.3052 83.5265 47.1753 80.8238 46.6549 83.024C46.2493 84.7361 54.2607 86.2939 50.7072 88.767C47.1538 91.2401 46.016 83.7168 44.0633 84.2049C42.5738 84.5638 44.5623 90.7698 41.5687 89.8007C38.5752 88.8316 41.7051 83.4691 40.7934 81.6385Z" fill="black"/>
<path d="M44.5156 81.7138C44.5156 81.7138 30.5638 80.2601 29.1855 95.3318" stroke="#263238" stroke-width="0.5" stroke-linecap="round" stroke-linejoin="round"/>
<path d="M17.897 80.0806C15.7434 81.8753 16.4613 92.428 9.72763 87.8874C2.994 83.3469 14.4692 80.6549 13.8123 78.0849C12.897 74.4956 -2.25722 78.8028 0.287631 71.9112C2.83248 65.0197 11.8848 75.3893 14.2861 72.8193C16.472 70.4611 5.57116 61.9257 10.6537 60.472C15.7362 59.0183 14.6414 71.3693 17.9149 71.3693C20.4634 71.3693 19.9896 59.5639 24.6737 63.7419C29.3578 67.9199 19.1174 72.0333 20.4598 74.6248C21.4756 76.5953 29.5373 71.7318 29.1747 76.2687C28.8122 80.8057 20.1834 78.1818 17.897 80.0806Z" fill="#DD6559"/>
<path opacity="0.3" d="M17.897 80.0806C15.7434 81.8753 16.4613 92.428 9.72763 87.8874C2.994 83.3469 14.4692 80.6549 13.8123 78.0849C12.897 74.4956 -2.25722 78.8028 0.287631 71.9112C2.83248 65.0197 11.8848 75.3893 14.2861 72.8193C16.472 70.4611 5.57116 61.9257 10.6537 60.472C15.7362 59.0183 14.6414 71.3693 17.9149 71.3693C20.4634 71.3693 19.9896 59.5639 24.6737 63.7419C29.3578 67.9199 19.1174 72.0333 20.4598 74.6248C21.4756 76.5953 29.5373 71.7318 29.1747 76.2687C28.8122 80.8057 20.1834 78.1818 17.897 80.0806Z" fill="white"/>
<path d="M16.3536 74.6821C16.3536 74.6821 22.7067 83.1674 24.1604 97.3273" stroke="#263238" stroke-width="0.5" stroke-linecap="round" stroke-linejoin="round"/>
<path d="M20.9013 119.485H30.8079C31.7276 119.489 32.6149 119.146 33.2929 118.524C33.9709 117.903 34.3896 117.049 34.4654 116.132L36.0232 97.8265C36.0639 97.3237 35.9999 96.8179 35.8355 96.341C35.6711 95.8641 35.4097 95.4264 35.0678 95.0555C34.7259 94.6846 34.3109 94.3886 33.8489 94.1859C33.387 93.9833 32.8881 93.8785 32.3836 93.8782H19.3435C18.8392 93.8785 18.3404 93.9833 17.8787 94.1859C17.4169 94.3886 17.0021 94.6848 16.6605 95.0557C16.3189 95.4267 16.0578 95.8644 15.8938 96.3413C15.7298 96.8182 15.6663 97.3238 15.7075 97.8265L17.2653 116.132C17.34 117.045 17.7555 117.897 18.429 118.518C19.1026 119.139 19.9851 119.484 20.9013 119.485V119.485Z" fill="#DD6559" stroke="#263238" stroke-width="0.5" stroke-linecap="round" stroke-linejoin="round"/>
<path d="M95.0824 93.1961C91.7694 93.1961 82.2074 91.0425 82.2074 91.0425H107.957C107.957 91.0425 98.3918 93.1961 95.0824 93.1961Z" fill="#263238" stroke="#263238" stroke-width="0.5" stroke-linecap="round" stroke-linejoin="round"/>
<path d="M98.0329 92.1157H92.132V96.1609H98.0329V92.1157Z" fill="#858585" stroke="#263238" stroke-width="0.5" stroke-linecap="round" stroke-linejoin="round"/>
<path d="M98.9051 96.1609H91.2598V113.551H98.9051V96.1609Z" fill="#999999" stroke="#263238" stroke-width="0.5" stroke-linecap="round" stroke-linejoin="round"/>
<path d="M109.443 85.8774H104.458C105.011 82.4532 105.42 78.9644 105.671 75.5078H110.639C110.402 78.9644 109.996 82.4532 109.443 85.8774Z" fill="#858585" stroke="#263238" stroke-width="0.5" stroke-linecap="round" stroke-linejoin="round"/>
<path d="M116.992 44.8765H95.5706C93.058 44.8765 91.4033 47.005 91.8915 49.5103C93.2594 57.1639 94.0775 64.9056 94.3394 72.676C94.337 73.2061 94.44 73.7314 94.6423 74.2214C94.8446 74.7114 95.1422 75.1563 95.5179 75.5303C95.8936 75.9043 96.3398 76.2 96.8307 76.4001C97.3216 76.6002 97.8474 76.7008 98.3774 76.6961H116.41C117.531 76.6848 118.611 76.2736 119.455 75.5365C120.3 74.7994 120.853 73.785 121.015 72.676C121.885 64.9867 122.199 57.2448 121.956 49.5103C121.837 47.005 119.508 44.8765 116.992 44.8765Z" fill="#858585" stroke="#263238" stroke-width="0.5" stroke-linecap="round" stroke-linejoin="round"/>
<path d="M118.158 49.5103C118.402 57.2448 118.087 64.9867 117.218 72.676C117.055 73.785 116.502 74.7994 115.658 75.5365C114.813 76.2736 113.734 76.6848 112.613 76.6961H98.3774C97.8473 76.7008 97.3216 76.6002 96.8307 76.4001C96.3398 76.2 95.8936 75.9043 95.5179 75.5303C95.1422 75.1563 94.8446 74.7114 94.6423 74.2214C94.44 73.7314 94.337 73.2061 94.3394 72.676C94.0787 64.9057 93.2618 57.164 91.8951 49.5103C91.4069 46.9978 93.0544 44.8765 95.5742 44.8765H113.194C115.71 44.8765 118.04 47.005 118.158 49.5103Z" fill="#999999" stroke="#263238" stroke-width="0.5" stroke-linecap="round" stroke-linejoin="round"/>
<path d="M107.957 116.674C107.957 116.77 107.936 116.864 107.895 116.95C107.854 117.036 107.794 117.112 107.719 117.172C107.645 117.232 107.558 117.275 107.465 117.296C107.372 117.318 107.275 117.319 107.182 117.299C104.838 116.789 97.8211 115.31 95.0824 115.31C92.3438 115.31 85.323 116.789 82.9791 117.299C82.886 117.319 82.7895 117.318 82.6967 117.297C82.6039 117.275 82.5172 117.232 82.4431 117.172C82.3689 117.112 82.3093 117.036 82.2685 116.95C82.2277 116.864 82.2068 116.77 82.2074 116.674C82.2071 116.29 82.3384 115.918 82.5795 115.62C82.8205 115.321 83.1567 115.114 83.5319 115.034C86.2742 114.445 92.5304 113.164 95.0824 113.164C97.6345 113.164 103.891 114.445 106.633 115.034C107.008 115.115 107.344 115.322 107.585 115.62C107.826 115.919 107.957 116.291 107.957 116.674V116.674Z" fill="#263238" stroke="#263238" stroke-width="0.5" stroke-linecap="round" stroke-linejoin="round"/>
<path d="M82.2038 115.382C81.7676 115.381 81.3411 115.51 80.9781 115.752C80.6151 115.994 80.3321 116.338 80.1648 116.741C79.9976 117.144 79.9536 117.587 80.0386 118.015C80.1235 118.443 80.3335 118.836 80.6419 119.144C80.9503 119.452 81.3433 119.662 81.7712 119.747C82.199 119.832 82.6424 119.788 83.0453 119.621C83.4481 119.454 83.7923 119.171 84.0342 118.808C84.2761 118.445 84.4048 118.018 84.4041 117.582C84.4032 116.999 84.171 116.44 83.7586 116.027C83.3462 115.615 82.7871 115.383 82.2038 115.382V115.382ZM82.2038 118.777C81.9673 118.778 81.7358 118.709 81.5388 118.578C81.3418 118.447 81.188 118.26 81.097 118.042C81.006 117.824 80.9818 117.583 81.0275 117.351C81.0732 117.119 81.1868 116.906 81.3538 116.738C81.5208 116.571 81.7338 116.457 81.9657 116.41C82.1977 116.364 82.4382 116.387 82.6568 116.477C82.8754 116.568 83.0623 116.721 83.1938 116.918C83.3253 117.114 83.3955 117.346 83.3955 117.582C83.3955 117.898 83.2701 118.202 83.0467 118.426C82.8233 118.65 82.5202 118.776 82.2038 118.777Z" fill="#858585" stroke="#263238" stroke-width="0.5" stroke-linecap="round" stroke-linejoin="round"/>
<path d="M95.0824 115.382C94.6455 115.38 94.218 115.509 93.8542 115.751C93.4905 115.993 93.2069 116.338 93.0395 116.742C92.8722 117.145 92.8286 117.589 92.9142 118.018C92.9999 118.446 93.211 118.84 93.5208 119.148C93.8305 119.456 94.2249 119.665 94.6537 119.749C95.0826 119.832 95.5267 119.787 95.9295 119.617C96.3323 119.448 96.6756 119.163 96.9159 118.798C97.1562 118.433 97.2827 118.005 97.2791 117.568C97.2744 116.988 97.0411 116.433 96.6298 116.024C96.2186 115.614 95.6626 115.384 95.0824 115.382ZM95.0824 118.777C94.8465 118.778 94.6156 118.709 94.4189 118.579C94.2222 118.448 94.0685 118.263 93.977 118.045C93.8856 117.828 93.8606 117.588 93.9052 117.356C93.9497 117.125 94.0619 116.911 94.2275 116.743C94.393 116.575 94.6047 116.46 94.8357 116.412C95.0666 116.364 95.3067 116.385 95.5255 116.473C95.7444 116.562 95.9322 116.713 96.0654 116.907C96.1987 117.102 96.2713 117.332 96.2741 117.568C96.276 117.726 96.2466 117.882 96.1876 118.029C96.1286 118.175 96.0412 118.308 95.9304 118.421C95.8196 118.533 95.6876 118.623 95.5421 118.684C95.3965 118.745 95.2403 118.777 95.0824 118.777Z" fill="#858585" stroke="#263238" stroke-width="0.5" stroke-linecap="round" stroke-linejoin="round"/>
<path d="M107.688 115.382C107.252 115.382 106.826 115.511 106.463 115.754C106.101 115.996 105.818 116.34 105.652 116.743C105.485 117.146 105.442 117.589 105.527 118.017C105.612 118.445 105.823 118.837 106.131 119.145C106.44 119.453 106.833 119.663 107.26 119.748C107.688 119.832 108.131 119.788 108.534 119.621C108.937 119.453 109.281 119.17 109.522 118.807C109.764 118.445 109.893 118.018 109.892 117.582C109.892 117.293 109.835 117.006 109.724 116.739C109.613 116.472 109.451 116.229 109.246 116.025C109.042 115.821 108.799 115.659 108.531 115.548C108.264 115.438 107.977 115.381 107.688 115.382V115.382ZM107.688 118.777C107.452 118.777 107.221 118.707 107.024 118.576C106.828 118.445 106.674 118.258 106.584 118.04C106.493 117.821 106.47 117.581 106.516 117.349C106.562 117.117 106.676 116.904 106.843 116.737C107.01 116.57 107.223 116.456 107.455 116.41C107.687 116.364 107.927 116.387 108.146 116.478C108.364 116.568 108.551 116.722 108.682 116.918C108.813 117.115 108.883 117.346 108.883 117.582C108.883 117.899 108.758 118.203 108.533 118.427C108.309 118.651 108.005 118.777 107.688 118.777Z" fill="#858585" stroke="#263238" stroke-width="0.5" stroke-linecap="round" stroke-linejoin="round"/>
<path d="M101.608 85.1812C93.0141 85.4539 84.412 85.0735 75.8758 84.0433C75.4818 83.9722 75.0769 83.9898 74.6905 84.0949C74.3042 84.2001 73.9462 84.39 73.6426 84.651C73.3389 84.912 73.0973 85.2374 72.9354 85.6036C72.7734 85.9698 72.6952 86.3674 72.7064 86.7677V87.1876C72.7272 88.0695 73.0553 88.9164 73.6339 89.5821C74.2126 90.2479 75.0055 90.6908 75.8758 90.8344C84.4121 91.8628 93.0141 92.2432 101.608 91.9722V85.1812Z" fill="#999999" stroke="#263238" stroke-width="0.5" stroke-linecap="round" stroke-linejoin="round"/>
<path d="M115.104 90.7232C109.77 91.3908 104.483 91.8323 99.1132 92.062C98.8039 92.0717 98.4958 92.0188 98.2074 91.9066C97.9189 91.7944 97.6561 91.6252 97.4346 91.409C97.2131 91.1929 97.0374 90.9343 96.9182 90.6487C96.799 90.3631 96.7386 90.0563 96.7407 89.7469V87.683C96.747 87.0523 96.9979 86.4488 97.4405 85.9995C97.8831 85.5502 98.4828 85.2903 99.1132 85.2745C104.497 85.0412 109.77 84.5997 115.104 83.9321C115.396 83.8773 115.697 83.8886 115.984 83.9653C116.271 84.0419 116.537 84.182 116.763 84.3752C116.989 84.5684 117.169 84.8097 117.289 85.0815C117.409 85.3533 117.467 85.6486 117.458 85.9457V88.0096C117.441 88.6646 117.197 89.2933 116.767 89.7883C116.338 90.2832 115.75 90.6136 115.104 90.7232V90.7232Z" fill="#858585" stroke="#263238" stroke-width="0.5" stroke-linecap="round" stroke-linejoin="round"/>
<path d="M79.3934 118.645C79.3934 117.446 79.1313 115.055 77.7171 111.951L75.8758 105.31L70.1328 107.762L71.748 112.848C71.748 112.848 66.8127 115.203 64.9893 115.838C63.7761 116.261 60.1437 117.094 60.3231 118.652C60.3231 118.762 60.3448 118.871 60.3868 118.972C60.4288 119.073 60.4904 119.166 60.5681 119.243C60.6457 119.321 60.7379 119.383 60.8394 119.425C60.9409 119.467 61.0496 119.488 61.1595 119.488H78.5535C78.6642 119.489 78.7739 119.467 78.8763 119.425C78.9786 119.383 79.0716 119.321 79.1497 119.242C79.2278 119.164 79.2896 119.07 79.3314 118.968C79.3733 118.865 79.3943 118.755 79.3934 118.645V118.645Z" fill="white" stroke="#263238" stroke-width="0.5" stroke-linecap="round" stroke-linejoin="round"/>
<path d="M76.2311 114.757C75.3338 115.418 70.5492 116.254 71.748 115.296C72.9469 114.337 71.748 112.844 71.748 112.844C71.748 112.844 66.8127 115.199 64.9893 115.834C63.7761 116.258 60.1437 117.09 60.3231 118.648C60.3231 118.758 60.3448 118.867 60.3868 118.968C60.4288 119.07 60.4904 119.162 60.5681 119.24C60.6457 119.317 60.7379 119.379 60.8394 119.421C60.9409 119.463 61.0496 119.485 61.1595 119.485H78.5535C78.664 119.485 78.7736 119.463 78.8757 119.421C78.9779 119.379 79.0706 119.317 79.1484 119.238C79.2263 119.16 79.2877 119.066 79.3292 118.964C79.3706 118.861 79.3912 118.752 79.3898 118.641C79.331 116.823 78.9595 115.028 78.2914 113.336C77.3044 113.347 77.1285 114.101 76.2311 114.757Z" fill="#DD6559" stroke="#263238" stroke-width="0.5" stroke-linecap="round" stroke-linejoin="round"/>
<path d="M83.5462 119.485H96.2884C96.4159 119.484 96.5393 119.44 96.6375 119.359C96.7357 119.277 96.8027 119.165 96.8268 119.039C97.0206 118.027 96.9776 115.762 95.829 112.754L95.7141 106.653L89.1887 107.762L90.0142 112.966C90.0142 112.966 87.3868 115.859 86.1377 116.376C85.2619 116.735 83.2663 116.778 83.0006 118.889C82.9936 118.964 83.0025 119.041 83.0268 119.113C83.0511 119.185 83.0901 119.251 83.1415 119.307C83.1929 119.363 83.2554 119.408 83.3251 119.439C83.3948 119.469 83.4701 119.485 83.5462 119.485Z" fill="white" stroke="#263238" stroke-width="0.5" stroke-linecap="round" stroke-linejoin="round"/>
<path d="M93.6898 114.783C92.3437 115.723 91.3495 115.834 91.9776 114.424C92.6058 113.013 90.0286 112.963 90.0286 112.963C90.0286 112.963 87.4012 115.856 86.1521 116.373C85.2763 116.732 83.2806 116.775 83.015 118.885C83.0059 118.962 83.0131 119.04 83.0364 119.114C83.0597 119.188 83.0984 119.256 83.15 119.314C83.2016 119.371 83.265 119.417 83.3357 119.449C83.4065 119.48 83.4832 119.496 83.5606 119.495H96.3028C96.4303 119.495 96.5537 119.451 96.6519 119.37C96.7501 119.288 96.817 119.175 96.8412 119.05C97.035 118.038 96.992 115.773 95.8434 112.765C94.8455 112.995 95.025 113.839 93.6898 114.783Z" fill="#DD6559" stroke="#263238" stroke-width="0.5" stroke-linecap="round" stroke-linejoin="round"/>
<path d="M82.2792 72.8842C82.2792 72.8842 80.9942 74.1979 75.743 75.0378C70.4918 75.8777 59.5909 78.5051 59.7237 82.8123C59.8565 87.1195 69.8959 110.091 69.8959 110.091C69.8959 110.091 74.921 109.137 77.2541 107.701C77.2541 107.701 73.2089 91.3083 70.1759 87.0011C70.1759 87.0011 83.7903 85.3249 91.3208 82.2165C98.8512 79.1081 94.422 72.0227 94.422 72.0227L82.2792 72.8842Z" fill="#263238" stroke="#263238" stroke-width="0.5" stroke-linecap="round" stroke-linejoin="round"/>
<path d="M90.8183 72.2774C90.8183 72.2774 92.7493 75.5078 91.3064 77.3025C89.8635 79.0972 81.669 82.446 82.5951 86.5164C83.5211 90.5867 86.5792 96.3261 88.5713 109.966C88.5713 109.966 93.2124 109.248 96.3207 107.93C96.3207 107.93 96.8376 94.054 93.2303 88.0706C93.2303 88.0706 103.56 86.1574 104.609 82.6865C105.657 79.2156 103.697 73.9106 103.657 72.0154L90.8183 72.2774Z" fill="#263238" stroke="#263238" stroke-width="0.5" stroke-linecap="round" stroke-linejoin="round"/>
<path d="M84.6087 77.4175C84.3697 77.3996 84.1298 77.3996 83.8908 77.4175" stroke="#7F7F7F" stroke-width="0.5" stroke-linecap="round" stroke-linejoin="round"/>
<path d="M85.0753 75.2747C85.0753 75.2747 87.1966 75.8992 88.0293 78.6666C88.0402 78.712 88.0364 78.7598 88.0186 78.803C88.0008 78.8462 87.9698 78.8827 87.9301 78.9073C87.8904 78.9319 87.8439 78.9434 87.7973 78.9402C87.7507 78.9369 87.7063 78.919 87.6704 78.8891C87.1018 78.3042 86.4015 77.8636 85.6281 77.6041" stroke="#7F7F7F" stroke-width="0.5" stroke-linecap="round" stroke-linejoin="round"/>
<path d="M69.1781 86.8502C69.1781 85.6837 64.153 85.0555 65.499 83.9787C66.845 82.9019 69.8959 86.4016 69.8959 86.4016" stroke="#7F7F7F" stroke-width="0.5" stroke-linecap="round" stroke-linejoin="round"/>
<path d="M93.8692 91.5165C93.8692 90.1813 89.0667 89.4526 89.3071 88.0169C89.5476 86.5811 92.5986 89.4095 92.5986 89.4095" stroke="#7F7F7F" stroke-width="0.5" stroke-linecap="round" stroke-linejoin="round"/>
<path d="M69.3647 110.174L69.8923 111.394C69.9215 111.462 69.9733 111.517 70.0388 111.55C70.1044 111.584 70.1795 111.593 70.2513 111.577C71.4106 111.315 76.2491 110.174 77.9469 108.953C77.9962 108.917 78.0335 108.867 78.054 108.81C78.0744 108.752 78.0771 108.69 78.0617 108.63L77.7315 107.27C77.7204 107.223 77.6985 107.179 77.6677 107.142C77.6368 107.105 77.5978 107.076 77.5536 107.056C77.5094 107.037 77.4613 107.028 77.4131 107.03C77.3649 107.032 77.3178 107.046 77.2756 107.069C76.5111 107.485 74.3826 108.48 69.5765 109.743C69.5326 109.755 69.4918 109.776 69.4568 109.805C69.4217 109.834 69.3932 109.87 69.3731 109.911C69.3531 109.951 69.342 109.996 69.3405 110.041C69.3391 110.087 69.3473 110.132 69.3647 110.174V110.174Z" fill="#999999" stroke="#263238" stroke-width="0.5" stroke-linecap="round" stroke-linejoin="round"/>
<path d="M88.0006 109.169C87.9946 109.127 87.9994 109.084 88.0148 109.044C88.0301 109.004 88.0554 108.969 88.0882 108.942C88.1211 108.915 88.1603 108.897 88.2022 108.89C88.244 108.882 88.2871 108.886 88.3273 108.9C88.9104 109.082 89.5339 109.09 90.1219 108.925C91.4536 108.623 95.2619 107.417 96.3961 107.055C96.4333 107.043 96.4728 107.04 96.5114 107.046C96.5499 107.052 96.5865 107.068 96.618 107.091C96.6495 107.114 96.6751 107.144 96.6926 107.179C96.7102 107.214 96.7193 107.253 96.7192 107.292V108.878C96.7196 108.926 96.7058 108.973 96.6797 109.013C96.6535 109.054 96.616 109.085 96.572 109.104C95.6818 109.503 90.9116 111.545 88.417 110.989C88.3683 110.977 88.3243 110.951 88.2909 110.914C88.2575 110.877 88.2364 110.83 88.2303 110.78L88.0006 109.169Z" fill="#999999" stroke="#263238" stroke-width="0.5" stroke-linecap="round" stroke-linejoin="round"/>
<path d="M91.8412 75.9314C91.8066 76.4275 91.6254 76.9022 91.3208 77.2953C90.2655 78.6055 85.6245 80.7411 83.5462 83.3972" stroke="#7F7F7F" stroke-width="0.5" stroke-linecap="round" stroke-linejoin="round"/>
<path d="M91.6151 74.1367C91.6955 74.4012 91.7567 74.6711 91.7982 74.9443" stroke="#7F7F7F" stroke-width="0.5" stroke-linecap="round" stroke-linejoin="round"/>
<path d="M64.1278 116.642C64.4207 117.176 64.6324 117.75 64.756 118.347H77.7171C77.7651 117.782 78.0209 117.255 78.435 116.868" stroke="#263238" stroke-width="0.5" stroke-linecap="round" stroke-linejoin="round"/>
<path d="M86.651 116.642C86.651 116.642 88.4457 116.778 89.1169 118.347H95.8936C96.0981 117.878 96.2196 117.378 96.2526 116.868" stroke="#263238" stroke-width="0.5" stroke-linecap="round" stroke-linejoin="round"/>
<path d="M76.0265 52.6007C76.1916 53.2325 76.3639 53.8606 76.5362 54.4744C78.3309 60.9352 80.664 73.2288 80.664 73.2288C92.1499 75.6516 104.264 73.2288 104.264 73.2288C104.329 70.5511 104.002 67.0156 103.639 63.3006C105.52 62.7802 106.87 61.0429 106.956 58.1535C107.046 54.6539 106.41 48.3545 106.059 45.4113C105.746 42.8234 105.969 41.2835 101.96 39.3094C99.9496 38.15 96.6115 37.6008 92.5088 37.0517C84.4328 35.9749 78.6037 37.608 76.5362 38.4874C74.8959 38.0567 74.44 39.9806 74.44 39.9806C73.5319 39.295 72.4767 42.2024 72.4767 42.2024C69.8205 45.5907 67.7315 51.2978 67.0352 53.3294C66.8812 53.7735 66.5989 54.162 66.224 54.4457C64.3396 55.8814 65.3877 57.6581 65.3877 57.6581L69.2462 58.839C69.2462 58.839 71.1163 59.3272 72.5449 56.8685C73.7365 54.8154 75.6891 51.3301 76.0265 52.6007Z" fill="#DD6559"/>
<path opacity="0.3" d="M69.9569 57.2202C69.9569 57.2202 69.8672 55.4255 68.4315 55.1133C66.9957 54.801 68.8335 54.2626 69.9569 54.5318C71.0804 54.801 70.8184 53.8139 71.7803 52.1987C72.7423 50.5835 73.2161 49.3057 74.0273 50.2353C74.8385 51.165 75.682 51.3121 76.0265 52.5828C76.3711 53.8534 74.6662 56.89 74.6662 56.89L71.9885 58.9682L70.6282 59.7292H68.6002L67.9038 57.974L69.9569 57.2202Z" fill="black"/>
<path d="M76.0265 52.6007C76.1916 53.2325 76.3639 53.8606 76.5362 54.4744C78.3309 60.9352 80.664 73.2288 80.664 73.2288C92.1499 75.6516 104.264 73.2288 104.264 73.2288C104.329 70.5511 104.002 67.0156 103.639 63.3006C105.52 62.7802 106.87 61.0429 106.956 58.1535C107.046 54.6539 106.41 48.3545 106.059 45.4113C105.746 42.8234 105.969 41.2835 101.96 39.3094C99.9496 38.15 96.6115 37.6008 92.5088 37.0517C84.4328 35.9749 78.6037 37.608 76.5362 38.4874C74.8959 38.0567 74.44 39.9806 74.44 39.9806C73.5319 39.295 72.4767 42.2024 72.4767 42.2024C69.8205 45.5907 67.7315 51.2978 67.0352 53.3294C66.8812 53.7735 66.5989 54.162 66.224 54.4457C64.3396 55.8814 65.3877 57.6581 65.3877 57.6581L69.2462 58.839C69.2462 58.839 71.1163 59.3272 72.5449 56.8685C73.7365 54.8154 75.6891 51.3301 76.0265 52.6007Z" stroke="#263238" stroke-width="0.5" stroke-linecap="round" stroke-linejoin="round"/>
<path opacity="0.3" d="M104.264 73.2106C104.273 70.9042 104.159 68.599 103.923 66.3047C104.314 71.7713 92.9324 73.4834 92.5735 70.5186C92.2145 67.5538 103.639 63.2825 97.4227 64.7756C91.9992 66.0786 81.4859 64.8331 78.9016 64.4957C79.8959 69.1618 80.664 73.2106 80.664 73.2106C92.1499 75.6334 104.264 73.2106 104.264 73.2106Z" fill="black"/>
<path opacity="0.3" d="M99.0451 45.7522C99.0451 45.7522 97.4191 50.5081 97.4227 53.0206C97.4263 55.5332 92.8678 57.2202 92.857 57.2202C95.3014 56.7248 97.6775 56.068 98.8117 55.7378C99.0071 55.6826 99.1771 55.561 99.2924 55.3939C99.4077 55.2268 99.4611 55.0247 99.4435 54.8225C99.1538 51.808 99.0209 48.7805 99.0451 45.7522V45.7522Z" fill="black"/>
<path d="M74.5226 44.5569C74.5381 46.7979 74.9425 49.0192 75.7179 51.1218C75.7403 51.1835 75.7426 51.2507 75.7243 51.3137C75.706 51.3767 75.6681 51.4322 75.6161 51.4723C75.564 51.5123 75.5006 51.5347 75.435 51.5362C75.3694 51.5377 75.3051 51.5183 75.2512 51.4807C74.6339 51.0393 73.7617 50.1419 72.9756 48.3329" stroke="#263238" stroke-width="0.5" stroke-linecap="round" stroke-linejoin="round"/>
<path d="M104.982 59.2121C104.034 56.0714 102.394 55.2854 101.123 55.2064C101.084 55.2008 101.047 55.1837 101.018 55.1573C100.988 55.1309 100.967 55.0963 100.957 55.058C100.947 55.0196 100.949 54.9792 100.962 54.9417C100.975 54.9043 100.998 54.8715 101.03 54.8475C101.769 54.449 103.209 54.1296 104.978 56.0894" stroke="#263238" stroke-width="0.5" stroke-linecap="round" stroke-linejoin="round"/>
<path d="M86.7731 50.2244C86.7578 50.3565 86.6945 50.4783 86.5952 50.5668C86.496 50.6552 86.3676 50.7041 86.2347 50.7041C86.1017 50.7041 85.9734 50.6552 85.8741 50.5668C85.7748 50.4783 85.7115 50.3565 85.6963 50.2244C85.6875 50.1485 85.6948 50.0715 85.7179 49.9987C85.7409 49.9258 85.7792 49.8586 85.83 49.8016C85.8808 49.7445 85.9432 49.6988 86.0129 49.6676C86.0827 49.6363 86.1582 49.6201 86.2347 49.6201C86.3111 49.6201 86.3867 49.6363 86.4564 49.6676C86.5261 49.6988 86.5885 49.7445 86.6393 49.8016C86.6902 49.8586 86.7284 49.9258 86.7514 49.9987C86.7745 50.0715 86.7819 50.1485 86.7731 50.2244V50.2244Z" fill="#999999" stroke="#263238" stroke-width="0.5" stroke-linecap="round" stroke-linejoin="round"/>
<path d="M87.5017 56.3336C87.5017 56.4401 87.4701 56.5442 87.411 56.6327C87.3518 56.7212 87.2677 56.7902 87.1694 56.831C87.071 56.8717 86.9627 56.8824 86.8583 56.8616C86.7538 56.8409 86.6579 56.7896 86.5826 56.7143C86.5073 56.639 86.456 56.5431 86.4353 56.4386C86.4145 56.3342 86.4251 56.2259 86.4659 56.1275C86.5066 56.0292 86.5757 55.9451 86.6642 55.8859C86.7527 55.8267 86.8568 55.7952 86.9633 55.7952C87.1061 55.7952 87.243 55.8519 87.344 55.9529C87.445 56.0538 87.5017 56.1908 87.5017 56.3336Z" fill="#999999" stroke="#263238" stroke-width="0.5" stroke-linecap="round" stroke-linejoin="round"/>
<path d="M89.3072 71.0572C89.3079 71.1645 89.2767 71.2697 89.2176 71.3593C89.1584 71.4489 89.074 71.5189 88.9751 71.5605C88.8761 71.6021 88.767 71.6133 88.6616 71.5928C88.5563 71.5723 88.4594 71.521 88.3832 71.4453C88.307 71.3697 88.2551 71.2731 88.2339 71.1678C88.2126 71.0626 88.2232 70.9535 88.2641 70.8542C88.305 70.755 88.3745 70.6701 88.4637 70.6104C88.5529 70.5507 88.6578 70.5188 88.7652 70.5188C88.9083 70.5188 89.0456 70.5754 89.1471 70.6763C89.2487 70.7771 89.3062 70.9141 89.3072 71.0572V71.0572Z" fill="#999999" stroke="#263238" stroke-width="0.5" stroke-linecap="round" stroke-linejoin="round"/>
<path d="M78.9985 60.3359C78.9985 60.3359 77.2362 62.0157 78.0761 62.0444C78.916 62.0731 79.9748 60.9173 80.9476 60.7845C81.9203 60.6517 80.3481 60.0667 80.3481 60.0667L78.9985 60.3359Z" fill="white" stroke="#263238" stroke-width="0.5" stroke-linecap="round" stroke-linejoin="round"/>
<path d="M89.2892 58.444C89.2102 58.3733 89.1175 58.3195 89.0169 58.2862C88.9162 58.2528 88.8098 58.2406 88.7041 58.2502C87.8427 58.322 85.3661 58.5086 84.4328 58.4512C82.7745 58.3471 77.8894 57.3134 77.8894 57.3134C77.777 57.2943 77.6618 57.3004 77.552 57.3313L74.5262 58.2215C74.416 58.2534 74.3151 58.3112 74.2319 58.3902L72.4013 60.07C72.3412 60.1263 72.2903 60.1917 72.2506 60.2638L71.8701 60.9602C71.7915 61.1032 71.762 61.268 71.7859 61.4294C71.8099 61.5908 71.8861 61.7399 72.0029 61.8539V61.8539L75.0251 61.9329C75.2119 61.9417 75.3948 61.8773 75.5348 61.7534L76.4322 60.9853C76.492 60.9333 76.544 60.8728 76.5865 60.8058C76.8055 60.4469 77.6633 59.2624 78.9914 59.3701C78.9914 59.3701 76.1199 60.8956 76.6619 61.5237C77.2039 62.1518 79.4006 60.3572 80.1184 60.5366C80.8363 60.7161 80.883 62.4785 84.7846 61.8396C84.959 61.8101 85.1378 61.8186 85.3086 61.8647L88.8621 62.8589C88.9674 62.8881 89.0776 62.896 89.186 62.8821C89.2944 62.8682 89.399 62.8328 89.4936 62.778C89.5882 62.7232 89.6709 62.65 89.7369 62.5628C89.8029 62.4757 89.8508 62.3762 89.8779 62.2703C90.1543 61.2509 90.3983 59.4562 89.2892 58.444Z" fill="white" stroke="#263238" stroke-width="0.5" stroke-linecap="round" stroke-linejoin="round"/>
<path d="M78.313 57.9561L77.552 58.0853C77.181 58.1481 76.8345 58.312 76.5506 58.5591L75.743 59.2518C75.6055 59.3755 75.4849 59.5167 75.3841 59.6718L74.8636 60.465C74.8072 60.5527 74.7435 60.6355 74.6734 60.7127C74.3647 61.0716 73.514 62.0659 74.4329 61.9295" fill="white"/>
<path d="M78.313 57.9561L77.552 58.0853C77.181 58.1481 76.8345 58.312 76.5506 58.5591L75.743 59.2518C75.6055 59.3755 75.4849 59.5167 75.3841 59.6718L74.8636 60.465C74.8072 60.5527 74.7435 60.6355 74.6734 60.7127C74.3647 61.0716 73.514 62.0659 74.4329 61.9295" stroke="#263238" stroke-width="0.5" stroke-linecap="round" stroke-linejoin="round"/>
<path d="M76.1701 58.2251L75.3841 58.4405C75.1385 58.5005 74.9131 58.6243 74.7308 58.7994L74.117 59.388C74.0566 59.4416 74.0024 59.5018 73.9555 59.5675L72.9469 60.9063C72.9469 60.9063 72.4085 61.8539 72.9469 61.8719" fill="white"/>
<path d="M76.1701 58.2251L75.3841 58.4405C75.1385 58.5005 74.9131 58.6243 74.7308 58.7994L74.117 59.388C74.0566 59.4416 74.0024 59.5018 73.9555 59.5675L72.9469 60.9063C72.9469 60.9063 72.4085 61.8539 72.9469 61.8719" stroke="#263238" stroke-width="0.5" stroke-linecap="round" stroke-linejoin="round"/>
<path d="M99.0738 44.9912C98.9975 48.2725 99.1174 51.5554 99.4327 54.8224C99.4504 55.0247 99.397 55.2268 99.2816 55.3938C99.1663 55.5609 98.9963 55.6825 98.801 55.7377C95.9472 56.5816 93.0407 57.2351 90.1004 57.6939" stroke="#263238" stroke-width="0.5" stroke-linecap="round" stroke-linejoin="round"/>
<path d="M99.2461 42.7659C99.1994 43.1248 99.1599 43.516 99.1312 43.9145" stroke="#263238" stroke-width="0.5" stroke-linecap="round" stroke-linejoin="round"/>
<path d="M100.449 39.4062C100.039 39.7652 99.7306 40.4149 99.5189 41.2763" stroke="#263238" stroke-width="0.5" stroke-linecap="round" stroke-linejoin="round"/>
<path d="M82.4766 37.2741C82.4766 37.2741 82.7028 36.5563 83.9124 36.1507C85.122 35.7451 89.3179 35.1026 91.4751 36.1507C93.6323 37.1987 89.501 42.9022 89.501 42.9022L87.5879 45.5512L85.8829 46.829L85.122 44.5569L84.1349 43.5304C84.1349 43.5304 82.0028 41.7823 82.1823 40.0559C82.3618 38.3294 82.4766 37.2741 82.4766 37.2741Z" fill="white"/>
<path d="M93.0688 37.1235C92.7314 35.9426 91.1915 35.6123 91.1915 35.6123C83.8334 34.3561 82.2792 37.0481 82.2792 37.0481C81.3768 39.4796 81.3768 42.1542 82.2792 44.5857C82.2792 44.5857 84.3718 43.7171 84.7307 44.5857C85.0896 45.4544 85.7465 47.3065 85.7465 47.3065C86.7454 46.7435 87.6168 45.9797 88.3057 45.0631C89.4435 43.5664 92.114 45.0631 92.114 45.0631C93.8441 42.0732 93.0688 37.1235 93.0688 37.1235ZM91.2741 37.0373C88.4242 45.982 85.9116 46.3696 85.9116 46.3696C85.0753 43.0818 84.3574 43.7997 83.2196 41.743C82.3079 40.0919 82.6166 38.0029 82.7745 37.2383C82.7931 37.1471 82.8317 37.0611 82.8875 36.9866C82.9434 36.9121 83.0151 36.851 83.0976 36.8076C85.926 35.3719 89.3861 35.8995 90.8111 36.2118C90.8993 36.23 90.9826 36.2667 91.0556 36.3194C91.1286 36.3721 91.1896 36.4396 91.2347 36.5176C91.2798 36.5955 91.3079 36.6821 91.3171 36.7717C91.3264 36.8613 91.3166 36.9518 91.2885 37.0373H91.2741Z" fill="#DD6559"/>
<path opacity="0.4" d="M93.0688 37.1235C92.7314 35.9426 91.1915 35.6123 91.1915 35.6123C83.8334 34.3561 82.2792 37.0481 82.2792 37.0481C81.3768 39.4796 81.3768 42.1542 82.2792 44.5857C82.2792 44.5857 84.3718 43.7171 84.7307 44.5857C85.0896 45.4544 85.7465 47.3065 85.7465 47.3065C86.7454 46.7435 87.6168 45.9797 88.3057 45.0631C89.4435 43.5664 92.114 45.0631 92.114 45.0631C93.8441 42.0732 93.0688 37.1235 93.0688 37.1235ZM91.2741 37.0373C88.4242 45.982 85.9116 46.3696 85.9116 46.3696C85.0753 43.0818 84.3574 43.7997 83.2196 41.743C82.3079 40.0919 82.6166 38.0029 82.7745 37.2383C82.7931 37.1471 82.8317 37.0611 82.8875 36.9866C82.9434 36.9121 83.0151 36.851 83.0976 36.8076C85.926 35.3719 89.3861 35.8995 90.8111 36.2118C90.8993 36.23 90.9826 36.2667 91.0556 36.3194C91.1286 36.3721 91.1896 36.4396 91.2347 36.5176C91.2798 36.5955 91.3079 36.6821 91.3171 36.7717C91.3264 36.8613 91.3166 36.9518 91.2885 37.0373H91.2741Z" fill="white"/>
<path d="M93.0688 37.1235C92.7314 35.9426 91.1915 35.6123 91.1915 35.6123C83.8334 34.3561 82.2792 37.0481 82.2792 37.0481C81.3768 39.4796 81.3768 42.1542 82.2792 44.5857C82.2792 44.5857 84.3718 43.7171 84.7307 44.5857C85.0896 45.4544 85.7465 47.3065 85.7465 47.3065C86.7454 46.7435 87.6168 45.9797 88.3057 45.0631C89.4435 43.5664 92.114 45.0631 92.114 45.0631C93.8441 42.0732 93.0688 37.1235 93.0688 37.1235ZM91.2741 37.0373C88.4242 45.982 85.9116 46.3696 85.9116 46.3696C85.0753 43.0818 84.3574 43.7997 83.2196 41.743C82.3079 40.0919 82.6166 38.0029 82.7745 37.2383C82.7931 37.1471 82.8317 37.0611 82.8875 36.9866C82.9434 36.9121 83.0151 36.851 83.0976 36.8076C85.926 35.3719 89.3861 35.8995 90.8111 36.2118C90.8993 36.23 90.9826 36.2667 91.0556 36.3194C91.1286 36.3721 91.1896 36.4396 91.2347 36.5176C91.2798 36.5955 91.3079 36.6821 91.3171 36.7717C91.3264 36.8613 91.3166 36.9518 91.2885 37.0373H91.2741Z" stroke="#263238" stroke-width="0.5" stroke-linecap="round" stroke-linejoin="round"/>
<path d="M81.0552 23.4551C81.0552 23.4551 74.7129 24.7257 78.2053 28.8391C82.0782 33.4227 81.0552 23.4551 81.0552 23.4551Z" fill="#263238" stroke="#263238" stroke-width="0.5" stroke-linecap="round" stroke-linejoin="round"/>
<path d="M78.5535 33.5196C78.5535 33.5196 77.0459 27.4177 79.9174 24.4852C82.7889 21.5527 85.9009 20.9568 88.2339 22.3926C90.567 23.8283 91.5361 27.4177 91.1772 29.2698C90.8183 31.1219 90.9906 37.7622 87.7925 40.5152C84.5943 43.2682 82.6274 42.5899 80.5132 38.839C79.1098 36.3803 78.4458 35.6732 78.5535 33.5196Z" fill="white" stroke="#263238" stroke-width="0.5" stroke-linecap="round" stroke-linejoin="round"/>
<path d="M89.6697 32.3244C89.6697 32.3244 87.2576 29.9303 86.5182 27.1198C85.7788 24.3094 85.3625 23.8284 82.6094 25.2031C79.8564 26.5778 75.5635 24.7293 76.687 21.2548C77.8679 17.608 81.4752 22.3316 84.9425 21.1364C88.4098 19.9411 90.8757 22.0947 90.8793 25.2641C90.8793 25.2641 92.9755 27.2993 90.8793 32.5613L89.6697 32.3244Z" fill="#263238" stroke="#263238" stroke-width="0.5" stroke-linecap="round" stroke-linejoin="round"/>
<path d="M88.9123 31.9224C88.9123 31.9224 89.5225 28.5772 91.2167 28.8858C92.9109 29.1945 91.7012 34.1335 89.7056 33.5951" fill="white"/>
<path d="M88.9123 31.9224C88.9123 31.9224 89.5225 28.5772 91.2167 28.8858C92.9109 29.1945 91.7012 34.1335 89.7056 33.5951" stroke="#263238" stroke-width="0.5" stroke-linecap="round" stroke-linejoin="round"/>
<path d="M80.847 33.0566C80.847 33.0566 80.1794 36.1614 80.3984 36.6927C80.6173 37.2239 82.6668 36.8183 82.6668 36.8183" fill="white"/>
<path d="M80.847 33.0566C80.847 33.0566 80.1794 36.1614 80.3984 36.6927C80.6173 37.2239 82.6668 36.8183 82.6668 36.8183" stroke="#263238" stroke-width="0.5" stroke-linecap="round" stroke-linejoin="round"/>
<path d="M82.954 38.1714C82.954 38.1714 84.562 38.8068 85.9798 36.6926Z" fill="white"/>
<path d="M82.954 38.1714C82.954 38.1714 84.562 38.8068 85.9798 36.6926" stroke="#263238" stroke-width="0.5" stroke-linecap="round" stroke-linejoin="round"/>
<path d="M79.7451 33.3151C79.8025 33.6023 79.7272 33.8643 79.5764 33.8966C79.4257 33.9289 79.2498 33.7207 79.1888 33.43C79.1277 33.1393 79.1888 32.8808 79.3575 32.8485C79.5262 32.8162 79.6913 33.0244 79.7451 33.3151Z" fill="#263238"/>
<path d="M83.679 32.9992C83.74 33.2864 83.679 33.5484 83.5103 33.5807C83.3416 33.613 83.1873 33.4012 83.1263 33.1141C83.0653 32.8269 83.1263 32.5649 83.295 32.5326C83.4637 32.5003 83.6395 32.7085 83.679 32.9992Z" fill="#263238"/>
<path d="M80.5707 33.1786C80.6532 33.9934 79.8528 34.7399 78.7473 34.8476C77.6418 34.9553 76.7085 34.3882 76.626 33.5734C76.5434 32.7586 77.4013 32.4033 78.4924 32.292C79.5836 32.1807 80.4917 32.3674 80.5707 33.1786Z" stroke="#263238" stroke-width="0.5" stroke-linecap="round" stroke-linejoin="round"/>
<path d="M85.6496 32.6724C85.7322 33.4836 84.9138 34.2338 83.8262 34.3415C82.7386 34.4492 81.7875 33.8785 81.7049 33.0673C81.6223 32.2561 82.4802 31.8936 83.5714 31.7859C84.6625 31.6782 85.5706 31.8577 85.6496 32.6724Z" stroke="#263238" stroke-width="0.5" stroke-linecap="round" stroke-linejoin="round"/>
<path d="M80.5706 33.1787L81.7049 33.0674" stroke="#263238" stroke-width="0.5" stroke-linecap="round" stroke-linejoin="round"/>
<path d="M85.5132 32.2634L89.684 29.8047" stroke="#263238" stroke-width="0.5" stroke-linecap="round" stroke-linejoin="round"/>
<path d="M90.3983 36.0933L90.5957 36.5706" stroke="#263238" stroke-width="0.5" stroke-linecap="round" stroke-linejoin="round"/>
<path d="M78.2197 31.8685C78.2197 31.8685 78.855 31.0609 79.6339 31.4485Z" fill="white"/>
<path d="M78.2197 31.8685C78.2197 31.8685 78.855 31.0609 79.6339 31.4485" stroke="#263238" stroke-width="0.5" stroke-linecap="round" stroke-linejoin="round"/>
<path d="M84.7164 31.5059C84.7164 31.5059 83.6001 30.4291 82.5233 31.19Z" fill="white"/>
<path d="M84.7164 31.5059C84.7164 31.5059 83.6001 30.4291 82.5233 31.19" stroke="#263238" stroke-width="0.5" stroke-linecap="round" stroke-linejoin="round"/>
<path d="M79.6302 21.6604C81.328 22.1988 84.1851 22.8592 86.5182 22.1521C90.1076 21.0753 88.8764 25.0954 89.684 26.2045" stroke="#7F7F7F" stroke-width="0.5" stroke-linecap="round" stroke-linejoin="round"/>
<path d="M78.1586 21.1221C78.1586 21.1221 78.4422 21.2477 78.9268 21.42" stroke="#7F7F7F" stroke-width="0.5" stroke-linecap="round" stroke-linejoin="round"/>
<path d="M82.4479 23.6597C82.6381 23.6022 82.8356 23.534 83.0437 23.4551" stroke="#7F7F7F" stroke-width="0.5" stroke-linecap="round" stroke-linejoin="round"/>
<path d="M78.5535 23.1858C78.5535 23.1858 79.3144 24.3595 81.7623 23.8391" stroke="#7F7F7F" stroke-width="0.5" stroke-linecap="round" stroke-linejoin="round"/>
<path d="M87.6704 25.4866C87.8598 26.8721 88.382 28.1911 89.1923 29.3308" stroke="#7F7F7F" stroke-width="0.5" stroke-linecap="round" stroke-linejoin="round"/>
<path d="M87.5878 24.2161C87.5829 24.4305 87.5901 24.645 87.6094 24.8586" stroke="#7F7F7F" stroke-width="0.5" stroke-linecap="round" stroke-linejoin="round"/>
<path opacity="0.3" d="M90.768 62.7226C90.7025 62.7773 90.6554 62.8509 90.6331 62.9333C90.6108 63.0158 90.6144 63.1031 90.6434 63.1834C90.6724 63.2637 90.7254 63.3332 90.7952 63.3823C90.865 63.4315 90.9483 63.4581 91.0336 63.4584C93.46 63.4584 100.007 63.4871 102.52 63.3399C105.66 63.1605 103.263 59.7506 100.725 61.0499C98.4241 62.2523 93.5282 60.2495 90.768 62.7226Z" fill="black"/>
<path d="M63.4351 59.3557C63.4351 59.3557 64.9031 55.4469 68.5858 56.0678C72.2685 56.6888 69.4544 59.772 67.6813 60.0448C67.6813 60.0448 67.4121 58.9716 63.4351 59.3557Z" fill="white" stroke="#263238" stroke-width="0.5" stroke-linecap="round" stroke-linejoin="round"/>
<path d="M60.3088 61.574C59.8242 62.0585 58.6577 62.1016 59.4437 61.0499C60.0867 60.204 60.9586 59.56 61.9563 59.1942C63.7007 58.4153 64.3827 58.5733 65.962 58.2251C67.5413 57.8769 67.8392 58.523 68.3848 58.8209C69.6877 59.5388 70 59.6608 70.3302 60.3787C70.6605 61.0966 71.0194 62.0298 70 62.0298C69.074 62.0298 69.0129 60.4972 68.1156 60.5582C67.2183 60.6192 66.7696 62.0298 66.1415 62.0298H65.9046C65.3662 62.0298 65.3375 61.5811 65.6641 60.8776C65.9907 60.1741 66.3532 59.5388 66.3532 59.5388C65.8203 59.8194 65.3942 60.267 65.14 60.813C64.7093 61.7283 64.6304 62.1124 63.8371 62.1124C63.0439 62.1124 63.1192 61.5237 63.8874 60.2244C63.4312 60.4976 63.0539 60.8847 62.7926 61.3478C62.405 62.0657 62.2004 62.0298 61.6943 62.0298C61.0266 62.0298 61.0733 60.9315 62.2542 60.2136C62.2614 60.2136 61.9994 59.8906 60.3088 61.574Z" fill="white" stroke="#263238" stroke-width="0.5" stroke-linecap="round" stroke-linejoin="round"/>
<path d="M64.9319 58.9503C64.9319 58.9503 64.4688 58.9287 64.1745 59.7112Z" fill="white"/>
<path d="M64.9319 58.9503C64.9319 58.9503 64.4688 58.9287 64.1745 59.7112" stroke="#263238" stroke-width="0.5" stroke-linecap="round" stroke-linejoin="round"/>
<path d="M123.912 25.1562C126.23 26.9776 128.436 28.9361 130.52 31.0213" stroke="#263238" stroke-width="0.5" stroke-linecap="round" stroke-linejoin="round"/>
<path d="M121.407 23.272C121.845 23.5878 122.283 23.9073 122.713 24.2339" stroke="#263238" stroke-width="0.5" stroke-linecap="round" stroke-linejoin="round"/>
<path d="M118.905 21.5527C119.355 21.8471 119.802 22.1486 120.247 22.4573" stroke="#263238" stroke-width="0.5" stroke-linecap="round" stroke-linejoin="round"/>
<path d="M100.542 12.8665C106.486 14.7153 112.167 17.3197 117.448 20.6159" stroke="#263238" stroke-width="0.5" stroke-linecap="round" stroke-linejoin="round"/>
<path d="M96.6223 11.761C97.3401 11.9452 98.064 12.1391 98.7938 12.3425" stroke="#263238" stroke-width="0.5" stroke-linecap="round" stroke-linejoin="round"/>
<path d="M92.5878 10.8672C93.3775 11.0179 94.1647 11.183 94.9496 11.3625" stroke="#263238" stroke-width="0.5" stroke-linecap="round" stroke-linejoin="round"/>
<path d="M88.9949 10.2678C89.6768 10.3659 90.3564 10.4712 91.0336 10.5837" stroke="#263238" stroke-width="0.5" stroke-linecap="round" stroke-linejoin="round"/>
<path d="M67.3475 10.4112C73.9999 9.37512 80.7627 9.25435 87.4479 10.0523" stroke="#263238" stroke-width="0.5" stroke-linecap="round" stroke-linejoin="round"/>
<path d="M64.3863 10.9319C64.9965 10.8134 65.6102 10.6986 66.2204 10.5945" stroke="#263238" stroke-width="0.5" stroke-linecap="round" stroke-linejoin="round"/>
<path d="M61.5112 11.5597C62.125 11.4126 62.7352 11.2762 63.3525 11.147" stroke="#263238" stroke-width="0.5" stroke-linecap="round" stroke-linejoin="round"/>
<path d="M57.9793 12.5004C58.6038 12.3173 59.2284 12.1414 59.8565 11.9763" stroke="#263238" stroke-width="0.5" stroke-linecap="round" stroke-linejoin="round"/>
<path d="M36.619 22.7694C42.5622 18.6032 49.0954 15.3499 56.0015 13.1177" stroke="#263238" stroke-width="0.5" stroke-linecap="round" stroke-linejoin="round"/>
<path d="M33.7476 24.8979C34.3075 24.4648 34.8734 24.0389 35.4453 23.6201" stroke="#263238" stroke-width="0.5" stroke-linecap="round" stroke-linejoin="round"/>
<path d="M30.8402 27.2668C31.454 26.7356 32.0785 26.2187 32.7067 25.7126" stroke="#263238" stroke-width="0.5" stroke-linecap="round" stroke-linejoin="round"/>
<path d="M26.7986 31.0214C27.6409 30.1791 28.4975 29.3619 29.3686 28.5698" stroke="#263238" stroke-width="0.5" stroke-linecap="round" stroke-linejoin="round"/>
<path d="M54.6303 19.9859C55.7742 15.1883 52.8122 10.3718 48.0146 9.22796C43.217 8.08413 38.4005 11.0461 37.2567 15.8437C36.1128 20.6413 39.0748 25.4578 43.8724 26.6016C48.67 27.7454 53.4865 24.7835 54.6303 19.9859Z" fill="#DD6559"/>
<path opacity="0.3" d="M54.6303 19.9856C55.7742 15.188 52.8122 10.3716 48.0146 9.22772C43.217 8.08388 38.4005 11.0458 37.2567 15.8434C36.1128 20.641 39.0748 25.4575 43.8724 26.6014C48.67 27.7452 53.4865 24.7832 54.6303 19.9856Z" fill="white"/>
<path d="M54.6303 19.9859C55.7742 15.1883 52.8122 10.3718 48.0146 9.22796C43.217 8.08413 38.4005 11.0461 37.2567 15.8437C36.1128 20.6413 39.0748 25.4578 43.8724 26.6016C48.67 27.7454 53.4865 24.7835 54.6303 19.9859Z" stroke="#263238" stroke-width="0.5" stroke-linecap="round" stroke-linejoin="round"/>
<path d="M41.6441 21.4197V19.1835C41.6441 18.6236 41.4862 18.4657 40.8796 18.4657V17.3709C41.4862 17.3709 41.6441 17.2022 41.6441 16.653V14.4169C41.6282 14.2356 41.6522 14.0531 41.7144 13.8822C41.7766 13.7112 41.8755 13.5559 42.0042 13.4273C42.1328 13.2987 42.2881 13.1998 42.459 13.1376C42.63 13.0754 42.8125 13.0514 42.9937 13.0673H43.6757V14.1441H43.4783C43.0548 14.1441 42.8358 14.3379 42.8358 15.0091V16.8289C42.8601 17.0674 42.7987 17.3068 42.6626 17.5041C42.5264 17.7014 42.3244 17.8438 42.0928 17.9057V17.9308C42.3244 17.9927 42.5264 18.1351 42.6626 18.3324C42.7987 18.5298 42.8601 18.7691 42.8358 19.0076V20.831C42.8358 21.4987 43.0548 21.6925 43.4783 21.6925H43.6757V22.7693H42.9937C42.8125 22.7852 42.63 22.7612 42.459 22.699C42.2881 22.6368 42.1328 22.5379 42.0042 22.4092C41.8755 22.2806 41.7766 22.1254 41.7144 21.9544C41.6522 21.7834 41.6282 21.6009 41.6441 21.4197Z" fill="white" stroke="#263238" stroke-width="0.5" stroke-linecap="round" stroke-linejoin="round"/>
<path d="M48.1875 21.6747H48.3814C48.8085 21.6747 49.0274 21.4808 49.0274 20.8132V18.9898C49.0037 18.7519 49.0649 18.5133 49.2002 18.3162C49.3355 18.1191 49.5363 17.9763 49.7668 17.913V17.8879C49.5359 17.8253 49.3347 17.6826 49.1993 17.4854C49.0638 17.2881 49.0029 17.0491 49.0274 16.8111V14.9913C49.0274 14.3201 48.8085 14.1262 48.3814 14.1262H48.1875V13.0494H48.8695C49.0507 13.0335 49.2332 13.0575 49.4042 13.1197C49.5752 13.1819 49.7304 13.2808 49.8591 13.4095C49.9877 13.5381 50.0866 13.6934 50.1488 13.8643C50.211 14.0353 50.235 14.2178 50.2191 14.399V16.6352C50.2191 17.1951 50.377 17.3531 50.9836 17.3531V18.4478C50.377 18.4478 50.2191 18.6165 50.2191 19.1657V21.4019C50.235 21.5831 50.211 21.7656 50.1488 21.9366C50.0866 22.1075 49.9877 22.2628 49.8591 22.3914C49.7304 22.5201 49.5752 22.619 49.4042 22.6812C49.2332 22.7434 49.0507 22.7674 48.8695 22.7515H48.1875V21.6747Z" fill="white" stroke="#263238" stroke-width="0.5" stroke-linecap="round" stroke-linejoin="round"/>
<path d="M28.6363 29.3091H23.4856C21.1147 29.3091 19.1927 31.2311 19.1927 33.6019V38.7527C19.1927 41.1235 21.1147 43.0455 23.4856 43.0455H28.6363C31.0072 43.0455 32.9292 41.1235 32.9292 38.7527V33.6019C32.9292 31.2311 31.0072 29.3091 28.6363 29.3091Z" fill="#DD6559" stroke="#263238" stroke-width="0.5" stroke-linecap="round" stroke-linejoin="round"/>
<path d="M21.0807 36.5094V35.8454L23.8266 34.6609V35.3788L21.935 36.1792L23.8266 36.976V37.6939L21.0807 36.5094Z" fill="white" stroke="#263238" stroke-width="0.5" stroke-linecap="round" stroke-linejoin="round"/>
<path d="M26.8704 33.0386H27.7246L25.248 39.3199H24.3937L26.8704 33.0386Z" fill="white" stroke="#263238" stroke-width="0.5" stroke-linecap="round" stroke-linejoin="round"/>
<path d="M28.2917 36.9761L30.1833 36.1793L28.2917 35.3717V34.6538L31.0376 35.8383V36.5023L28.2917 37.6868V36.9761Z" fill="white" stroke="#263238" stroke-width="0.5" stroke-linecap="round" stroke-linejoin="round"/>
<path d="M116.709 17.6222C117.667 13.5242 115.122 9.42542 111.024 8.46727C106.926 7.50911 102.827 10.0545 101.869 14.1524C100.911 18.2504 103.456 22.3493 107.554 23.3074C111.652 24.2656 115.751 21.7202 116.709 17.6222Z" fill="#DD6559"/>
<path opacity="0.2" d="M116.709 17.6222C117.667 13.5242 115.122 9.42542 111.024 8.46727C106.926 7.50911 102.827 10.0545 101.869 14.1524C100.911 18.2504 103.456 22.3493 107.554 23.3074C111.652 24.2656 115.751 21.7202 116.709 17.6222Z" fill="black"/>
<path d="M116.709 17.6222C117.667 13.5242 115.122 9.42542 111.024 8.46727C106.926 7.50911 102.827 10.0545 101.869 14.1524C100.911 18.2504 103.456 22.3493 107.554 23.3074C111.652 24.2656 115.751 21.7202 116.709 17.6222Z" stroke="#263238" stroke-width="0.5" stroke-linecap="round" stroke-linejoin="round"/>
<path d="M104.576 17.4679V14.3093C104.576 13.4012 105.046 12.8735 105.937 12.8735C106.827 12.8735 107.297 13.4083 107.297 14.3093V14.9302H106.425V14.2518C106.425 13.8642 106.238 13.7063 105.962 13.7063C105.685 13.7063 105.502 13.8642 105.502 14.2518V17.5325C105.502 17.9202 105.685 18.0709 105.962 18.0709C106.238 18.0709 106.425 17.9202 106.425 17.5325V16.6352H107.297V17.4679C107.297 18.3724 106.827 18.9036 105.937 18.9036C105.046 18.9036 104.576 18.3724 104.576 17.4679Z" fill="white" stroke="#263238" stroke-width="0.5" stroke-linecap="round" stroke-linejoin="round"/>
<path d="M108.862 16.2152H107.735V15.5584H108.862V14.4277H109.515V15.5584H110.642V16.2152H109.515V17.3638H108.862V16.2152Z" fill="white" stroke="#263238" stroke-width="0.5" stroke-linecap="round" stroke-linejoin="round"/>
<path d="M112.222 16.2152H111.095V15.5584H112.222V14.4277H112.875V15.5584H114.002V16.2152H112.875V17.3638H112.222V16.2152Z" fill="white" stroke="#263238" stroke-width="0.5" stroke-linecap="round" stroke-linejoin="round"/>
<path d="M80.0753 1H73.1874C70.4914 1 68.3058 3.18553 68.3058 5.88152V12.7695C68.3058 15.4655 70.4914 17.651 73.1874 17.651H80.0753C82.7713 17.651 84.9569 15.4655 84.9569 12.7695V5.88152C84.9569 3.18553 82.7713 1 80.0753 1Z" fill="#DD6559" stroke="#263238" stroke-width="0.5" stroke-linecap="round" stroke-linejoin="round"/>
<path d="M71.626 11.079V7.57221C71.626 6.56361 72.1501 5.96777 73.1371 5.96777C74.1242 5.96777 74.6662 6.56361 74.6662 7.57221V8.26137H73.6971V7.50402C73.6971 7.07688 73.4889 6.901 73.1838 6.901C72.8787 6.901 72.6705 7.07688 72.6705 7.50402V11.1508C72.6705 11.5815 72.8751 11.7502 73.1838 11.7502C73.4925 11.7502 73.6971 11.5815 73.6971 11.1508V10.153H74.6662V11.079C74.6662 12.084 74.1421 12.6799 73.1551 12.6799C72.168 12.6799 71.626 12.084 71.626 11.079Z" fill="white" stroke="#263238" stroke-width="0.5" stroke-linecap="round" stroke-linejoin="round"/>
<path d="M75.1077 11.0393V10.6804H76.0768V11.1291C76.0768 11.5957 76.2814 11.7644 76.608 11.7644C76.9346 11.7644 77.1392 11.5957 77.1392 11.1111C77.1392 10.5691 76.9346 10.2245 76.2634 9.63589C75.4056 8.88213 75.1256 8.3509 75.1256 7.60432C75.1256 6.57776 75.6568 5.98193 76.6547 5.98193C77.6525 5.98193 78.1478 6.57777 78.1478 7.62227V7.89147H77.1787V7.55766C77.1787 7.09104 76.9921 6.91516 76.6654 6.91516C76.3388 6.91516 76.1558 7.09104 76.1558 7.53971C76.1558 7.98838 76.3675 8.35808 77.0387 8.94674C77.8966 9.7005 78.1694 10.2245 78.1694 11.0357C78.1694 12.1125 77.6274 12.694 76.6188 12.694C75.6102 12.694 75.1077 12.0838 75.1077 11.0393Z" fill="white" stroke="#263238" stroke-width="0.5" stroke-linecap="round" stroke-linejoin="round"/>
<path d="M78.5786 11.0393V10.6804H79.5477V11.1291C79.5477 11.5957 79.7523 11.7644 80.0789 11.7644C80.4056 11.7644 80.6101 11.5957 80.6101 11.1111C80.6101 10.5691 80.4055 10.2245 79.7343 9.63589C78.8765 8.88213 78.5965 8.3509 78.5965 7.60432C78.5965 6.57776 79.1277 5.98193 80.1256 5.98193C81.1234 5.98193 81.6187 6.57777 81.6187 7.62227V7.89147H80.646V7.55766C80.646 7.09104 80.4594 6.91516 80.1328 6.91516C79.8061 6.91516 79.6231 7.09104 79.6231 7.53971C79.6231 7.98838 79.8348 8.35808 80.5061 8.94674C81.3639 9.7005 81.6367 10.2245 81.6367 11.0357C81.6367 12.1125 81.0947 12.694 80.0861 12.694C79.0775 12.694 78.5786 12.0838 78.5786 11.0393Z" fill="white" stroke="#263238" stroke-width="0.5" stroke-linecap="round" stroke-linejoin="round"/>
<path d="M136.842 33.7743C137.816 29.6902 135.294 25.5899 131.21 24.6162C127.126 23.6425 123.026 26.164 122.052 30.2481C121.078 34.3322 123.6 38.4324 127.684 39.4062C131.768 40.3799 135.868 37.8584 136.842 33.7743Z" fill="#DD6559"/>
<path opacity="0.3" d="M136.842 33.7743C137.816 29.6902 135.294 25.5899 131.21 24.6162C127.126 23.6425 123.026 26.164 122.052 30.2481C121.078 34.3322 123.6 38.4324 127.684 39.4062C131.768 40.3799 135.868 37.8584 136.842 33.7743Z" fill="white"/>
<path d="M136.842 33.7743C137.816 29.6902 135.294 25.5899 131.21 24.6162C127.126 23.6425 123.026 26.164 122.052 30.2481C121.078 34.3322 123.6 38.4324 127.684 39.4062C131.768 40.3799 135.868 37.8584 136.842 33.7743Z" stroke="#263238" stroke-width="0.5" stroke-linecap="round" stroke-linejoin="round"/>
<path d="M126.45 33.5161V30.4975C126.45 29.6324 126.898 29.1191 127.749 29.1191C128.6 29.1191 129.048 29.6324 129.048 30.4975V31.0933H128.216V30.4436C128.216 30.0847 128.036 29.9196 127.774 29.9196C127.512 29.9196 127.333 30.0739 127.333 30.4436V33.5771C127.333 33.9361 127.509 34.0904 127.774 34.0904C128.04 34.0904 128.216 33.9468 128.216 33.5771V32.7193H129.048V33.5125C129.048 34.3775 128.6 34.8908 127.749 34.8908C126.898 34.8908 126.45 34.3811 126.45 33.5161Z" fill="white" stroke="#263238" stroke-width="0.5" stroke-linecap="round" stroke-linejoin="round"/>
<path d="M129.774 33.218H129.379L129.443 32.5934H129.838L129.989 31.1254H129.583L129.648 30.4972H130.05L130.186 29.2051H130.883L130.746 30.4972H131.317L131.453 29.2051H132.153L132.017 30.4972H132.426L132.361 31.1254H131.952L131.798 32.5934H132.207L132.142 33.218H131.737L131.568 34.8224H130.872L131.041 33.218H130.47L130.301 34.8224H129.605L129.774 33.218ZM131.105 32.5934L131.256 31.1254H130.689L130.534 32.5934H131.105Z" fill="white" stroke="#263238" stroke-width="0.5" stroke-linecap="round" stroke-linejoin="round"/>
<path d="M39.5731 119.546H38.2414L37.8825 66.6887H39.5731V119.546Z" fill="#858585" stroke="#263238" stroke-width="0.5" stroke-linecap="round" stroke-linejoin="round"/>
<path d="M40.9011 119.546H39.5731V66.6887H41.2601L40.9011 119.546Z" fill="#999999" stroke="#263238" stroke-width="0.5" stroke-linecap="round" stroke-linejoin="round"/>
<path d="M115.581 63.4546H24.3363V66.6922H115.581V63.4546Z" fill="#263238" stroke="#263238" stroke-width="0.5" stroke-linecap="round" stroke-linejoin="round"/>
<path d="M134.648 63.4546H114.217V66.6922H134.648V63.4546Z" fill="#858585" stroke="#263238" stroke-width="0.5" stroke-linecap="round" stroke-linejoin="round"/>
<path d="M119.72 66.6887H29.0096V72.0225H119.72V66.6887Z" fill="#DD6559" stroke="#263238" stroke-width="0.5" stroke-miterlimit="10"/>
<path d="M119.72 72.0261H130.283V66.6924H119.72V72.0261Z" fill="#DD6559"/>
<path opacity="0.3" d="M119.72 72.0261H130.283V66.6924H119.72V72.0261Z" fill="black"/>
<path d="M119.72 72.0261H130.283V66.6924H119.72V72.0261Z" stroke="#263238" stroke-width="0.5" stroke-miterlimit="10"/>
<path d="M119.72 119.546H118.392L118.033 66.6887H119.72V119.546Z" fill="#858585" stroke="#263238" stroke-width="0.5" stroke-linecap="round" stroke-linejoin="round"/>
<path d="M121.051 119.546H119.72V66.6887H121.41L121.051 119.546Z" fill="#999999" stroke="#263238" stroke-width="0.5" stroke-linecap="round" stroke-linejoin="round"/>
<path d="M29.0096 119.546H27.678L27.3191 66.6887H29.0096V119.546Z" fill="#858585" stroke="#263238" stroke-width="0.5" stroke-linecap="round" stroke-linejoin="round"/>
<path d="M30.3377 119.546H29.0096V66.6887H30.6966L30.3377 119.546Z" fill="#999999" stroke="#263238" stroke-width="0.5" stroke-linecap="round" stroke-linejoin="round"/>
<path d="M130.283 119.546H128.952L128.593 66.6887H130.283V119.546Z" fill="#858585" stroke="#263238" stroke-width="0.5" stroke-linecap="round" stroke-linejoin="round"/>
<path d="M131.611 119.546H130.283V66.6887H131.97L131.611 119.546Z" fill="#999999" stroke="#263238" stroke-width="0.5" stroke-linecap="round" stroke-linejoin="round"/>
<path d="M83.2986 63.0959H72.6059C72.5009 63.0949 72.4004 63.0525 72.3265 62.9779C72.2526 62.9033 72.2111 62.8025 72.2111 62.6974V61.8145L83.697 62.1734V62.6974C83.697 62.8031 83.655 62.9044 83.5803 62.9792C83.5056 63.0539 83.4042 63.0959 83.2986 63.0959Z" fill="#858585" stroke="#263238" stroke-width="0.5" stroke-linecap="round" stroke-linejoin="round"/>
<path d="M71.0158 63.0957H49.5192C49.3423 63.0891 49.1719 63.028 49.0311 62.9206C48.8904 62.8133 48.7863 62.6651 48.7331 62.4963L44.1172 47.5144C44.0827 47.4269 44.0704 47.3323 44.0815 47.2389C44.0926 47.1455 44.1267 47.0564 44.1808 46.9795C44.2349 46.9026 44.3073 46.8404 44.3915 46.7984C44.4756 46.7564 44.5688 46.736 44.6628 46.7391H66.1594C66.336 46.7449 66.5064 46.8054 66.6471 46.9121C66.7879 47.0188 66.8922 47.1665 66.9455 47.3349L71.5614 62.3169C71.5958 62.4045 71.6079 62.4993 71.5968 62.5928C71.5856 62.6863 71.5515 62.7755 71.4975 62.8526C71.4435 62.9297 71.3713 62.9923 71.2872 63.0347C71.2032 63.0771 71.1099 63.0981 71.0158 63.0957V63.0957Z" fill="#999999" stroke="#263238" stroke-width="0.5" stroke-linecap="round" stroke-linejoin="round"/>
<path d="M72.5126 62.3168L67.8967 47.3348C67.8433 47.1664 67.7391 47.0187 67.5983 46.912C67.4576 46.8053 67.2872 46.7449 67.1106 46.739H66.1594C66.336 46.7449 66.5064 46.8053 66.6472 46.912C66.7879 47.0187 66.8922 47.1664 66.9455 47.3348L71.5614 62.3168C71.5958 62.4045 71.6079 62.4992 71.5968 62.5927C71.5857 62.6862 71.5516 62.7755 71.4975 62.8526C71.4435 62.9297 71.3713 62.9922 71.2872 63.0347C71.2032 63.0771 71.1099 63.098 71.0158 63.0957H71.9814C72.0743 63.0957 72.1658 63.073 72.2479 63.0295C72.3301 62.9861 72.4003 62.9233 72.4527 62.8466C72.505 62.7698 72.5379 62.6814 72.5483 62.5891C72.5587 62.4968 72.5465 62.4033 72.5126 62.3168Z" fill="#858585" stroke="#263238" stroke-width="0.5" stroke-linecap="round" stroke-linejoin="round"/>
<path d="M59.171 54.9157C59.1973 55.0825 59.1867 55.2531 59.1398 55.4154C59.0929 55.5777 59.0109 55.7276 58.8996 55.8547C58.7883 55.9818 58.6504 56.0828 58.4957 56.1506C58.341 56.2185 58.1733 56.2515 58.0044 56.2473C57.6382 56.2381 57.287 56.0992 57.0136 55.8554C56.7402 55.6115 56.5621 55.2785 56.5112 54.9157C56.4848 54.749 56.4954 54.5785 56.5424 54.4164C56.5893 54.2543 56.6713 54.1045 56.7827 53.9777C56.8941 53.851 57.032 53.7503 57.1867 53.6828C57.3414 53.6154 57.5091 53.5829 57.6778 53.5876C58.0433 53.5974 58.3936 53.736 58.6668 53.979C58.9401 54.222 59.1186 54.5538 59.171 54.9157V54.9157Z" fill="white" stroke="#263238" stroke-width="0.5" stroke-linecap="round" stroke-linejoin="round"/>
</svg>
