<svg width="164" height="7" viewBox="0 0 164 7" fill="none" xmlns="http://www.w3.org/2000/svg">
<path d="M147.034 3.25964C142.778 1.25636 136.245 2.24278 131.502 2.24278C124.358 2.24278 117.215 2.24278 110.072 2.24278C100.449 2.24278 90.8259 2.24278 81.2027 2.24278C73.111 2.24278 65.0193 2.24278 56.9276 2.24278C51.306 2.24278 45.6797 2.18561 40.0584 2.24278C36.9157 2.27474 32.5985 2.19599 29.6352 2.97718C26.2569 3.86777 23.0868 3.76808 19.5549 3.76808C17.3171 3.76808 11.4002 2.84228 9.61169 3.82457C8.88373 4.22437 11.212 4.47093 12.0803 4.55897C18.0178 5.16099 24.2236 4.78494 30.1838 4.78494C40.5842 4.78494 50.9845 4.78494 61.3849 4.78494C70.7109 4.78494 80.0369 4.78494 89.363 4.78494C104.255 4.78494 119.147 4.78494 134.039 4.78494C140.622 4.78494 147.205 4.78494 153.788 4.78494C155.369 4.78494 160.928 5.51816 161.983 4.27651C162.403 3.78166 155.068 3.76808 154.302 3.76808C148.954 3.76808 143.605 3.76808 138.256 3.76808C126.939 3.76808 115.644 4.27651 104.312 4.27651C70.1889 4.27651 36.1193 4.78494 2 4.78494" stroke="#C75B50" stroke-width="4" stroke-linecap="round"/>
</svg>
