<svg width="1440" height="658" viewBox="0 0 1440 658" fill="none" xmlns="http://www.w3.org/2000/svg">
<g opacity="0.25">
<path opacity="0.2" d="M805.482 277.318H729.916V307.534H805.482V277.318Z" fill="black"/>
<path opacity="0.2" d="M776.706 169.787H701.14V200.003H776.706V169.787Z" fill="black"/>
<path opacity="0.2" d="M503.218 276.445H427.652V306.661H503.218V276.445Z" fill="black"/>
<path opacity="0.2" d="M612.983 66.1718H537.417V96.3877H612.983V66.1718Z" fill="black"/>
<path opacity="0.2" d="M695.738 66.1718H620.172V96.3877H695.738V66.1718Z" fill="black"/>
<path opacity="0.2" d="M373.673 499.909H298.107V530.125H373.673V499.909Z" fill="black"/>
<path opacity="0.2" d="M334.093 537.227H258.526V567.443H334.093V537.227Z" fill="black"/>
<path opacity="0.1" d="M735.318 211.549H659.752V241.765H735.318V211.549Z" fill="black"/>
<path opacity="0.1" d="M848.678 381.318H773.112V411.534H848.678V381.318Z" fill="black"/>
<path opacity="0.1" d="M406.064 427.525H330.498V457.741H406.064V427.525Z" fill="black"/>
<path opacity="0.1" d="M492.434 427.525H416.868V457.741H492.434V427.525Z" fill="black"/>
<path opacity="0.1" d="M499.623 384.869H424.057V415.085H499.623V384.869Z" fill="black"/>
<path opacity="0.1" d="M821.688 211.549H746.122V241.765H821.688V211.549Z" fill="black"/>
<path opacity="0.2" d="M596.777 534.183H521.211V564.399H596.777V534.183Z" fill="black"/>
<path opacity="0.1" d="M555.389 575.966H479.823V606.182H555.389V575.966Z" fill="black"/>
<path opacity="0.1" d="M641.759 575.966H566.193V606.182H641.759V575.966Z" fill="black"/>
<path opacity="0.2" d="M230.448 158.078H154.882V188.294H230.448V158.078Z" fill="black"/>
<path opacity="0.1" d="M189.061 199.84H113.495V230.056H189.061V199.84Z" fill="black"/>
<path opacity="0.1" d="M275.431 199.84H199.865V230.056H275.431V199.84Z" fill="black"/>
<path opacity="0.2" d="M200.953 383.104H125.387V413.32H200.953V383.104Z" fill="black"/>
<path opacity="0.1" d="M535.609 238.599H460.043V268.815H535.609V238.599Z" fill="black"/>
<path opacity="0.1" d="M422.25 535.462H346.684V565.678H422.25V535.462Z" fill="black"/>
<path opacity="0.1" d="M656.157 28.8333H580.591V59.0492H656.157V28.8333Z" fill="black"/>
<path opacity="0.2" d="M157.778 283.04H82.2122V313.256H157.778V283.04Z" fill="black"/>
<path opacity="0.1" d="M200.953 245.702H125.387V275.918H200.953V245.702Z" fill="black"/>
<path opacity="0.1" d="M393.473 64.0209H317.907V94.2368H393.473V64.0209Z" fill="black"/>
<path opacity="0.2" d="M656.157 277.318H580.591V307.534H656.157V277.318Z" fill="black"/>
<path opacity="0.1" d="M72.1066 51.4192H-3.45953V81.6351H72.1066V51.4192Z" fill="black"/>
<path opacity="0.1" d="M158.477 51.4192H82.9106V81.6351H158.477V51.4192Z" fill="black"/>
<path opacity="0.1" d="M165.666 8.76373H90.0995V38.9796H165.666V8.76373Z" fill="black"/>
<path opacity="0.1" d="M109.181 130.155H33.615V160.371H109.181V130.155Z" fill="black"/>
<path opacity="0.2" d="M624.875 200.002H700.442V169.787H624.875V200.002Z" fill="black"/>
<path opacity="0.2" d="M898.384 306.661H973.95V276.445H898.384V306.661Z" fill="black"/>
<path opacity="0.2" d="M788.619 96.3877L864.185 96.3877V66.1718L788.619 66.1718V96.3877Z" fill="black"/>
<path opacity="0.2" d="M705.864 96.3877L781.43 96.3877V66.1718L705.864 66.1718V96.3877Z" fill="black"/>
<path opacity="0.2" d="M1027.93 530.104H1103.5V499.888H1027.93V530.104Z" fill="black"/>
<path opacity="0.2" d="M1067.51 567.443H1143.08V537.227H1067.51V567.443Z" fill="black"/>
<path opacity="0.1" d="M666.284 241.785H741.85V211.569H666.284V241.785Z" fill="black"/>
<path opacity="0.1" d="M552.904 411.534H628.47V381.318H552.904V411.534Z" fill="black"/>
<path opacity="0.1" d="M995.538 457.761H1071.1V427.545H995.538V457.761Z" fill="black"/>
<path opacity="0.1" d="M909.168 457.761H984.734V427.545H909.168V457.761Z" fill="black"/>
<path opacity="0.1" d="M901.979 415.085H977.545V384.869H901.979V415.085Z" fill="black"/>
<path opacity="0.1" d="M579.893 241.785H655.459V211.569H579.893V241.785Z" fill="black"/>
<path opacity="0.2" d="M804.805 564.419H880.371V534.203H804.805V564.419Z" fill="black"/>
<path opacity="0.1" d="M846.192 606.182H921.758V575.966H846.192V606.182Z" fill="black"/>
<path opacity="0.1" d="M759.843 606.182H835.409V575.966H759.843V606.182Z" fill="black"/>
<path opacity="0.2" d="M1171.13 188.273H1246.7V158.057H1171.13V188.273Z" fill="black"/>
<path opacity="0.1" d="M1212.54 230.076H1288.11V199.86H1212.54V230.076Z" fill="black"/>
<path opacity="0.1" d="M1126.17 230.076H1201.74V199.86H1126.17V230.076Z" fill="black"/>
<path opacity="0.2" d="M1200.63 413.299H1276.19V383.084H1200.63V413.299Z" fill="black"/>
<path opacity="0.1" d="M865.972 268.815H941.539V238.599H865.972V268.815Z" fill="black"/>
<path opacity="0.1" d="M979.332 565.657H1054.9V535.441H979.332V565.657Z" fill="black"/>
<path opacity="0.1" d="M745.424 59.0694L820.99 59.0694V28.8535L745.424 28.8535V59.0694Z" fill="black"/>
<path opacity="0.2" d="M1243.82 313.256H1319.39V283.04H1243.82V313.256Z" fill="black"/>
<path opacity="0.1" d="M1200.63 275.938H1276.19V245.722H1200.63V275.938Z" fill="black"/>
<path opacity="0.1" d="M1008.11 94.2367L1083.67 94.2367V64.0208L1008.11 64.0208V94.2367Z" fill="black"/>
<path opacity="0.1" d="M1329.47 81.6351L1405.04 81.6351V51.4192L1329.47 51.4192V81.6351Z" fill="black"/>
<path opacity="0.1" d="M1243.1 81.6351L1318.67 81.6351V51.4192L1243.1 51.4192V81.6351Z" fill="black"/>
<path opacity="0.1" d="M1235.92 38.9593L1311.48 38.9593V8.7434L1235.92 8.7434V38.9593Z" fill="black"/>
<path opacity="0.1" d="M1292.4 160.391H1367.97V130.175H1292.4V160.391Z" fill="black"/>
<path d="M1310.6 472.906V248.996" stroke="#5E5E5E" stroke-width="4" stroke-miterlimit="10"/>
<path d="M1282.4 477.432V168.191" stroke="#5E5E5E" stroke-width="4" stroke-miterlimit="10"/>
<path d="M1346.34 478.933V370.327" stroke="#5E5E5E" stroke-width="4" stroke-miterlimit="10"/>
<path d="M1271.45 198.67C1271.45 198.67 1265.78 188.524 1246.93 166.08C1228.07 143.636 1149.79 83.1437 1149.79 83.1437C1149.79 83.1437 1194.12 106.44 1208.25 118.555C1222.38 130.669 1241.26 145.564 1241.26 145.564C1241.26 145.564 1188.45 88.7445 1182.8 85.0107C1177.15 81.2768 1236.55 129.655 1236.55 129.655C1236.55 129.655 1213.96 85.0107 1202.6 70.0347C1191.24 55.0586 1169.59 19.8913 1169.59 19.8913C1169.59 19.8913 1230.88 101.062 1233.72 105.608C1236.55 110.153 1248.81 130.771 1248.81 130.771L1227.12 74.6817L1253.52 120.34C1253.52 120.34 1215.81 43.0859 1213.92 39.352C1212.03 35.6182 1240.31 75.6963 1240.31 75.6963L1215.81 3.02803L1272.37 117.621L1268.62 72.9771L1278.89 119.65L1281.72 5.05731L1288.31 118.697C1288.31 118.697 1298.58 46.0283 1300.64 31.1132C1302.69 16.198 1303.47 0.36969 1303.47 0.36969C1303.47 0.36969 1301.58 99.1344 1301.58 101.935C1301.58 104.735 1299.69 127.078 1299.69 127.078C1299.69 127.078 1313.84 85.1527 1317.6 73.9714C1321.36 62.7901 1325.16 24.5992 1327.03 18.9984C1328.9 13.3976 1317.6 104.715 1316.76 108.449C1315.1 114.53 1312.89 120.452 1310.17 126.144C1307.33 131.745 1330.91 92.6002 1339.4 75.8384L1363.92 27.3996C1363.92 27.3996 1349.77 74.0729 1346.01 82.3523C1342.25 90.6318 1317.71 135.458 1317.71 135.458C1317.71 135.458 1354.49 92.6002 1370.51 81.4189C1386.53 70.2376 1415.7 48.8287 1415.7 48.8287C1415.7 48.8287 1368.46 99.1344 1359.11 108.449C1349.77 117.763 1322.35 150.374 1322.35 150.374C1322.35 150.374 1369.59 120.564 1372.32 117.763C1375.05 114.963 1409.11 93.5336 1409.11 93.5336C1409.11 93.5336 1340.65 146.964 1337.42 150.353C1310.09 179.23 1300.66 193.212 1294.99 198.792C1289.32 204.373 1279.93 207.071 1271.45 198.67Z" fill="#C75B50"/>
<path d="M1303.98 280.349C1303.98 280.349 1300.02 273.104 1286.65 257.316C1273.28 241.529 1217.86 198.63 1217.86 198.63C1217.86 198.63 1249.21 215.107 1259.21 223.671C1269.21 232.234 1282.56 242.787 1282.56 242.787C1282.56 242.787 1245.28 202.526 1241.28 199.949C1237.27 197.372 1279.3 231.585 1279.3 231.585C1279.3 231.585 1263.3 199.949 1255.28 189.417C1247.27 178.885 1231.95 153.823 1231.95 153.823C1231.95 153.823 1275.31 211.15 1277.3 214.458C1279.3 217.766 1287.98 232.255 1287.98 232.255L1272.64 192.704L1291.31 224.99C1291.31 224.99 1264.61 170.301 1263.3 167.663C1261.98 165.025 1281.97 193.354 1281.97 193.354L1264.63 141.952L1304.66 223.022L1302.07 191.385L1309.41 224.341L1311.46 143.271L1316.14 223.671C1316.14 223.671 1323.48 172.269 1324.81 161.737C1326.15 151.206 1326.87 139.984 1326.87 139.984C1326.87 139.984 1325.53 209.831 1325.53 211.82C1325.53 213.809 1324.2 229.617 1324.2 229.617C1324.2 229.617 1334.2 199.949 1336.87 192.055C1339.54 184.161 1342.21 157.111 1343.54 153.154C1344.88 149.197 1336.87 213.788 1336.21 216.426C1335.03 220.725 1333.47 224.914 1331.55 228.947C1329.5 232.904 1346.21 205.225 1352.21 193.354C1358.21 181.482 1369.57 159.099 1369.57 159.099C1369.57 159.099 1359.57 192.055 1356.9 197.98C1354.23 203.906 1336.87 235.542 1336.87 235.542C1336.87 235.542 1362.89 205.225 1374.23 197.311C1385.57 189.396 1406.25 174.258 1406.25 174.258C1406.25 174.258 1372.9 209.831 1366.22 216.426C1359.55 223.022 1340.22 246.094 1340.22 246.094C1340.22 246.094 1373.57 224.99 1375.57 223.022C1377.56 221.053 1401.57 205.894 1401.57 205.894C1401.57 205.894 1353.16 243.68 1350.88 246.094C1331.55 266.509 1324.87 276.391 1320.87 280.349C1316.86 284.306 1309.98 286.294 1303.98 280.349Z" fill="#C75B50"/>
<path d="M1337.94 374.446C1337.94 374.446 1333.83 367.201 1320.6 351.393C1307.37 335.585 1251.9 292.727 1251.9 292.727C1251.9 292.727 1283.24 309.205 1293.24 317.789C1303.25 326.373 1316.6 336.884 1316.6 336.884C1316.6 336.884 1279.23 296.684 1275.23 294.046C1271.22 291.408 1313.25 325.683 1313.25 325.683C1313.25 325.683 1297.25 294.046 1289.24 283.514C1281.23 272.982 1265.9 247.921 1265.9 247.921C1265.9 247.921 1309.24 305.248 1311.26 308.556C1313.27 311.863 1321.94 326.352 1321.94 326.352L1306.59 286.802L1325.26 319.087C1325.26 319.087 1298.56 264.399 1297.25 261.76C1295.93 259.122 1315.92 287.471 1315.92 287.471L1298.58 236.07L1338.59 317.119L1335.95 285.483L1343.28 318.438L1345.33 237.389L1349.99 317.789C1349.99 317.789 1357.35 266.367 1358.68 255.835C1360.02 245.303 1360.74 234.081 1360.74 234.081C1360.74 234.081 1359.4 303.949 1359.4 305.917C1359.4 307.886 1358.07 323.714 1358.07 323.714L1370.74 286.152C1373.41 278.238 1376.08 251.208 1377.41 247.271C1378.75 243.335 1370.74 307.886 1370.08 310.524C1368.9 314.826 1367.33 319.016 1365.4 323.045C1363.35 327.002 1380.09 299.322 1386.08 287.471C1392.08 275.62 1403.32 253.258 1403.32 253.258C1403.32 253.258 1393.29 286.213 1390.62 292.139C1387.95 298.064 1370.62 329.701 1370.62 329.701C1370.62 329.701 1396.56 299.322 1407.98 291.408C1419.4 283.494 1440 268.356 1440 268.356C1440 268.356 1406.64 303.99 1399.97 310.524C1393.29 317.058 1373.96 340.192 1373.96 340.192C1373.96 340.192 1407.3 319.087 1409.31 317.119C1411.33 315.151 1435.32 299.931 1435.32 299.931C1435.32 299.931 1386.9 337.716 1384.62 340.131C1365.28 360.545 1358.62 370.448 1354.62 374.385C1350.61 378.322 1343.94 380.392 1337.94 374.446Z" fill="#C75B50"/>
<path d="M1380.13 551.399C1380.13 595.393 1368.42 634.234 1350.53 657.692H1271.26C1253.37 634.234 1241.67 595.393 1241.67 551.399C1241.67 547.563 1241.67 543.748 1241.93 539.994C1242.36 530.471 1243.39 520.983 1244.99 511.584C1245.59 508.135 1246.25 504.746 1247.05 501.438C1247.66 498.678 1248.32 495.979 1249.1 493.321C1252.15 481.605 1256.53 470.27 1262.17 459.533H1359.98C1365.61 470.27 1370 481.605 1373.04 493.321C1373.76 495.979 1374.42 498.678 1375.09 501.438C1375.83 504.746 1376.49 508.135 1377.15 511.584C1378.76 520.983 1379.78 530.471 1380.21 539.994C1380.13 543.748 1380.13 547.502 1380.13 551.399Z" fill="white" stroke="#263238" stroke-miterlimit="10"/>
<path d="M1372.83 493.321H1248.9C1248.18 495.979 1247.52 498.678 1246.84 501.438H1374.77C1374.21 498.678 1373.55 495.979 1372.83 493.321ZM1376.82 511.584H1244.91C1243.3 520.983 1242.28 530.471 1241.85 539.994H1379.88C1379.45 530.471 1378.43 520.983 1376.82 511.584V511.584Z" fill="#263238" stroke="#263238" stroke-miterlimit="10"/>
</g>
</svg>
